SplineFontDB: 3.2
FontName: D-DIN-PRO-Exp-ExtraBold-Italic
FullName: D-DIN-PRO-Exp-ExtraBold-Italic
FamilyName: D-DIN-PRO-Exp
Weight: Extrabold
Copyright: Copyright (c) CyberFei. All rights reserved
Version: 1.1.0
ItalicAngle: -13
UnderlinePosition: -150
UnderlineWidth: 50
Ascent: 831
Descent: 169
InvalidEm: 0
sfntRevision: 0x00010000
LayerCount: 2
Layer: 0 0 "Back" 1
Layer: 1 0 "Fore" 0
XUID: [1021 868 -1451673819 24784]
StyleMap: 0x0020
FSType: 4
OS2Version: 4
OS2_WeightWidthSlopeOnly: 1
OS2_UseTypoMetrics: 0
CreationTime: 1462909513
ModificationTime: 1778060080
PfmFamily: 17
TTFWeight: 800
TTFWidth: 7
LineGap: 0
VLineGap: 0
Panose: 2 11 8 4 2 2 2 3 2 4
OS2TypoAscent: 831
OS2TypoAOffset: 0
OS2TypoDescent: -169
OS2TypoDOffset: 0
OS2TypoLinegap: 86
OS2WinAscent: 902
OS2WinAOffset: 0
OS2WinDescent: 184
OS2WinDOffset: 0
HheadAscent: 902
HheadAOffset: 0
HheadDescent: -184
HheadDOffset: 0
OS2SubXSize: 650
OS2SubYSize: 600
OS2SubXOff: 0
OS2SubYOff: 75
OS2SupXSize: 650
OS2SupYSize: 600
OS2SupXOff: 0
OS2SupYOff: 350
OS2StrikeYSize: 50
OS2StrikeYPos: 312
OS2CapHeight: 690
OS2XHeight: 520
OS2Vendor: 'MONO'
OS2CodePages: 00000001.00000000
OS2UnicodeRanges: 8000006f.4000000a.00000000.00000000
Lookup: 1 0 0 "'rtla' Right to Left Alternates lookup 0" { "'rtla' Right to Left Alternates lookup 0 subtable"  } ['rtla' ('DFLT' <'dflt' > ) ]
Lookup: 1 0 0 "'sups' Superscript lookup 1" { "'sups' Superscript lookup 1 subtable" ("superior") } ['sups' ('DFLT' <'dflt' > ) ]
Lookup: 4 0 0 "'frac' Diagonal Fractions lookup 2" { "'frac' Diagonal Fractions lookup 2 subtable"  } ['frac' ('DFLT' <'dflt' > ) ]
Lookup: 258 0 0 "'kern' Horizontal Kerning in Latin lookup 0" { "'kern' Horizontal Kerning in Latin lookup 0 subtable"  } ['kern' ('DFLT' <'dflt' > 'latn' <'dflt' > ) ]
Lookup: 258 0 0 "Pairwise Positioning (kerning) lookup 1" { "Pairwise Positioning (kerning) lookup 1 subtable"  } []

StartChar: .notdef
Encoding: 65536 -1 0
Width: 602
GlyphClass: 1
Flags: MW
HStem: -0.0771484 48.0205<78 385.72 78 422.654> 642.804 48.0195<215.335 523.055 215.335 215.335>
VStem: 102.87 48.0205 458.61 48.0205
LayerCount: 2
Fore
SplineSet
178.400390625 690.823242188 m 1
 582.161132812 690.823242188 l 1
 422.654296875 -0.0771484375 l 1
 18.8935546875 -0.0771484375 l 1
 178.400390625 690.823242188 l 1
78 47.943359375 m 1
 385.719726562 47.943359375 l 1
 523.0546875 642.803710938 l 1
 215.334960938 642.803710938 l 1
 78 47.943359375 l 1
EndSplineSet
EndChar

StartChar: exclam
Encoding: 33 33 4
Width: 256
GlyphClass: 2
Flags: MW
HStem: -0.0771484 142.101<10.541 120.813 -22.2656 153.62> 670.823 20G<131.947 285.614 285.614 285.614>
VStem: 61.7109 143.079 80.7041 105.093
LayerCount: 2
Fore
SplineSet
131.947265625 690.823242188 m 1xd0
 285.614257812 690.823242188 l 1
 153.858398438 225.323242188 l 1
 48.765625 225.323242188 l 1
 131.947265625 690.823242188 l 1xd0
10.541015625 142.0234375 m 1xe0
 153.620117188 142.0234375 l 1
 120.813476562 -0.0771484375 l 1
 -22.265625 -0.0771484375 l 1
 10.541015625 142.0234375 l 1xe0
EndSplineSet
EndChar

StartChar: quotedbl
Encoding: 34 34 5
Width: 401
GlyphClass: 2
Flags: MW
HStem: 384.083 306.74<116.661 175.204 45.8447 246.021 245.765 245.765 245.765 246.021 316.581 374.145>
VStem: 41.1309 129.359 241.051 128.38
LayerCount: 2
Fore
SplineSet
116.661132812 690.823242188 m 1
 246.020507812 690.823242188 l 1
 175.204101562 384.083007812 l 1
 45.8447265625 384.083007812 l 1
 116.661132812 690.823242188 l 1
316.581054688 690.823242188 m 1
 444.9609375 690.823242188 l 1
 374.14453125 384.083007812 l 1
 245.764648438 384.083007812 l 1
 316.581054688 690.823242188 l 1
EndSplineSet
EndChar

StartChar: numbersign
Encoding: 35 35 6
Width: 604
GlyphClass: 2
Flags: MW
HStem: -0.0771484 21G<12.9561 128.726 12.9561 12.9561 223.656 340.406 223.656 223.656> 199.844 104.859<7.91797 85.5713 -16.291 123.512 239.289 296.271 7.91797 201.341 450.894 525.649> 397.804 104.859<81.0605 157.701 56.8525 195.635 81.0605 273.479 311.4 368.401 522.1 598.792> 670.823 20G<263.575 379.341 379.341 379.341 474.275 590.04 590.04 590.04>
LayerCount: 2
Fore
SplineSet
623 502.663085938 m 1
 598.791992188 397.803710938 l 1
 484.236328125 397.803710938 l 1
 450.893554688 304.703125 l 1
 549.858398438 304.703125 l 1
 525.649414062 199.84375 l 1
 413.021484375 199.84375 l 1
 340.40625 -0.0771484375 l 1
 223.65625 -0.0771484375 l 1
 296.271484375 199.84375 l 1
 201.340820312 199.84375 l 1
 128.725585938 -0.0771484375 l 1
 12.9560546875 -0.0771484375 l 1
 85.5712890625 199.84375 l 1
 -16.291015625 199.84375 l 1
 7.91796875 304.703125 l 1
 123.51171875 304.703125 l 1
 157.701171875 397.803710938 l 1
 56.8525390625 397.803710938 l 1
 81.060546875 502.663085938 l 1
 195.634765625 502.663085938 l 1
 263.575195312 690.823242188 l 1
 379.340820312 690.823242188 l 1
 311.400390625 502.663085938 l 1
 406.334960938 502.663085938 l 1
 474.275390625 690.823242188 l 1
 590.040039062 690.823242188 l 1
 522.099609375 502.663085938 l 1
 623 502.663085938 l 1
334.211914062 304.703125 m 1
 368.401367188 397.803710938 l 1
 273.478515625 397.803710938 l 1
 239.2890625 304.703125 l 1
 334.211914062 304.703125 l 1
EndSplineSet
EndChar

StartChar: dollar
Encoding: 36 36 7
Width: 538
GlyphClass: 2
Flags: MW
HStem: 31.0732 116.831<143.685 254.489> 549.702 112.719<289.444 361.265>
VStem: 30.9805 126.905 47.0117 133.278 220.47 101.92 377.271 134.259
LayerCount: 2
Fore
SplineSet
225.048828125 147.904296875 m 0xec
 283.9296875 147.904296875 331.546875 165.612304688 343.635742188 217.974609375 c 0
 353.487304688 260.646484375 336.568359375 281.15625 286.592773438 287.12890625 c 2
 215.360351562 296.928710938 l 2
 98.5947265625 312.900390625 49.0693359375 372.576171875 72.654296875 474.734375 c 0
 84.619140625 526.559570312 110.353515625 569.619140625 149.836914062 602.80859375 c 0
 187.768554688 634.693359375 234.552734375 654.427734375 289.444335938 662.420898438 c 1
 307.314453125 739.822265625 l 1
 409.234375 739.822265625 l 1
 391.624023438 663.54296875 l 1
 458.415039062 654.66796875 549.915039062 617.4453125 527.931640625 477.2421875 c 2
 526.692382812 469.342773438 l 1
 397.434570312 469.342773438 l 1
 401.541015625 499.630859375 407.658203125 549.702148438 314.87109375 549.702148438 c 0
 274.99609375 549.702148438 220.7734375 539.01953125 207.967773438 483.552734375 c 0xdc
 200.180664062 449.819335938 213.025390625 425.752929688 275.317382812 416.350585938 c 0
 275.350585938 416.345703125 349.276367188 405.5703125 349.276367188 405.5703125 c 2
 458.526367188 389.529296875 503.577148438 329.217773438 479.930664062 226.79296875 c 0
 467.055664062 171.026367188 439.259765625 125.556640625 396.5234375 91.669921875 c 0
 355.49609375 59.1396484375 305.047851562 39.44921875 245.842773438 32.1044921875 c 1
 224.837890625 -58.8759765625 l 1
 122.91796875 -58.8759765625 l 1
 143.684570312 31.0732421875 l 1
 34.60546875 44.603515625 -21.365234375 111.65625 0.3388671875 229.387695312 c 2
 1.7568359375 237.083984375 l 1
 128.662109375 237.083984375 l 1
 123.6171875 190.551757812 125.814453125 147.904296875 225.048828125 147.904296875 c 0xec
EndSplineSet
EndChar

StartChar: percent
Encoding: 37 37 8
Width: 979
GlyphClass: 2
Flags: MW
HStem: -5.95508 101.92<712.306 729.104 712.306 756.245> 258.644 101.921<196.174 212.972 196.174 240.113> 331.164 100.941<766.64 782.979> 595.765 100.938<250.508 266.847>
VStem: 48.9707 115.64 243.99 115.641 626.19 115.64 821.211 115.64
LayerCount: 2
Fore
SplineSet
180.0546875 258.643554688 m 0xdf
 96.21875 258.643554688 33.5205078125 296.743164062 63.5263671875 426.712890625 c 2
 88.8671875 536.474609375 l 2
 104.952148438 606.147460938 151.231445312 696.703125 283.1484375 696.703125 c 0
 365.596679688 696.703125 428.188476562 660.623046875 399.526367188 536.473632812 c 2
 374.186523438 426.712890625 l 2
 353.244140625 336 300.171875 258.643554688 180.0546875 258.643554688 c 0xdf
733.611328125 695.724609375 m 1
 851.01953125 695.724609375 l 1
 245.870117188 -0.076171875 l 1
 129.462890625 -0.076171875 l 1
 733.611328125 695.724609375 l 1
259.677734375 431.615234375 m 2
 280.9453125 523.735351562 l 2
 287.467773438 551.987304688 288.483398438 571.415039062 285.360351562 581.497070312 c 0
 282.5078125 590.70703125 274.829101562 595.764648438 258.864257812 595.764648438 c 0
 242.15234375 595.764648438 231.57421875 590.591796875 224.20703125 581.364257812 c 0
 216.186523438 571.317382812 208.083007812 551.966796875 201.565429688 523.734375 c 2
 180.297851562 431.614257812 l 2
 173.77734375 403.370117188 173.014648438 384.204101562 176.416992188 374.549804688 c 0
 179.552734375 365.653320312 187.783203125 360.564453125 204.564453125 360.564453125 c 0
 221.379882812 360.564453125 231.420898438 365.637695312 237.975585938 374.27734375 c 0
 245.361328125 384.012695312 253.149414062 403.33984375 259.677734375 431.615234375 c 2
696.186523438 -5.955078125 m 0
 612.350585938 -5.955078125 549.65234375 32.14453125 579.659179688 162.115234375 c 2
 604.999023438 271.875 l 2
 621.0859375 341.556640625 667.369140625 432.10546875 799.28125 432.10546875 c 0xbf
 881.729492188 432.10546875 944.321289062 396.024414062 915.659179688 271.875 c 2
 890.319335938 162.115234375 l 2
 869.375976562 71.40234375 816.303710938 -5.955078125 696.186523438 -5.955078125 c 0
775.810546875 167.014648438 m 2
 797.078125 259.133789062 l 2
 803.600585938 287.38671875 804.615234375 306.814453125 801.4921875 316.896484375 c 0
 798.640625 326.107421875 790.9609375 331.1640625 774.99609375 331.1640625 c 0
 758.284179688 331.1640625 747.708007812 325.9921875 740.338867188 316.763671875 c 0
 732.3203125 306.720703125 724.215820312 287.370117188 717.697265625 259.134765625 c 2
 696.4296875 167.015625 l 2
 689.909179688 138.770507812 689.146484375 119.60546875 692.549804688 109.951171875 c 0
 695.684570312 101.053710938 703.915039062 95.96484375 720.696289062 95.96484375 c 0
 737.51171875 95.96484375 747.553710938 101.038085938 754.108398438 109.677734375 c 0
 761.494140625 119.4140625 769.282226562 138.73828125 775.810546875 167.014648438 c 2
EndSplineSet
EndChar

StartChar: ampersand
Encoding: 38 38 9
Width: 666
GlyphClass: 2
Flags: MW
HStem: -13.7979 119.562<195.076 219.82> -0.078125 119.561<454.576 568.837 539.928 541.234> 595.763 108.78<348.624 362.056>
VStem: 48.9717 130.339 108.75 128.382 361.592 126.419
LayerCount: 2
Fore
SplineSet
527.454101562 534.513671875 m 0xac
 511.642578125 466.025390625 463.875 417.154296875 357.760742188 356.534179688 c 1
 428.594726562 243.83203125 l 1
 538.829101562 342.083007812 l 1
 607.045898438 263.594726562 l 1
 484.358398438 154.3203125 l 1
 499.6484375 131.772460938 507.983398438 119.482421875 539.927734375 119.482421875 c 2
 568.836914062 119.482421875 l 1
 541.234375 -0.078125 l 1
 480.96484375 -0.078125 l 2x6c
 428.1875 -0.078125 402.774414062 18.8662109375 376.993164062 60.548828125 c 1
 326.541015625 22.197265625 263.682617188 -13.7978515625 175.95703125 -13.7978515625 c 0
 109.9375 -13.7978515625 61.400390625 4.4697265625 31.744140625 41.6953125 c 0
 2.2060546875 78.7734375 -5.630859375 127.15625 7.869140625 185.6328125 c 0xb4
 27.580078125 271.009765625 85.6298828125 329.94921875 180.413085938 383.447265625 c 1
 145.663085938 446.1328125 136.768554688 485.026367188 148.193359375 534.513671875 c 0
 159.913085938 585.279296875 187.204101562 626.938476562 229.685546875 658.112304688 c 0
 272.047851562 689.19921875 321.1484375 704.54296875 376.098632812 704.54296875 c 0
 431.69921875 704.54296875 474.168945312 689.038085938 502.432617188 657.620117188 c 0
 530.735351562 626.155273438 539.03515625 584.677734375 527.454101562 534.513671875 c 0xac
351.965820312 595.762695312 m 0
 333.865234375 595.762695312 289.48046875 590.4140625 277.706054688 539.413085938 c 0
 270.961914062 510.200195312 280.454101562 483.370117188 303.827148438 444.145507812 c 1
 356.944335938 473.081054688 393.028320312 499.833984375 401.713867188 537.452148438 c 0
 405.856445312 555.3984375 403.37109375 569.041992188 394.638671875 579.650390625 c 0
 385.944335938 590.211914062 372.145507812 595.762695312 351.965820312 595.762695312 c 0
235.481445312 292.517578125 m 1
 175.397460938 257.560546875 148.297851562 229.333007812 139.33984375 190.533203125 c 0
 133.047851562 163.28125 136.412109375 142.989257812 148.624023438 128.259765625 c 0
 160.875976562 113.482421875 180.7109375 105.763671875 209.440429688 105.763671875 c 0xb4
 251.125 105.763671875 285.783203125 123.766601562 322.4140625 151.000976562 c 1
 235.481445312 292.517578125 l 1
EndSplineSet
EndChar

StartChar: quotesingle
Encoding: 39 39 10
Width: 201
GlyphClass: 2
Flags: MW
HStem: 384.083 306.74<116.661 175.204 45.8447 246.021>
VStem: 41.1309 129.359
LayerCount: 2
Fore
SplineSet
116.661132812 690.823242188 m 1
 246.020507812 690.823242188 l 1
 175.204101562 384.083007812 l 1
 45.8447265625 384.083007812 l 1
 116.661132812 690.823242188 l 1
EndSplineSet
EndChar

StartChar: parenleft
Encoding: 40 40 11
Width: 329
GlyphClass: 2
Flags: MW
VStem: 48.9707 135.24
LayerCount: 2
Fore
SplineSet
41.1279296875 329.694335938 m 0
 74.98046875 476.328125 148.735351562 616.247070312 277.8515625 739.823242188 c 1
 383.505859375 739.823242188 l 1
 343.130859375 691.23046875 227.78515625 552.404296875 176.141601562 328.712890625 c 0
 152.590820312 226.705078125 136.040039062 75.5234375 188.612304688 -71.3251953125 c 2
 192.577148438 -82.396484375 l 1
 86.9384765625 -82.396484375 l 1
 57.2001953125 -27.771484375 -9.490234375 110.4453125 41.1279296875 329.694335938 c 0
EndSplineSet
Substitution2: "'rtla' Right to Left Alternates lookup 0 subtable" parenright
EndChar

StartChar: parenright
Encoding: 41 41 12
Width: 329
GlyphClass: 2
Flags: MW
VStem: 155.79 135.24
LayerCount: 2
Fore
SplineSet
147.720703125 328.712890625 m 0
 171.791015625 432.97265625 187.71484375 583.962890625 134.288085938 728.69921875 c 2
 130.181640625 739.823242188 l 1
 235.893554688 739.823242188 l 1
 268.357421875 682.083984375 333.19921875 546.3203125 283.1875 329.694335938 c 0
 251.002929688 190.288085938 179.345703125 49.041015625 47.099609375 -82.396484375 c 1
 -59.51953125 -82.396484375 l 1
 -50.443359375 -71.3251953125 l 2
 16.5556640625 10.4052734375 105.620117188 146.356445312 147.720703125 328.712890625 c 0
EndSplineSet
Substitution2: "'rtla' Right to Left Alternates lookup 0 subtable" parenleft
EndChar

StartChar: asterisk
Encoding: 42 42 13
Width: 418
GlyphClass: 2
Flags: MW
HStem: 381.144 309.68<248.961 259.785 177.466 331.28>
VStem: 173.431 82.3193
LayerCount: 2
Fore
SplineSet
259.78515625 381.143554688 m 1
 177.465820312 381.143554688 l 1
 199.469726562 476.451171875 l 1
 96.900390625 429.634765625 l 1
 76.7333984375 495.504882812 l 1
 168.491210938 537.453125 l 1
 96.1025390625 579.40234375 l 1
 146.64453125 645.220703125 l 1
 227.836914062 599.326171875 l 1
 248.9609375 690.823242188 l 1
 331.280273438 690.823242188 l 1
 309.955078125 598.455078125 l 1
 412.629882812 645.319335938 l 1
 431.60546875 579.353515625 l 1
 340.032226562 537.489257812 l 1
 413.430664062 495.485351562 l 1
 361.701171875 429.706054688 l 1
 281.575195312 475.525390625 l 1
 259.78515625 381.143554688 l 1
EndSplineSet
EndChar

StartChar: plus
Encoding: 43 43 14
Width: 532
GlyphClass: 2
Flags: MW
HStem: 214.543 126.42<45.6895 173.303 16.5029 202.489 328.909 455.543 45.6895 299.723>
VStem: 207.73 126.42
LayerCount: 2
Fore
SplineSet
299.72265625 214.54296875 m 1
 263.522460938 57.7431640625 l 1
 137.102539062 57.7431640625 l 1
 173.302734375 214.54296875 l 1
 16.5029296875 214.54296875 l 1
 45.689453125 340.962890625 l 1
 202.489257812 340.962890625 l 1
 238.689453125 497.763671875 l 1
 365.109375 497.763671875 l 1
 328.909179688 340.962890625 l 1
 484.729492188 340.962890625 l 1
 455.54296875 214.54296875 l 1
 299.72265625 214.54296875 l 1
EndSplineSet
EndChar

StartChar: comma
Encoding: 44 44 15
Width: 201
GlyphClass: 2
Flags: MW
HStem: -167.332 316.216<-81.46 120.904>
VStem: 41.1309 129.359
LayerCount: 2
Fore
SplineSet
-8.455078125 148.883789062 m 1
 120.904296875 148.883789062 l 1
 73.169921875 -57.8740234375 l 1
 -81.4599609375 -167.33203125 l 1
 -8.455078125 148.883789062 l 1
EndSplineSet
EndChar

StartChar: hyphen
Encoding: 45 45 16
Width: 405
GlyphClass: 2
Flags: MW
HStem: 282.163 127.4<59.5674 347.674 30.1543 377.087>
VStem: 48.9707 317.52
LayerCount: 2
Fore
SplineSet
59.5673828125 409.563476562 m 1
 377.086914062 409.563476562 l 1
 347.673828125 282.163085938 l 1
 30.154296875 282.163085938 l 1
 59.5673828125 409.563476562 l 1
EndSplineSet
EndChar

StartChar: period
Encoding: 46 46 17
Width: 222
GlyphClass: 2
Flags: MW
HStem: -0.0771484 153.86<-7.32422 108.074 -42.8457 143.596>
VStem: 41.1309 150.92
LayerCount: 2
Fore
SplineSet
-7.32421875 153.783203125 m 1
 143.595703125 153.783203125 l 1
 108.07421875 -0.0771484375 l 1
 -42.845703125 -0.0771484375 l 1
 -7.32421875 153.783203125 l 1
EndSplineSet
EndChar

StartChar: slash
Encoding: 47 47 18
Width: 449
GlyphClass: 2
Flags: MW
HStem: -9.87695 21G<-40.3115 77.1943 -40.3115 -40.3115> 675.724 20G<371.802 490.309 490.309 490.309>
LayerCount: 2
Fore
SplineSet
371.801757812 695.723632812 m 1
 490.30859375 695.723632812 l 1
 77.1943359375 -9.876953125 l 1
 -40.3115234375 -9.876953125 l 1
 371.801757812 695.723632812 l 1
EndSplineSet
EndChar

StartChar: zero
Encoding: 48 48 19
Width: 566
GlyphClass: 2
Flags: MW
HStem: -10.8564 126.42<218.383 252.41 218.383 304.82> 574.204 127.399<324.252 357.958>
VStem: 57.79 144.061 384.131 143.08
LayerCount: 2
Fore
SplineSet
206.03515625 -10.8564453125 m 0
 73.3134765625 -10.8564453125 -14.20703125 51.8134765625 30.2626953125 244.43359375 c 2
 78.6806640625 454.153320312 l 2
 94.2763671875 521.70703125 147.204101562 701.603515625 370.51953125 701.603515625 c 0
 454.770507812 701.603515625 599.813476562 678.139648438 548.1015625 454.153320312 c 2
 499.68359375 244.43359375 l 2
 473.206054688 129.744140625 403.60546875 -10.8564453125 206.03515625 -10.8564453125 c 0
359.092773438 255.213867188 m 2
 400.72265625 435.534179688 l 2
 412.494140625 486.520507812 412.950195312 522.36328125 403.784179688 543.1640625 c 0
 394.797851562 563.561523438 374.809570312 574.204101562 341.106445312 574.204101562 c 0
 307.3984375 574.204101562 282.703125 563.564453125 264.642578125 543.225585938 c 0
 246.16015625 522.413085938 230.216796875 486.53125 218.442382812 435.534179688 c 2
 176.8125 255.213867188 l 2
 165.040039062 204.22265625 164.36328125 168.16015625 173.190429688 146.9921875 c 0
 181.806640625 126.328125 201.545898438 115.563476562 235.220703125 115.563476562 c 0
 269.598632812 115.563476562 294.625976562 126.374023438 312.744140625 146.9921875 c 0
 331.345703125 168.16015625 347.3203125 204.22265625 359.092773438 255.213867188 c 2
EndSplineSet
EndChar

StartChar: one
Encoding: 49 49 20
Width: 384
GlyphClass: 2
Flags: MW
HStem: -0.0771484 21G<99.2539 242.334 99.2539 99.2539> 670.823 20G<264.099 401.841 401.841 401.841>
VStem: 183.23 143.08
LayerCount: 2
Fore
SplineSet
59.8349609375 453.172851562 m 1
 94.2880859375 602.404296875 l 1
 264.098632812 690.823242188 l 1
 401.840820312 690.823242188 l 1
 242.333984375 -0.0771484375 l 1
 99.25390625 -0.0771484375 l 1
 223.125976562 536.47265625 l 1
 59.8349609375 453.172851562 l 1
EndSplineSet
Substitution2: "'sups' Superscript lookup 1 subtable" uni00B9
EndChar

StartChar: two
Encoding: 50 50 21
Width: 547
GlyphClass: 2
Flags: MW
HStem: -0.0771484 127.4<200.163 428.534> 578.122 123.481<323.224 341.735>
VStem: 52.8896 137.2 367.47 144.061
LayerCount: 2
Fore
SplineSet
357.779296875 701.603515625 m 0
 503.013671875 701.603515625 570.609375 619.56640625 543.959960938 504.133789062 c 2
 541.018554688 491.393554688 l 2
 527.275390625 431.8671875 494.629882812 376.904296875 412.065429688 306.92578125 c 2
 200.163085938 127.323242188 l 1
 457.947265625 127.323242188 l 1
 428.534179688 -0.0771484375 l 1
 -27.166015625 -0.0771484375 l 1
 -1.26953125 112.091796875 l 1
 104.75390625 203.041992188 209.716796875 295.340820312 316.797851562 384.948242188 c 0
 365.3984375 425.618164062 388.0546875 452.827148438 396.731445312 490.412109375 c 2
 399.220703125 501.192382812 l 2
 404.865234375 525.642578125 401.205078125 543.870117188 388.758789062 557.379882812 c 0
 376.254882812 570.950195312 356.16015625 578.122070312 327.310546875 578.122070312 c 0
 299.083007812 578.122070312 276.196289062 571.252929688 257.897460938 558.299804688 c 0
 239.744140625 545.44921875 228.010742188 527.91796875 222.51953125 504.1328125 c 2
 217.202148438 481.102539062 l 1
 80.001953125 481.102539062 l 1
 87.12890625 511.97265625 l 2
 100.372070312 569.333007812 131.65234375 615.9609375 180.505859375 650.388671875 c 0
 229.33203125 684.797851562 288.668945312 701.603515625 357.779296875 701.603515625 c 0
EndSplineSet
Substitution2: "'sups' Superscript lookup 1 subtable" uni00B2
EndChar

StartChar: three
Encoding: 51 51 22
Width: 558
GlyphClass: 2
Flags: MW
HStem: -10.8564 123.479<186.132 233.446> 293.922 123.48<238.756 255.818 210.248 283.346> 578.122 123.48<324.565 365.794>
VStem: 52.8896 134.26 365.51 141.12 377.27 141.121
LayerCount: 2
Fore
SplineSet
424.385742188 367.741210938 m 1xf8
 441.87109375 359.204101562 509.2734375 324.173828125 483.170898438 211.11328125 c 2
 479.55078125 195.43359375 l 2
 464.982421875 132.327148438 432.032226562 81.4765625 380.900390625 44.3623046875 c 0
 329.875976562 7.3251953125 268.696289062 -10.8564453125 198.1953125 -10.8564453125 c 0
 124.666015625 -10.8564453125 70.9912109375 5.166015625 38.291015625 38.3427734375 c 0
 5.498046875 71.615234375 -3.4453125 119.653320312 10.65625 180.733398438 c 2
 14.841796875 198.86328125 l 1
 149.1015625 198.86328125 l 1
 145.594726562 183.672851562 l 2
 137.60546875 149.068359375 147.522460938 112.623046875 224.741210938 112.623046875 c 0
 286.534179688 112.623046875 326.354492188 143.129882812 338.65625 196.412109375 c 2
 342.049804688 211.112304688 l 2xf4
 351.791992188 253.311523438 344.202148438 293.921875 255.818359375 293.921875 c 2
 210.248046875 293.921875 l 1
 238.755859375 417.40234375 l 1
 283.345703125 417.40234375 l 2
 325.413085938 417.40234375 380.7109375 429.5078125 395.450195312 493.352539062 c 2
 398.165039062 505.112304688 l 2
 404.649414062 533.197265625 403.297851562 578.122070312 328.290039062 578.122070312 c 0
 294.208984375 578.122070312 238.495117188 569.08984375 223.951171875 506.092773438 c 2
 220.217773438 489.921875 l 1
 87.91796875 489.921875 l 1
 91.6513671875 506.092773438 l 2
 106.028320312 568.365234375 136.591796875 617.311523438 183.568359375 651.29296875 c 0
 230.418945312 685.185546875 289.392578125 701.602539062 359.73828125 701.602539062 c 0
 428.780273438 701.602539062 480.17578125 685.668945312 512.87109375 652.916015625 c 0
 545.638671875 620.09375 555.315429688 574.543945312 542.2265625 517.852539062 c 2
 539.28515625 505.112304688 l 2
 533.780273438 481.268554688 514.07421875 411.06640625 424.385742188 367.741210938 c 1xf8
EndSplineSet
Substitution2: "'sups' Superscript lookup 1 subtable" uni00B3
EndChar

StartChar: four
Encoding: 52 52 23
Width: 579
GlyphClass: 2
Flags: MW
HStem: -0.0771484 21G<264.874 407.954 264.874 264.874> 107.724 127.399<161.778 289.762 462.254 494.582 161.778 432.842> 670.823 20G<336.925 484.545 484.545 484.545>
VStem: 348.851 143.08
LayerCount: 2
Fore
SplineSet
462.25390625 235.123046875 m 1
 523.994140625 235.123046875 l 1
 494.58203125 107.723632812 l 1
 432.841796875 107.723632812 l 1
 407.954101562 -0.0771484375 l 1
 264.874023438 -0.0771484375 l 1
 289.76171875 107.723632812 l 1
 -16.978515625 107.723632812 l 1
 11.1201171875 229.432617188 l 1
 336.924804688 690.823242188 l 1
 484.544921875 690.823242188 l 1
 161.778320312 235.123046875 l 1
 319.173828125 235.123046875 l 1
 355.827148438 393.883789062 l 1
 498.907226562 393.883789062 l 1
 462.25390625 235.123046875 l 1
EndSplineSet
EndChar

StartChar: five
Encoding: 53 53 24
Width: 550
GlyphClass: 2
Flags: MW
HStem: -10.8564 123.479<195.374 228.549> 339.983 119.56<265.388 361.085> 566.363 124.46<241.787 536.768 241.787 241.787>
VStem: 69.5508 125.439 369.431 141.12
LayerCount: 2
Fore
SplineSet
340.999023438 240.513671875 m 2
 354.40625 298.587890625 339.227539062 339.983398438 274.29296875 339.983398438 c 0
 256.482421875 339.983398438 210.928710938 335.696289062 180.254882812 294.940429688 c 2
 177.276367188 290.983398438 l 1
 52.7705078125 290.983398438 l 1
 145.081054688 690.823242188 l 1
 565.500976562 690.823242188 l 1
 536.767578125 566.36328125 l 1
 241.787109375 566.36328125 l 1
 210.265625 429.831054688 l 1
 246.590820312 449.69921875 286.420898438 459.54296875 329.334960938 459.54296875 c 0
 392.834960938 459.54296875 438.959960938 440.857421875 466.13671875 402.852539062 c 0
 493.287109375 364.883789062 498.625 312.0078125 483.25 245.413085938 c 2
 474.65234375 208.172851562 l 2
 458.93359375 140.084960938 426.255859375 85.900390625 376.358398438 47.0244140625 c 0
 326.463867188 8.1513671875 264.782226562 -10.8564453125 192.315429688 -10.8564453125 c 0
 125.853515625 -10.8564453125 75.7294921875 4.779296875 42.9228515625 36.8017578125 c 0
 9.9765625 68.9619140625 0.123046875 113.888671875 13.0673828125 169.953125 c 2
 16.57421875 185.143554688 l 1
 153.774414062 185.143554688 l 1
 151.171875 173.873046875 l 2
 142.805664062 137.631835938 168.9453125 112.623046875 221.801757812 112.623046875 c 0
 239.715820312 112.623046875 311.537109375 112.90234375 333.985351562 210.133789062 c 2
 340.999023438 240.513671875 l 2
EndSplineSet
EndChar

StartChar: six
Encoding: 54 54 25
Width: 571
GlyphClass: 2
Flags: MW
HStem: -10.8564 123.479<220.452 244.559> 305.683 121.521<264.704 378.471> 670.823 20G<354.976 511.124 511.124 511.124>
VStem: 52.8896 143.08 393.93 143.08
LayerCount: 2
Fore
SplineSet
15.6337890625 202.291992188 m 2
 20.1591796875 221.892578125 l 2
 32.00390625 273.19921875 61.544921875 328.029296875 108.099609375 386.291992188 c 2
 354.975585938 690.823242188 l 1
 511.124023438 690.823242188 l 1
 292.026367188 420.456054688 l 1
 308.864257812 425.014648438 327.62890625 427.203125 348.328125 427.203125 c 0
 408.614257812 427.203125 453.907226562 409.145507812 482.966796875 372.69140625 c 0
 512.068359375 336.184570312 519.338867188 287.124023438 505.41015625 226.79296875 c 2
 500.659179688 206.212890625 l 2
 485.196289062 139.236328125 450.829101562 85.60546875 397.653320312 46.826171875 c 0
 344.623046875 8.1513671875 281.12109375 -10.8564453125 207.99609375 -10.8564453125 c 0
 133.000976562 -10.8564453125 77.8037109375 7.5869140625 43.6396484375 45.3671875 c 0
 9.431640625 83.197265625 0.33203125 136.014648438 15.6337890625 202.291992188 c 2
281.073242188 305.682617188 m 0
 248.334960938 305.682617188 180.391601562 296.189453125 162.786132812 219.932617188 c 2
 158.487304688 201.3125 l 2
 151.90625 172.805664062 155.657226562 151.58203125 168.981445312 136.182617188 c 0
 182.329101562 120.7578125 204.40234375 112.622070312 236.501953125 112.622070312 c 0
 268.595703125 112.622070312 294.619140625 120.754882812 315.447265625 136.225585938 c 0
 336.198242188 151.639648438 349.874023438 172.837890625 356.447265625 201.311523438 c 2
 360.51953125 218.951171875 l 2
 367.094726562 247.432617188 363.12109375 268.231445312 349.432617188 282.963867188 c 0
 335.618164062 297.83203125 313.220703125 305.682617188 281.073242188 305.682617188 c 0
EndSplineSet
EndChar

StartChar: seven
Encoding: 55 55 26
Width: 511
GlyphClass: 2
Flags: MW
HStem: -0.0771484 21G<18.0693 164.401 18.0693 18.0693> 564.403 126.42<111.761 388.489 82.5742 564.521>
LayerCount: 2
Fore
SplineSet
564.520507812 690.823242188 m 1
 536.6875 570.263671875 l 1
 164.401367188 -0.0771484375 l 1
 18.0693359375 -0.0771484375 l 1
 388.489257812 564.403320312 l 1
 82.57421875 564.403320312 l 1
 111.760742188 690.823242188 l 1
 564.520507812 690.823242188 l 1
EndSplineSet
EndChar

StartChar: eight
Encoding: 56 56 27
Width: 580
GlyphClass: 2
Flags: MW
HStem: -10.8564 123.48<211.081 249.121> 299.805 120.539<269.811 302.014> 578.123 123.48<335.375 363.981>
VStem: 57.7891 141.12 72.4893 140.14 387.068 141.121 400.79 140.141
LayerCount: 2
Fore
SplineSet
378.359375 701.603515625 m 0xe8
 524.654296875 701.603515625 586.94140625 618.1484375 561.297851562 507.073242188 c 2
 558.80859375 496.29296875 l 2xec
 551.731445312 465.635742188 537.541015625 437.592773438 516.341796875 412.57421875 c 0
 498.5546875 391.581054688 477.823242188 374.688476562 454.41796875 362.112304688 c 1
 476.418945312 347.198242188 492.206054688 327.668945312 501.485351562 303.65625 c 0
 512.14453125 276.071289062 513.70703125 245.748046875 506.1640625 213.073242188 c 2
 502.99609375 199.353515625 l 2
 488.116210938 134.90234375 454.077148438 83.044921875 401.147460938 45.2919921875 c 0
 348.361328125 7.642578125 285.346679688 -10.8564453125 212.895507812 -10.8564453125 c 0
 140.4453125 -10.8564453125 85.9716796875 7.642578125 50.5703125 45.2919921875 c 0
 15.0869140625 83.0283203125 4.8935546875 134.551757812 19.6279296875 198.373046875 c 2
 22.7958984375 212.09375 l 2xf2
 29.5263671875 241.245117188 55.14453125 317.454101562 144.379882812 362.23828125 c 1
 113.30078125 384.514648438 87.4462890625 428.451171875 103.108398438 496.29296875 c 2
 105.59765625 507.073242188 l 2
 131.245117188 618.1640625 232.081054688 701.603515625 378.359375 701.603515625 c 0xe8
243.022460938 495.313476562 m 2
 240.15625 482.900390625 226.198242188 420.34375 313.423828125 420.34375 c 0
 342.322265625 420.34375 365.14453125 427.391601562 382.74609375 440.5078125 c 0
 400.401367188 453.6640625 411.952148438 471.451171875 417.461914062 495.314453125 c 2
 419.951171875 506.094726562 l 2
 425.288085938 529.211914062 421.711914062 546.250976562 409.741210938 558.782226562 c 0
 397.700195312 571.387695312 378.112304688 578.123046875 349.850585938 578.123046875 c 0
 320.899414062 578.123046875 297.8671875 571.358398438 280.047851562 558.782226562 c 0
 262.291992188 546.25 250.84765625 529.2109375 245.510742188 506.09375 c 2
 243.022460938 495.313476562 l 2
242.381835938 112.624023438 m 0
 276.184570312 112.624023438 345.111328125 122.494140625 363.08203125 200.333984375 c 2
 366.475585938 215.034179688 l 2
 372.7265625 242.109375 368.69140625 262.28125 354.936523438 277.0859375 c 0
 341.147460938 291.927734375 318.430664062 299.8046875 285.59765625 299.8046875 c 0
 252.76953125 299.8046875 226.223632812 291.932617188 205.21875 277.044921875 c 0
 184.309570312 262.224609375 170.836914062 242.073242188 164.594726562 215.034179688 c 2
 161.201171875 200.333984375 l 2xf2
 147.677734375 141.759765625 179.780273438 112.624023438 242.381835938 112.624023438 c 0
EndSplineSet
EndChar

StartChar: nine
Encoding: 57 57 28
Width: 571
GlyphClass: 2
Flags: MW
HStem: -0.0771484 21G<70.3682 225.498 70.3682 70.3682> 263.543 121.521<202.974 315.464> 578.123 123.48<335.606 360.036>
VStem: 52.8906 143.08 392.95 144.061
LayerCount: 2
Fore
SplineSet
233.125 263.54296875 m 0
 172.823242188 263.54296875 127.559570312 281.780273438 98.5810546875 318.569335938 c 0
 69.5751953125 355.393554688 62.341796875 404.6015625 76.2705078125 464.93359375 c 2
 81.021484375 485.513671875 l 2
 96.4765625 552.45703125 130.448242188 605.921875 182.911132812 644.39453125 c 0
 235.259765625 682.784179688 298.732421875 701.603515625 372.48046875 701.603515625 c 0
 447.478515625 701.603515625 502.823242188 683.158203125 537.306640625 645.3984375 c 0
 571.834960938 607.591796875 581.206054688 555.095703125 566.046875 489.43359375 c 2
 561.294921875 468.853515625 l 2
 549.295898438 416.87890625 519.467773438 362.091796875 472.374023438 304.454101562 c 0
 472.349609375 304.423828125 228.474609375 3.5947265625 228.474609375 3.5947265625 c 1
 225.498046875 -0.0771484375 l 1
 70.3681640625 -0.0771484375 l 1
 288.861328125 270.724609375 l 1
 271.294921875 265.912109375 252.702148438 263.54296875 233.125 263.54296875 c 0
417.913085938 471.79296875 m 2
 422.211914062 490.413085938 l 2
 428.794921875 518.924804688 425 539.947265625 411.646484375 555.004882812 c 0
 398.236328125 570.127929688 376.098632812 578.123046875 343.97265625 578.123046875 c 0
 311.873046875 578.123046875 286.04296875 569.987304688 265.573242188 554.5625 c 0
 245.137695312 539.1640625 231.587890625 517.940429688 225.006835938 489.43359375 c 2
 221.16015625 472.7734375 l 2
 214.578125 444.262695312 218.373046875 423.239257812 231.725585938 408.181640625 c 0
 245.13671875 393.05859375 267.274414062 385.063476562 299.401367188 385.063476562 c 0
 331.52734375 385.063476562 357.356445312 393.05859375 377.75 408.181640625 c 0
 398.102539062 423.274414062 411.493164062 443.983398438 417.913085938 471.79296875 c 2
EndSplineSet
EndChar

StartChar: colon
Encoding: 58 58 29
Width: 222
GlyphClass: 2
Flags: MW
HStem: -0.0771484 153.86<-7.32422 108.074 -42.8457 143.596> 331.163 153.86<69.1484 184.547 33.627 220.068>
VStem: 41.1309 150.92
LayerCount: 2
Fore
SplineSet
69.1484375 485.0234375 m 1
 220.068359375 485.0234375 l 1
 184.546875 331.163085938 l 1
 33.626953125 331.163085938 l 1
 69.1484375 485.0234375 l 1
-7.32421875 153.783203125 m 1
 143.595703125 153.783203125 l 1
 108.07421875 -0.0771484375 l 1
 -42.845703125 -0.0771484375 l 1
 -7.32421875 153.783203125 l 1
EndSplineSet
EndChar

StartChar: semicolon
Encoding: 59 59 30
Width: 222
GlyphClass: 2
Flags: MW
HStem: 331.163 153.86<69.1484 184.547 33.627 220.068>
VStem: 41.1309 150.92 60.7305 129.36
LayerCount: 2
Fore
SplineSet
69.1484375 485.0234375 m 1xc0
 220.068359375 485.0234375 l 1
 184.546875 331.163085938 l 1
 33.626953125 331.163085938 l 1
 69.1484375 485.0234375 l 1xc0
11.14453125 148.883789062 m 1xa0
 140.504882812 148.883789062 l 1
 92.7705078125 -57.8740234375 l 1
 -61.8603515625 -167.33203125 l 1
 11.14453125 148.883789062 l 1xa0
EndSplineSet
EndChar

StartChar: less
Encoding: 60 60 31
Width: 532
GlyphClass: 2
Flags: W
LayerCount: 2
Fore
SplineSet
17.94921875 220.805664062 m 1
 43.5673828125 331.771484375 l 1
 521.19140625 503.142578125 l 1
 491.516601562 374.608398438 l 1
 209.640625 275.826171875 l 1
 446.120117188 177.975585938 l 1
 416.209960938 48.4208984375 l 1
 17.94921875 220.805664062 l 1
EndSplineSet
Substitution2: "'rtla' Right to Left Alternates lookup 0 subtable" greater
EndChar

StartChar: equal
Encoding: 61 61 32
Width: 532
GlyphClass: 2
Flags: MW
HStem: 112.623 125.44<22.9131 431.032 -6.04785 459.993> 317.443 125.44<70.1992 478.319 41.2393 507.279>
LayerCount: 2
Fore
SplineSet
70.19921875 442.883789062 m 1
 507.279296875 442.883789062 l 1
 478.319335938 317.443359375 l 1
 41.2392578125 317.443359375 l 1
 70.19921875 442.883789062 l 1
22.9130859375 238.063476562 m 1
 459.993164062 238.063476562 l 1
 431.032226562 112.623046875 l 1
 -6.0478515625 112.623046875 l 1
 22.9130859375 238.063476562 l 1
EndSplineSet
EndChar

StartChar: greater
Encoding: 62 62 33
Width: 532
GlyphClass: 2
Flags: W
LayerCount: 2
Fore
SplineSet
53.45703125 374.608398438 m 1
 83.1318359375 503.142578125 l 1
 481.626953125 331.771484375 l 1
 456.008789062 220.805664062 l 1
 -21.849609375 48.4208984375 l 1
 8.060546875 177.975585938 l 1
 289.721679688 275.826171875 l 1
 53.45703125 374.608398438 l 1
EndSplineSet
Substitution2: "'rtla' Right to Left Alternates lookup 0 subtable" less
EndChar

StartChar: question
Encoding: 63 63 34
Width: 504
GlyphClass: 2
Flags: MW
HStem: -0.0761719 138.181<124.296 235.475 92.3945 267.376> 575.184 125.439<256.683 326.978>
VStem: 176.371 143.08 335.131 140.14
LayerCount: 2
Fore
SplineSet
369.37109375 511.974609375 m 0
 378.810546875 552.861328125 356.72265625 575.18359375 297.233398438 575.18359375 c 0
 216.131835938 575.18359375 202.895507812 530.934570312 194.408203125 497.763671875 c 1
 61.076171875 497.763671875 l 1
 77.107421875 558.92578125 120.236328125 700.623046875 329.133789062 700.623046875 c 0
 398.159179688 700.623046875 449.428710938 684.866210938 481.885742188 652.431640625 c 0
 514.418945312 619.920898438 523.951171875 574.524414062 510.8671875 517.853515625 c 0
 497.890625 461.642578125 463.685546875 413.416015625 411.245117188 371.541015625 c 0
 387.311523438 352.430664062 365.205078125 330.9609375 341.428710938 311.642578125 c 0
 306.294921875 283.096679688 293.661132812 264.69140625 284.911132812 226.79296875 c 2
 276.200195312 189.063476562 l 1
 139.979492188 189.063476562 l 1
 152.083984375 241.493164062 l 2
 167.7734375 309.44921875 189.473632812 339.01953125 242.1484375 380.0390625 c 0
 263.436523438 396.6171875 283.07421875 415.407226562 304.28125 432.100585938 c 0
 349.209960938 467.466796875 363.52734375 486.663085938 369.37109375 511.974609375 c 0
124.295898438 138.104492188 m 1
 267.375976562 138.104492188 l 1
 235.474609375 -0.076171875 l 1
 92.39453125 -0.076171875 l 1
 124.295898438 138.104492188 l 1
EndSplineSet
EndChar

StartChar: at
Encoding: 64 64 35
Width: 871
GlyphClass: 2
Flags: MW
HStem: -133.356 112.702<287.648 385.99> 52.8438 104.86<594.423 611.021> 402.702 106.821<435.961 446.966 373.041 457.779> 585.966 112.696<479.736 519.741>
VStem: 48.9727 124.458 253.789 124.463 494.872 123.479 706.551 124.46
LayerCount: 2
Fore
SplineSet
147.03515625 249.3359375 m 2
 110.600585938 91.5205078125 178.174804688 -20.654296875 351.752929688 -20.654296875 c 0
 439.961914062 -20.654296875 500.32421875 0.10546875 569.90234375 31.8408203125 c 1
 597.427734375 -64.1396484375 l 1
 526.733398438 -100.641601562 446.245117188 -133.356445312 325.734375 -133.356445312 c 0
 249.561523438 -133.356445312 185.333984375 -117.436523438 133.39453125 -85.4404296875 c 0
 81.4921875 -53.466796875 45.537109375 -8.474609375 25.84765625 49.19921875 c 0
 6.1396484375 106.931640625 5.0546875 173.434570312 22.3505859375 248.352539062 c 2
 38.1884765625 316.952148438 l 2
 55.484375 391.870117188 87.2763671875 458.373046875 133.641601562 516.10546875 c 0
 179.9609375 573.779296875 236.693359375 618.772460938 303.358398438 650.74609375 c 0
 370.072265625 682.7421875 441.649414062 698.662109375 517.822265625 698.662109375 c 0
 747.657226562 698.662109375 872.604492188 543.828125 821.357421875 321.853515625 c 2
 805.51953125 253.252929688 l 2
 790.76953125 189.360351562 763.23828125 139.408203125 722.143554688 104.622070312 c 0
 681.450195312 70.17578125 635.76171875 52.84375 586.28125 52.84375 c 0
 548.032226562 52.84375 497.653320312 62.5947265625 476.165039062 109.409179688 c 1
 443.311523438 71.3994140625 396.1640625 52.84375 337.360351562 52.84375 c 0
 252.77734375 52.84375 191.84375 95.3525390625 224.678710938 237.573242188 c 2
 244.588867188 323.813476562 l 2
 262.5546875 401.633789062 310.146484375 509.5234375 435.934570312 509.5234375 c 0
 457.997070312 509.5234375 499.313476562 505.028320312 522.321289062 474.081054688 c 1
 528.015625 498.744140625 l 1
 649.536132812 498.744140625 l 1
 583.357421875 212.094726562 l 2
 577.889648438 188.41015625 577.375 157.704101562 611.470703125 157.704101562 c 0
 635.130859375 157.704101562 662.104492188 171.149414062 680.833984375 252.274414062 c 2
 696.671875 320.874023438 l 2
 712.798828125 390.728515625 718.345703125 496.905273438 627.3203125 553.53515625 c 0
 592.729492188 575.055664062 547.678710938 585.965820312 491.802734375 585.965820312 c 0
 407.622070312 585.965820312 337.127929688 561.989257812 279.158203125 514.637695312 c 0
 221.158203125 467.259765625 182.3828125 402.439453125 163.099609375 318.916015625 c 2
 147.03515625 249.3359375 l 2
390.444335938 159.662109375 m 0
 412.594726562 159.662109375 449.354492188 166.505859375 466.440429688 240.512695312 c 2
 485.4453125 322.83203125 l 2
 502.264648438 395.686523438 469.00390625 402.702148438 446.5546875 402.702148438 c 0
 425.3671875 402.702148438 409.719726562 395.891601562 397.510742188 382.805664062 c 0
 384.755859375 369.135742188 375.016601562 349.650390625 369.05078125 323.8125 c 2
 350.498046875 243.452148438 l 2
 343.899414062 214.868164062 344.217773438 193.806640625 350.27734375 179.90234375 c 0
 356.056640625 166.642578125 368.573242188 159.662109375 390.444335938 159.662109375 c 0
EndSplineSet
EndChar

StartChar: A
Encoding: 65 65 36
Width: 681
GlyphClass: 2
Flags: MW
HStem: -0.0771484 21G<-79.7764 -79.7764 -79.7764 73.4873 448.42 448.42 448.42 601.684> 131.243 121.521<226.531 412.087 226.531 429.737 152.805 412.087> 670.823 20G<363.1 477.821 477.821 477.821>
LayerCount: 2
Fore
SplineSet
-79.7763671875 -0.0771484375 m 1
 363.099609375 690.823242188 l 1
 477.821289062 690.823242188 l 1
 601.68359375 -0.0771484375 l 1
 448.419921875 -0.0771484375 l 1
 429.737304688 131.243164062 l 1
 152.8046875 131.243164062 l 1
 73.4873046875 -0.0771484375 l 1
 -79.7763671875 -0.0771484375 l 1
226.53125 252.763671875 m 1
 412.086914062 252.763671875 l 1
 375.919921875 499.87890625 l 1
 226.53125 252.763671875 l 1
EndSplineSet
EndChar

StartChar: B
Encoding: 66 66 37
Width: 655
GlyphClass: 2
Flags: MW
HStem: -0.0771484 126.42<150.001 290.845> 288.042 126.42<216.519 354.423 187.332 374.789> 564.402 126.421<251.135 414.305 251.135 251.135>
VStem: 61.7109 143.08 462.531 143.08 473.312 142.1
LayerCount: 2
Fore
SplineSet
517.791992188 355.571289062 m 1xf8
 544.234375 341.284179688 601.110351562 301.723632812 577.928710938 201.3125 c 0xf4
 563.224609375 137.620117188 530.772460938 87.3291015625 480.577148438 52.1064453125 c 0
 430.479492188 16.951171875 367.017578125 -0.0771484375 290.844726562 -0.0771484375 c 2
 -22.265625 -0.0771484375 l 1
 137.241210938 690.823242188 l 1
 437.611328125 690.823242188 l 2
 515.025390625 690.823242188 571.518554688 674.502929688 606.04296875 640.709960938 c 0
 640.672851562 606.813476562 650.420898438 557.758789062 636.004882812 495.313476562 c 0
 622.015625 434.720703125 578.448242188 384.751953125 517.791992188 355.571289062 c 1xf8
491.114257812 487.47265625 m 0xf8
 499.381835938 523.283203125 495.384765625 564.40234375 414.3046875 564.40234375 c 2
 251.134765625 564.40234375 l 1
 216.518554688 414.461914062 l 1
 374.7890625 414.461914062 l 2
 463.606445312 414.461914062 484.123046875 457.190429688 491.114257812 487.47265625 c 0xf8
321.991210938 126.342773438 m 2
 401.71875 126.342773438 428.078125 167.736328125 437.865234375 210.1328125 c 0xf4
 445.735351562 244.219726562 443.34375 288.041992188 354.422851562 288.041992188 c 2
 187.33203125 288.041992188 l 1
 150.000976562 126.342773438 l 1
 321.991210938 126.342773438 l 2
EndSplineSet
EndChar

StartChar: C
Encoding: 67 67 38
Width: 673
GlyphClass: 2
Flags: MW
HStem: -10.8564 130.34<245.719 309.203> 576.163 127.4<386.643 425.261>
VStem: 57.791 144.061 490.951 142.101
LayerCount: 2
Fore
SplineSet
186.08984375 295.393554688 m 2
 159.280273438 179.268554688 192.58984375 119.483398438 298.84765625 119.483398438 c 0
 342.8125 119.483398438 378.428710938 129.831054688 406.4140625 149.6015625 c 0
 434.341796875 169.331054688 452.283203125 196.177734375 460.483398438 231.693359375 c 2
 463.311523438 243.943359375 l 1
 605.412109375 243.943359375 l 1
 602.583984375 231.693359375 l 2
 585.004882812 155.549804688 545.814453125 95.3125 485.110351562 52.603515625 c 0
 424.627929688 10.05078125 351.609375 -10.8564453125 266.796875 -10.8564453125 c 0
 174.658203125 -10.8564453125 107.633789062 14.421875 67.1611328125 65.7265625 c 0
 26.548828125 117.20703125 18.5244140625 193.584960938 41.576171875 293.432617188 c 2
 66.01171875 399.272460938 l 2
 89.0654296875 499.129882812 132.532226562 575.51953125 197.249023438 626.997070312 c 0
 261.725585938 678.284179688 340.572265625 703.563476562 432.712890625 703.563476562 c 0
 516.876953125 703.563476562 580.091796875 682.81640625 621.315429688 640.626953125 c 0
 662.684570312 598.2890625 674.5546875 539.19140625 657.411132812 464.93359375 c 2
 653.904296875 449.743164062 l 1
 510.82421875 449.743164062 l 1
 513.42578125 461.013671875 l 2
 521.778320312 497.19140625 516.212890625 524.719726562 497.184570312 545.106445312 c 0
 478.12890625 565.5234375 447.22265625 576.163085938 403.299804688 576.163085938 c 0
 307.647460938 576.163085938 239.317382812 525.948242188 208.48828125 392.413085938 c 2
 186.08984375 295.393554688 l 2
EndSplineSet
EndChar

StartChar: D
Encoding: 68 68 39
Width: 663
GlyphClass: 2
Flags: MW
HStem: -0.0771484 126.422<149.999 243.804> 564.404 126.419<251.133 378.043 251.133 251.133>
VStem: 61.7109 143.078 480.17 143.079
LayerCount: 2
Fore
SplineSet
628.754882812 387.514648438 m 2
 609.5234375 304.213867188 l 2
 586.032226562 202.4609375 542.83203125 125.559570312 478.905273438 75.0009765625 c 0
 415.267578125 24.6708984375 336.548828125 -0.0771484375 243.803710938 -0.0771484375 c 2
 -22.265625 -0.0771484375 l 1
 137.241210938 690.823242188 l 1
 408.209960938 690.823242188 l 2
 499.658203125 690.823242188 565.865234375 666.229492188 605.35546875 616.203125 c 0
 645.022460938 565.952148438 652.239257812 489.237304688 628.754882812 387.514648438 c 2
484.091796875 380.654296875 m 2
 513.266601562 507.0234375 481.444335938 564.404296875 378.04296875 564.404296875 c 2
 251.1328125 564.404296875 l 1
 149.999023438 126.344726562 l 1
 276.909179688 126.344726562 l 2
 378.069335938 126.344726562 437.8125 180.194335938 466.444335938 304.213867188 c 2
 484.091796875 380.654296875 l 2
EndSplineSet
EndChar

StartChar: E
Encoding: 69 69 40
Width: 589
GlyphClass: 2
Flags: MW
HStem: -0.0771484 126.421<150 475.574> 285.104 126.42<215.839 491.433 186.652 520.619> 564.403 126.42<251.134 605.895 251.134 251.134>
VStem: 61.7109 143.079
LayerCount: 2
Fore
SplineSet
150 126.34375 m 1
 504.760742188 126.34375 l 1
 475.57421875 -0.0771484375 l 1
 -22.265625 -0.0771484375 l 1
 137.241210938 690.823242188 l 1
 635.081054688 690.823242188 l 1
 605.89453125 564.403320312 l 1
 251.133789062 564.403320312 l 1
 215.838867188 411.5234375 l 1
 520.619140625 411.5234375 l 1
 491.432617188 285.103515625 l 1
 186.65234375 285.103515625 l 1
 150 126.34375 l 1
EndSplineSet
EndChar

StartChar: F
Encoding: 70 70 41
Width: 584
GlyphClass: 2
Flags: MW
HStem: -0.0771484 21G<-22.2656 120.813 -22.2656 -22.2656> 279.224 126.42<185.295 521.222 214.481 492.035> 564.403 126.42<251.134 605.895 251.134 251.134>
VStem: 61.7109 143.079
LayerCount: 2
Fore
SplineSet
185.294921875 279.223632812 m 1
 120.813476562 -0.0771484375 l 1
 -22.265625 -0.0771484375 l 1
 137.241210938 690.823242188 l 1
 635.081054688 690.823242188 l 1
 605.89453125 564.403320312 l 1
 251.133789062 564.403320312 l 1
 214.481445312 405.643554688 l 1
 521.221679688 405.643554688 l 1
 492.03515625 279.223632812 l 1
 185.294921875 279.223632812 l 1
EndSplineSet
EndChar

StartChar: G
Encoding: 71 71 42
Width: 673
GlyphClass: 2
Flags: MW
HStem: -10.8564 130.339<245.29 309.878> 256.683 120.54<347.08 467.231 319.251 637.16> 576.162 127.4<386.642 425.26>
VStem: 57.79 144.061 491.931 142.1
LayerCount: 2
Fore
SplineSet
298.846679688 119.482421875 m 0
 388.986328125 119.482421875 443.895507812 155.600585938 463.272460938 239.532226562 c 2
 467.231445312 256.682617188 l 1
 319.250976562 256.682617188 l 1
 347.080078125 377.22265625 l 1
 637.16015625 377.22265625 l 1
 609.670898438 258.15234375 l 2
 589.155273438 169.291015625 548.68359375 101.40625 487.572265625 56.1787109375 c 0
 426.84375 11.234375 352.9609375 -10.8564453125 266.795898438 -10.8564453125 c 0
 175.295898438 -10.8564453125 108.451171875 14.43359375 67.6650390625 65.7099609375 c 0
 26.716796875 117.186523438 18.521484375 193.57421875 41.5751953125 293.431640625 c 2
 66.0107421875 399.271484375 l 2
 89.064453125 499.12890625 132.53125 575.518554688 197.248046875 626.99609375 c 0
 261.723632812 678.283203125 340.572265625 703.5625 432.711914062 703.5625 c 0
 474.549804688 703.5625 608.251953125 699.22265625 652.298828125 594.375 c 0
 667.39453125 558.4375 669.224609375 516.107421875 658.087890625 467.872070312 c 2
 654.581054688 452.682617188 l 1
 511.500976562 452.682617188 l 1
 514.103515625 463.952148438 l 2
 521.974609375 498.048828125 516.290039062 524.634765625 497.18359375 545.10546875 c 0
 478.127929688 565.522460938 447.221679688 576.162109375 403.298828125 576.162109375 c 0
 302.462890625 576.162109375 238.155273438 520.918945312 208.713867188 393.392578125 c 2
 186.314453125 296.372070312 l 2
 158.845703125 177.392578125 191.733398438 119.482421875 298.846679688 119.482421875 c 0
EndSplineSet
EndChar

StartChar: H
Encoding: 72 72 43
Width: 671
GlyphClass: 2
Flags: MW
HStem: -0.0771484 21G<-22.2656 120.813 -22.2656 -22.2656 391.294 534.374 391.294 391.294> 286.083 126.42<216.065 457.359 186.879 486.546> 670.823 20G<137.241 280.32 280.32 280.32 550.801 693.881 693.881 693.881>
VStem: 61.7109 143.079 475.271 143.08
LayerCount: 2
Fore
SplineSet
693.880859375 690.823242188 m 1
 534.374023438 -0.0771484375 l 1
 391.293945312 -0.0771484375 l 1
 457.359375 286.083007812 l 1
 186.87890625 286.083007812 l 1
 120.813476562 -0.0771484375 l 1
 -22.265625 -0.0771484375 l 1
 137.241210938 690.823242188 l 1
 280.3203125 690.823242188 l 1
 216.065429688 412.502929688 l 1
 486.545898438 412.502929688 l 1
 550.80078125 690.823242188 l 1
 693.880859375 690.823242188 l 1
EndSplineSet
EndChar

StartChar: I
Encoding: 73 73 44
Width: 268
GlyphClass: 2
Flags: MW
HStem: -0.0771484 21G<-16.3857 126.694 -16.3857 -16.3857> 670.823 20G<143.121 286.201 286.201 286.201>
VStem: 67.5908 143.08
LayerCount: 2
Fore
SplineSet
143.12109375 690.823242188 m 1
 286.201171875 690.823242188 l 1
 126.694335938 -0.0771484375 l 1
 -16.3857421875 -0.0771484375 l 1
 143.12109375 690.823242188 l 1
EndSplineSet
EndChar

StartChar: J
Encoding: 74 74 45
Width: 368
GlyphClass: 2
Flags: MW
HStem: -0.0771484 127.4<-27.1533 39.9766 39.9766 43.8838 -56.5664 39.9766> 670.823 20G<241.121 385.181 385.181 385.181>
VStem: 165.591 144.06
LayerCount: 2
Fore
SplineSet
266.51171875 176.813476562 m 2
 252.825195312 117.528320312 210.524414062 -0.0771484375 43.8837890625 -0.0771484375 c 2
 -56.56640625 -0.0771484375 l 1
 -27.1533203125 127.323242188 l 1
 39.9765625 127.323242188 l 2
 69.357421875 127.323242188 89.0419921875 133.219726562 99.8896484375 142.243164062 c 0
 110.88671875 151.389648438 120.805664062 169.677734375 127.4296875 198.373046875 c 2
 241.12109375 690.823242188 l 1
 385.180664062 690.823242188 l 1
 266.51171875 176.813476562 l 2
EndSplineSet
EndChar

StartChar: K
Encoding: 75 75 46
Width: 678
GlyphClass: 2
Flags: MW
HStem: -0.0771484 21G<-22.2656 120.813 -22.2656 -22.2656 426.008 599.622 426.008 426.008> 670.823 20G<137.241 280.32 280.32 280.32 557.764 742.533 742.533 742.533>
VStem: 61.7109 143.079
LayerCount: 2
Fore
SplineSet
426.0078125 -0.0771484375 m 1
 297.98046875 306.99609375 l 1
 165.284179688 192.548828125 l 1
 120.813476562 -0.0771484375 l 1
 -22.265625 -0.0771484375 l 1
 137.241210938 690.823242188 l 1
 280.3203125 690.823242188 l 1
 207.334960938 374.689453125 l 1
 557.763671875 690.823242188 l 1
 742.533203125 690.823242188 l 1
 418.451171875 410.3125 l 1
 599.622070312 -0.0771484375 l 1
 426.0078125 -0.0771484375 l 1
EndSplineSet
EndChar

StartChar: L
Encoding: 76 76 47
Width: 572
GlyphClass: 2
Flags: MW
HStem: -0.0771484 126.421<150 469.694> 670.823 20G<137.241 280.32 280.32 280.32>
VStem: 61.7109 143.079
LayerCount: 2
Fore
SplineSet
137.241210938 690.823242188 m 1
 280.3203125 690.823242188 l 1
 150 126.34375 l 1
 498.880859375 126.34375 l 1
 469.694335938 -0.0771484375 l 1
 -22.265625 -0.0771484375 l 1
 137.241210938 690.823242188 l 1
EndSplineSet
EndChar

StartChar: M
Encoding: 77 77 48
Width: 808
GlyphClass: 2
Flags: MW
HStem: -0.0771484 21G<-22.2656 120.813 -22.2656 -22.2656 526.534 669.614 526.534 526.534> 670.823 20G<137.241 277.329 277.329 277.329 689.003 829.121 829.121 829.121>
VStem: 61.7109 143.079 610.511 143.08
LayerCount: 2
Fore
SplineSet
829.12109375 690.823242188 m 1
 669.614257812 -0.0771484375 l 1
 526.534179688 -0.0771484375 l 1
 620.557617188 407.184570312 l 1
 402.6796875 130.263671875 l 1
 307.80859375 130.263671875 l 1
 215.560546875 410.31640625 l 1
 120.813476562 -0.0771484375 l 1
 -22.265625 -0.0771484375 l 1
 137.241210938 690.823242188 l 1
 277.329101562 690.823242188 l 1
 397.095703125 311.776367188 l 1
 689.002929688 690.823242188 l 1
 829.12109375 690.823242188 l 1
EndSplineSet
EndChar

StartChar: N
Encoding: 78 78 49
Width: 699
GlyphClass: 2
Flags: MW
HStem: -0.0771484 21G<-22.2656 120.813 -22.2656 -22.2656 422.252 561.813 422.252 422.252> 670.823 20G<137.241 276.808 276.808 276.808 578.241 721.32 721.32 721.32>
VStem: 61.7109 143.079 502.711 143.079
LayerCount: 2
Fore
SplineSet
721.3203125 690.823242188 m 1
 561.813476562 -0.0771484375 l 1
 422.251953125 -0.0771484375 l 1
 220.51171875 431.763671875 l 1
 120.813476562 -0.0771484375 l 1
 -22.265625 -0.0771484375 l 1
 137.241210938 690.823242188 l 1
 276.807617188 690.823242188 l 1
 478.326171875 258.044921875 l 1
 578.241210938 690.823242188 l 1
 721.3203125 690.823242188 l 1
EndSplineSet
EndChar

StartChar: O
Encoding: 79 79 50
Width: 673
GlyphClass: 2
Flags: MW
HStem: -10.8564 130.339<246.88 301.472> 576.162 127.402<381.063 430.345>
VStem: 57.7891 144.06 490.949 143.081
LayerCount: 2
Fore
SplineSet
41.5751953125 293.43359375 m 2
 66.009765625 399.2734375 l 2
 89.056640625 499.1015625 131.999023438 575.458984375 195.713867188 626.947265625 c 0
 259.186523438 678.241210938 336.274414062 703.564453125 425.8515625 703.564453125 c 0
 514.1484375 703.564453125 578.729492188 678.217773438 618.17578125 626.930664062 c 0
 657.78125 575.4375 665.295898438 499.092773438 642.250976562 399.2734375 c 2
 617.81640625 293.43359375 l 2
 594.912109375 194.224609375 551.6484375 118.0234375 487.224609375 66.2333984375 c 0
 423.061523438 14.65234375 345.947265625 -10.8564453125 256.99609375 -10.8564453125 c 0
 168.063476562 -10.8564453125 103.452148438 14.4775390625 64.64453125 65.8115234375 c 0
 25.712890625 117.311523438 18.5341796875 193.6328125 41.5751953125 293.43359375 c 2
291.005859375 119.482421875 m 0
 361.279296875 119.482421875 441.40625 149.073242188 475.1875 295.392578125 c 2
 497.5859375 392.412109375 l 2
 533.411132812 547.588867188 464.250976562 576.162109375 396.438476562 576.162109375 c 0
 311.194335938 576.162109375 241.083984375 533.614257812 208.485351562 392.412109375 c 2
 186.086914062 295.392578125 l 2
 155.584960938 163.276367188 202.754882812 119.482421875 291.005859375 119.482421875 c 0
EndSplineSet
EndChar

StartChar: P
Encoding: 80 80 51
Width: 629
GlyphClass: 2
Flags: MW
HStem: -0.0771484 21G<-22.2656 120.813 -22.2656 -22.2656> 256.684 127.399<209.504 331.502 180.092 370.714> 564.403 126.42<251.134 412.344 251.134 251.134>
VStem: 61.7109 143.079 467.431 143.08
LayerCount: 2
Fore
SplineSet
635.473632812 471.79296875 m 0
 620.0078125 404.803710938 585.525390625 351.456054688 532.120117188 313.325195312 c 0
 478.75 275.217773438 411.637695312 256.68359375 331.501953125 256.68359375 c 2
 180.091796875 256.68359375 l 1
 120.813476562 -0.0771484375 l 1
 -22.265625 -0.0771484375 l 1
 137.241210938 690.823242188 l 1
 436.630859375 690.823242188 l 2
 513.567382812 690.823242188 570.474609375 672.232421875 606.196289062 634.181640625 c 0
 642.053710938 595.986328125 651.522460938 541.30859375 635.473632812 471.79296875 c 0
370.713867188 384.083007812 m 2
 453.92578125 384.083007812 482.135742188 427.362304688 492.620117188 472.7734375 c 0
 497.7734375 495.094726562 512.032226562 564.403320312 412.34375 564.403320312 c 2
 251.133789062 564.403320312 l 1
 209.50390625 384.083007812 l 1
 370.713867188 384.083007812 l 2
EndSplineSet
EndChar

StartChar: Q
Encoding: 81 81 52
Width: 673
GlyphClass: 2
Flags: MW
HStem: -153.642 21G<385.752 385.752> -10.8574 130.34<246.881 271.206> 576.162 127.402<381.063 430.346>
VStem: 57.7891 144.061 490.95 143.08
LayerCount: 2
Fore
SplineSet
41.5751953125 293.43359375 m 2
 66.009765625 399.2734375 l 2
 89.056640625 499.1015625 131.999023438 575.458984375 195.713867188 626.947265625 c 0
 259.186523438 678.241210938 336.274414062 703.564453125 425.8515625 703.564453125 c 0
 514.1484375 703.564453125 578.729492188 678.217773438 618.17578125 626.930664062 c 0
 657.78125 575.4375 665.295898438 499.092773438 642.250976562 399.2734375 c 2
 617.81640625 293.43359375 l 2
 592.775390625 184.969726562 542.276367188 103.333007812 465.771484375 50.4658203125 c 1
 510.705078125 -92.66015625 l 1
 385.751953125 -153.641601562 l 1
 338.291015625 -3.05859375 l 1
 312.516601562 -8.271484375 285.416992188 -10.857421875 256.994140625 -10.857421875 c 0
 168.061523438 -10.857421875 103.451171875 14.4765625 64.6435546875 65.810546875 c 0
 25.7119140625 117.311523438 18.5341796875 193.6328125 41.5751953125 293.43359375 c 2
186.087890625 295.392578125 m 2
 155.5859375 163.276367188 202.755859375 119.482421875 291.006835938 119.482421875 c 0
 361.280273438 119.482421875 441.407226562 149.073242188 475.188476562 295.392578125 c 2
 497.586914062 392.412109375 l 2
 533.412109375 547.588867188 464.251953125 576.162109375 396.439453125 576.162109375 c 0
 311.1953125 576.162109375 241.084960938 533.614257812 208.486328125 392.412109375 c 2
 186.087890625 295.392578125 l 2
EndSplineSet
EndChar

StartChar: R
Encoding: 82 82 53
Width: 664
GlyphClass: 2
Flags: MW
HStem: -0.0771484 21G<391.385 561.519 391.385 391.385> 265.502 124.46<182.127 373.052> 564.402 126.42<251.134 413.324 251.134 251.134>
VStem: 61.7109 143.079 467.431 142.1
LayerCount: 2
Fore
SplineSet
635.850585938 477.671875 m 0
 624.453125 428.301757812 590.413085938 327.98046875 457.673828125 284.470703125 c 1
 561.518554688 -0.0771484375 l 1
 391.384765625 -0.0771484375 l 1
 304.71875 265.502929688 l 1
 263.854492188 265.502929688 222.991210938 265.501953125 182.126953125 265.501953125 c 1
 120.813476562 -0.078125 l 1
 -22.265625 -0.078125 l 1
 137.241210938 690.822265625 l 1
 438.590820312 690.822265625 l 2
 513.561523438 690.822265625 569.580078125 672.888671875 605.586914062 636.225585938 c 0
 641.806640625 599.346679688 651.606445312 545.916992188 635.850585938 477.671875 c 0
373.051757812 389.961914062 m 2
 455.587890625 389.961914062 483.412109375 432.888671875 493.750976562 477.671875 c 0
 500.65234375 507.564453125 496.649414062 528.584960938 482.981445312 542.567382812 c 0
 469.060546875 556.810546875 446.208007812 564.40234375 413.32421875 564.40234375 c 2
 251.133789062 564.40234375 l 1
 210.861328125 389.961914062 l 1
 373.051757812 389.961914062 l 2
EndSplineSet
EndChar

StartChar: S
Encoding: 83 83 54
Width: 610
GlyphClass: 2
Flags: MW
HStem: -5.95703 124.463<192.027 262.555> 578.123 122.501<348.84 414.471>
VStem: 47.9893 139.161 442.93 141.121
LayerCount: 2
Fore
SplineSet
357.692382812 578.123046875 m 0
 316.963867188 578.123046875 235.068359375 571.220703125 218.448242188 499.233398438 c 0
 210.091796875 463.03515625 222.25390625 432.010742188 313.404296875 420.279296875 c 2
 392.255859375 409.499023438 l 2
 490.767578125 396.017578125 580.504882812 348.3046875 549.057617188 212.09375 c 0
 532.947265625 142.311523438 495.176757812 87.638671875 436.145507812 49.8994140625 c 0
 377.442382812 12.3701171875 305.204101562 -5.95703125 219.90625 -5.95703125 c 0
 136.557617188 -5.95703125 75.2841796875 12.3720703125 37.1357421875 50.0537109375 c 0
 -1.0390625 87.76171875 -14.3896484375 142.405273438 -3.5458984375 212.510742188 c 2
 -2.3212890625 220.42578125 l 1
 134.584960938 220.42578125 l 1
 130.123046875 177.361328125 128.5546875 118.505859375 255.5 118.505859375 c 0
 346.509765625 118.505859375 392.984375 147.330078125 405.674804688 202.295898438 c 0
 415.61328125 245.34375 399.859375 274.479492188 313.421875 284.180664062 c 2
 243.9140625 293.000976562 l 2
 108.678710938 310.237304688 50.82421875 375.9453125 77.025390625 489.434570312 c 0
 92.0888671875 554.682617188 128.005859375 606.954101562 184.248046875 644.646484375 c 0
 240.34375 682.240234375 308.766601562 700.624023438 388.913085938 700.624023438 c 0
 466.424804688 700.624023438 523.958007812 683.076171875 560.486328125 647.068359375 c 0
 597.069335938 611.004882812 610.016601562 558.827148438 599.931640625 491.987304688 c 2
 598.734375 484.043945312 l 1
 460.506835938 484.043945312 l 1
 466.45703125 523.498046875 471.25 578.123046875 357.692382812 578.123046875 c 0
EndSplineSet
EndChar

StartChar: T
Encoding: 84 84 55
Width: 560
GlyphClass: 2
Flags: MW
HStem: -0.0771484 21G<128.654 271.734 128.654 128.654> 564.403 126.42<85.3008 258.975 56.1143 634.101 402.055 402.055 402.055 604.914>
VStem: 212.631 143.08
LayerCount: 2
Fore
SplineSet
258.974609375 564.403320312 m 1
 56.1142578125 564.403320312 l 1
 85.30078125 690.823242188 l 1
 634.100585938 690.823242188 l 1
 604.9140625 564.403320312 l 1
 402.0546875 564.403320312 l 1
 271.734375 -0.0771484375 l 1
 128.654296875 -0.0771484375 l 1
 258.974609375 564.403320312 l 1
EndSplineSet
EndChar

StartChar: U
Encoding: 85 85 56
Width: 676
GlyphClass: 2
Flags: MW
HStem: -5.95703 126.418<228.244 304.17 228.244 341.084> 670.822 20G<137.241 280.321 280.321 280.321 555.701 698.78 698.78 698.78>
VStem: 61.7109 143.08 480.171 143.079
LayerCount: 2
Fore
SplineSet
256.166015625 -5.95703125 m 0
 88.275390625 -5.95703125 -0.7724609375 93.01953125 35.541015625 250.3125 c 2
 137.241210938 690.822265625 l 1
 280.321289062 690.822265625 l 1
 179.526367188 254.232421875 l 2
 165.91796875 195.2890625 171.135742188 120.4609375 285.3515625 120.4609375 c 0
 322.98828125 120.4609375 425.7890625 128.11328125 454.90625 254.232421875 c 2
 555.701171875 690.822265625 l 1
 698.780273438 690.822265625 l 1
 597.080078125 250.3125 l 2
 560.708984375 92.771484375 426.002929688 -5.95703125 256.166015625 -5.95703125 c 0
EndSplineSet
EndChar

StartChar: V
Encoding: 86 86 57
Width: 624
GlyphClass: 2
Flags: MW
HStem: -0.0771484 21G<174.976 288.118 174.976 174.976> 670.823 20G<80.1514 233.177 233.177 233.177 550.915 703.959 703.959 703.959>
LayerCount: 2
Fore
SplineSet
80.1513671875 690.823242188 m 1
 233.176757812 690.823242188 l 1
 282.7421875 219.431640625 l 1
 550.915039062 690.823242188 l 1
 703.958984375 690.823242188 l 1
 288.118164062 -0.0771484375 l 1
 174.975585938 -0.0771484375 l 1
 80.1513671875 690.823242188 l 1
EndSplineSet
EndChar

StartChar: W
Encoding: 87 87 58
Width: 933
GlyphClass: 2
Flags: MW
HStem: -0.0771484 21G<120.673 248.396 120.673 120.673 528.301 657.062 528.301 528.301> 670.823 20G<80.9199 227.699 227.699 227.699 463.173 633.397 633.397 633.397 867.879 1009.82 1009.82 1009.82>
LayerCount: 2
Fore
SplineSet
528.30078125 -0.0771484375 m 1
 504.354492188 500.357421875 l 1
 248.396484375 -0.0771484375 l 1
 120.672851562 -0.0771484375 l 1
 80.919921875 690.823242188 l 1
 227.69921875 690.823242188 l 1
 241.165039062 218.94140625 l 1
 463.172851562 690.823242188 l 1
 633.397460938 690.823242188 l 1
 648.728515625 219.057617188 l 1
 867.87890625 690.823242188 l 1
 1009.8203125 690.823242188 l 1
 657.061523438 -0.0771484375 l 1
 528.30078125 -0.0771484375 l 1
EndSplineSet
EndChar

StartChar: X
Encoding: 88 88 59
Width: 666
GlyphClass: 2
Flags: MW
HStem: -0.0771484 21G<-82.8809 -82.8809 -82.8809 90.043 414.315 414.315 414.315 590.051> 670.823 20G<94.2637 270.029 270.029 270.029 552.125 725.104 725.104 725.104>
LayerCount: 2
Fore
SplineSet
-82.880859375 -0.0771484375 m 1
 248.9453125 358.112304688 l 1
 94.263671875 690.823242188 l 1
 270.029296875 690.823242188 l 1
 365.676757812 473.533203125 l 1
 552.125 690.823242188 l 1
 725.104492188 690.823242188 l 1
 422.060546875 363.981445312 l 1
 590.05078125 -0.0771484375 l 1
 414.315429688 -0.0771484375 l 1
 306.028320312 247.670898438 l 1
 90.04296875 -0.0771484375 l 1
 -82.880859375 -0.0771484375 l 1
EndSplineSet
EndChar

StartChar: Y
Encoding: 89 89 60
Width: 610
GlyphClass: 2
Flags: MW
HStem: -0.0771484 21G<154.134 297.214 154.134 154.134> 670.823 20G<77.9443 240.17 240.17 240.17 529.211 691.426 691.426 691.426>
VStem: 238.11 143.08
LayerCount: 2
Fore
SplineSet
529.2109375 690.823242188 m 1
 691.42578125 690.823242188 l 1
 362.9375 284.602539062 l 1
 297.213867188 -0.0771484375 l 1
 154.133789062 -0.0771484375 l 1
 219.629882812 283.619140625 l 1
 77.9443359375 690.823242188 l 1
 240.169921875 690.823242188 l 1
 321.252929688 416.043945312 l 1
 529.2109375 690.823242188 l 1
EndSplineSet
EndChar

StartChar: Z
Encoding: 90 90 61
Width: 564
GlyphClass: 2
Flags: MW
HStem: -0.0771484 127.4<148.686 457.934> 564.403 126.42<115.681 409.45 86.4941 607.641>
LayerCount: 2
Fore
SplineSet
487.346679688 127.323242188 m 1
 457.93359375 -0.0771484375 l 1
 -50.6865234375 -0.0771484375 l 1
 -22.4072265625 122.412109375 l 1
 409.450195312 564.403320312 l 1
 86.494140625 564.403320312 l 1
 115.680664062 690.823242188 l 1
 607.640625 690.823242188 l 1
 579.58984375 569.3203125 l 1
 148.685546875 127.323242188 l 1
 487.346679688 127.323242188 l 1
EndSplineSet
EndChar

StartChar: bracketleft
Encoding: 91 91 62
Width: 347
GlyphClass: 2
Flags: MW
HStem: -82.3965 127.399<124.361 205.689> 613.403 127.4<255.587 366.327 255.587 255.587>
VStem: 61.7109 136.22 61.7109 246.96
LayerCount: 2
Fore
SplineSet
148.780273438 740.803710938 m 1xd0
 395.740234375 740.803710938 l 1
 366.327148438 613.403320312 l 1xd0
 255.586914062 613.403320312 l 1
 124.361328125 45.0029296875 l 1xe0
 235.1015625 45.0029296875 l 1
 205.689453125 -82.396484375 l 1
 -41.2705078125 -82.396484375 l 1
 148.780273438 740.803710938 l 1xd0
EndSplineSet
Substitution2: "'rtla' Right to Left Alternates lookup 0 subtable" bracketright
EndChar

StartChar: backslash
Encoding: 92 92 63
Width: 449
GlyphClass: 2
Flags: MW
HStem: -9.87695 21G<209.888 327.407 209.888 209.888> 675.724 20G<122.576 240.096 240.096 240.096>
LayerCount: 2
Fore
SplineSet
122.576171875 695.723632812 m 1
 240.095703125 695.723632812 l 1
 327.407226562 -9.876953125 l 1
 209.887695312 -9.876953125 l 1
 122.576171875 695.723632812 l 1
EndSplineSet
EndChar

StartChar: bracketright
Encoding: 93 93 64
Width: 348
GlyphClass: 2
Flags: MW
HStem: -82.3965 127.399<-24.5986 86.1416 -24.5986 192.949 -54.0107 86.1416> 612.423 126.421<135.588 217.141 106.4 382.548>
VStem: 48.9707 246.96 159.711 136.22
LayerCount: 2
Fore
SplineSet
217.140625 612.422851562 m 1xd0
 106.400390625 612.422851562 l 1
 135.587890625 738.84375 l 1
 382.547851562 738.84375 l 1
 192.94921875 -82.396484375 l 1
 -54.0107421875 -82.396484375 l 1
 -24.5986328125 45.0029296875 l 1xe0
 86.1416015625 45.0029296875 l 1
 217.140625 612.422851562 l 1xd0
EndSplineSet
Substitution2: "'rtla' Right to Left Alternates lookup 0 subtable" bracketleft
EndChar

StartChar: asciicircum
Encoding: 94 94 65
Width: 532
GlyphClass: 2
Flags: MW
HStem: 675.724 20G<290.689 402.556 402.556 402.556>
LayerCount: 2
Fore
SplineSet
290.689453125 695.723632812 m 1
 402.555664062 695.723632812 l 1
 475.724609375 265.502929688 l 1
 358.900390625 265.502929688 l 1
 313.120117188 550.606445312 l 1
 135.694335938 265.502929688 l 1
 18.8701171875 265.502929688 l 1
 290.689453125 695.723632812 l 1
EndSplineSet
EndChar

StartChar: underscore
Encoding: 95 95 66
Width: 565
GlyphClass: 2
Flags: MW
HStem: -118.656 94.0791<-85.7422 458.978 -107.462 480.697>
LayerCount: 2
Fore
SplineSet
-85.7421875 -24.5771484375 m 1
 480.697265625 -24.5771484375 l 1
 458.977539062 -118.65625 l 1
 -107.461914062 -118.65625 l 1
 -85.7421875 -24.5771484375 l 1
EndSplineSet
EndChar

StartChar: grave
Encoding: 96 96 67
Width: 504
GlyphClass: 2
Flags: MW
HStem: 576.163 145.04<276.376 300.683 117.929 411.147 276.376 276.376>
VStem: 35.3848 326.704
LayerCount: 2
Fore
SplineSet
117.928710938 721.203125 m 1
 300.682617188 721.203125 l 1
 411.147460938 576.163085938 l 1
 276.375976562 576.163085938 l 1
 117.928710938 721.203125 l 1
EndSplineSet
EndChar

StartChar: a
Encoding: 97 97 68
Width: 556
GlyphClass: 2
Flags: MW
HStem: -5.95703 111.72<160.012 182.257> 217.482 98.001<190.513 361.246 232.376 338.62> 422.304 107.8<280.433 327.844>
VStem: 40.1504 132.299 372.369 135.24
LayerCount: 2
Fore
SplineSet
366.563476562 338.513671875 m 2
 375.888671875 378.907226562 370.229492188 422.303710938 285.458984375 422.303710938 c 0
 253.547851562 422.303710938 230.241210938 416.365234375 215.29296875 406.271484375 c 0
 199.743164062 395.770507812 190.655273438 383.087890625 186.92578125 366.93359375 c 2
 184.549804688 356.643554688 l 1
 54.208984375 356.643554688 l 1
 56.5849609375 366.93359375 l 2
 68.232421875 417.384765625 97.927734375 457.965820312 144.68359375 487.053710938 c 0
 191.234375 516.014648438 247.581054688 530.103515625 313.28515625 530.103515625 c 0
 386.852539062 530.103515625 440.609375 513.559570312 473.390625 479.3828125 c 0
 506.267578125 445.104492188 514.987304688 395.622070312 500.4453125 332.6328125 c 2
 423.6328125 -0.078125 l 1
 291.333007812 -0.078125 l 1
 300.159179688 38.15234375 l 1
 258.505859375 9.689453125 215.16796875 -5.95703125 149.346679688 -5.95703125 c 0
 86.9091796875 -5.95703125 41.6396484375 7.9501953125 14.8046875 36.9951171875 c 0
 -12.0244140625 66.03515625 -19.037109375 107.294921875 -7.060546875 159.172851562 c 0
 6.734375 218.926757812 56.2705078125 315.483398438 232.375976562 315.483398438 c 2
 361.24609375 315.483398438 l 1
 366.563476562 338.513671875 l 2
201.59765625 105.762695312 m 0
 297.563476562 105.762695312 323.864257812 153.56640625 333.077148438 193.47265625 c 2
 338.620117188 217.482421875 l 1
 232.290039062 217.482421875 l 2
 148.736328125 217.482421875 131.78125 187.513671875 125.916992188 162.112304688 c 0
 121.924804688 144.8203125 118.42578125 105.762695312 201.59765625 105.762695312 c 0
EndSplineSet
EndChar

StartChar: b
Encoding: 98 98 69
Width: 573
GlyphClass: 2
Flags: MW
HStem: -8.89648 123.479<224.358 269.935 224.358 300.707> -0.0771484 21G<-27.166 106.114 -27.166 -27.166> 410.543 122.5<290.723 398.082> 670.823 20G<132.341 268.561 268.561 268.561>
VStem: 56.8105 136.22 397.851 136.221
LayerCount: 2
Fore
SplineSet
219.569335938 478.619140625 m 1x7c
 250.158203125 503.950195312 299.874023438 533.04296875 366.884765625 533.04296875 c 0
 429.278320312 533.04296875 475.198242188 512.713867188 503.21875 471.857421875 c 0
 531.331054688 430.865234375 536.069335938 372.319335938 518.76171875 297.353515625 c 2
 504.055664062 233.653320312 l 2
 468.553710938 79.8779296875 360.625976562 -8.896484375 240.788085938 -8.896484375 c 0xbc
 185.337890625 -8.896484375 143.25390625 7.6962890625 115.590820312 40.9716796875 c 1
 106.114257812 -0.0771484375 l 1
 -27.166015625 -0.0771484375 l 1
 132.340820312 690.823242188 l 1
 268.560546875 690.823242188 l 1
 219.569335938 478.619140625 l 1x7c
240.875976562 114.583007812 m 0
 298.994140625 114.583007812 347.791015625 146.83203125 368.965820312 238.553710938 c 2
 381.18359375 291.473632812 l 2
 403.956054688 390.109375 357.8671875 410.54296875 307.243164062 410.54296875 c 0
 274.202148438 410.54296875 247.043945312 400.296875 224.365234375 380.163085938 c 0
 201.649414062 359.99609375 185.590820312 331.440429688 176.81640625 293.43359375 c 2
 161.8828125 228.752929688 l 2
 153.592773438 192.84375 156.9140625 165.3125 170.984375 145.052734375 c 0
 185.026367188 124.834960938 207.840820312 114.583007812 240.875976562 114.583007812 c 0
EndSplineSet
EndChar

StartChar: c
Encoding: 99 99 70
Width: 562
GlyphClass: 2
Flags: MW
HStem: -8.89648 123.479<193.699 238.409> 410.542 122.5<290.761 331.292>
VStem: 48.9707 135.24 388.051 133.279
LayerCount: 2
Fore
SplineSet
154.1953125 233.65234375 m 2
 137.953125 163.299804688 150.44140625 114.583007812 236.956054688 114.583007812 c 0
 267.252929688 114.583007812 291.723632812 121.377929688 310.928710938 134.096679688 c 0
 330.036132812 146.750976562 341.817382812 163.40625 346.94921875 185.633789062 c 2
 349.55078125 196.903320312 l 1
 482.830078125 196.903320312 l 1
 480.228515625 185.633789062 l 2
 466.3984375 125.73046875 434.498046875 77.5986328125 384.831054688 42.7919921875 c 0
 335.237304688 8.0380859375 274.25 -8.896484375 202.567382812 -8.896484375 c 0
 128.709960938 -8.896484375 74.46484375 11.4912109375 41.2158203125 52.953125 c 0
 7.84375 94.568359375 0.78515625 154.952148438 18.728515625 232.671875 c 2
 32.755859375 293.432617188 l 2
 50.5517578125 370.513671875 85.3955078125 430.421875 137.9140625 471.703125 c 0
 190.234375 512.829101562 253.838867188 533.041992188 327.68359375 533.041992188 c 0
 400.004882812 533.041992188 453.504882812 516.120117188 487.0625 481.353515625 c 0
 520.674804688 446.529296875 530.252929688 398.063476562 516.278320312 337.532226562 c 2
 513.223632812 324.302734375 l 1
 379.943359375 324.302734375 l 1
 382.544921875 335.572265625 l 2
 394.02734375 385.307617188 360.241210938 410.541992188 302.34375 410.541992188 c 0
 217.811523438 410.541992188 183.225585938 359.399414062 167.543945312 291.47265625 c 2
 154.1953125 233.65234375 l 2
EndSplineSet
EndChar

StartChar: d
Encoding: 100 100 71
Width: 573
GlyphClass: 2
Flags: MW
HStem: -8.89648 123.479<179.247 197.626> -0.0771484 21G<307.994 441.273 307.994 307.994> 410.543 122.5<262.533 313.331> 670.823 20G<465.541 600.78 600.78 600.78>
VStem: 48.9717 136.22 390.011 135.239
LayerCount: 2
Fore
SplineSet
32.9833984375 294.4140625 m 2xbc
 70.32421875 456.153320312 180.57421875 533.04296875 292.404296875 533.04296875 c 0
 347.442382812 533.04296875 389.313476562 515.551757812 417.022460938 480.66796875 c 1
 465.541015625 690.823242188 l 1
 600.780273438 690.823242188 l 1
 441.2734375 -0.0771484375 l 1
 307.994140625 -0.0771484375 l 1x7c
 317.866210938 42.681640625 l 1
 275.938476562 8.2392578125 226.00390625 -8.896484375 169.248046875 -8.896484375 c 0
 107.450195312 -8.896484375 61.7822265625 11.8076171875 33.6171875 53.2900390625 c 0
 5.3388671875 94.939453125 0.6708984375 154.452148438 18.27734375 230.713867188 c 2
 32.9833984375 294.4140625 l 2xbc
155.627929688 235.61328125 m 2
 147.131835938 198.811523438 133.296875 114.583007812 225.196289062 114.583007812 c 0xbc
 258.94921875 114.583007812 287.00390625 124.731445312 310.610351562 144.646484375 c 0
 334.194335938 164.541992188 350.420898438 192.1796875 358.864257812 228.752929688 c 2
 373.797851562 293.43359375 l 2
 382.572265625 331.440429688 379.69921875 359.99609375 366.293945312 380.163085938 c 0
 352.93359375 400.262695312 330.198242188 410.54296875 296.463867188 410.54296875 c 0
 228.602539062 410.54296875 186.370117188 368.772460938 167.845703125 288.533203125 c 2
 155.627929688 235.61328125 l 2
EndSplineSet
EndChar

StartChar: e
Encoding: 101 101 72
Width: 573
GlyphClass: 2
Flags: MW
HStem: -8.89648 120.54<200.951 244.923> 221.403 98<151.43 210.115 174.611 210.115 174.611 501.227> 414.463 118.58<293.341 319.955>
VStem: 48.9688 135.305 397.849 136.222
LayerCount: 2
Fore
SplineSet
151.4296875 221.403320312 m 1
 137.931640625 156.202148438 157.786132812 111.643554688 244.116210938 111.643554688 c 0
 268.9609375 111.643554688 331.28125 116.684570312 349.379882812 165.755859375 c 1
 354.236328125 174.36328125 l 1
 485.465820312 174.36328125 l 1
 482.354492188 160.884765625 l 1
 482.280273438 160.637695312 l 2
 467.098632812 109.612304688 434.533203125 68.03515625 385.627929688 37.130859375 c 0
 336.709960938 6.2197265625 278.458984375 -8.896484375 211.38671875 -8.896484375 c 0
 134.918945312 -8.896484375 78.7119140625 12.140625 44.1298828125 54.896484375 c 0
 9.416015625 97.8154296875 1.98828125 160.171875 20.537109375 240.513671875 c 2
 30.7177734375 284.61328125 l 2
 48.9638671875 363.646484375 84.5625 425.455078125 138.107421875 468.6796875 c 0
 191.51171875 511.791015625 256.05859375 533.04296875 330.623046875 533.04296875 c 0
 405.173828125 533.04296875 459.9375 511.966796875 493.517578125 469.190429688 c 0
 527.178710938 426.310546875 534.44921875 365.30859375 516.498046875 287.553710938 c 2
 501.2265625 221.403320312 l 1
 151.4296875 221.403320312 l 1
303.247070312 414.462890625 m 0
 242.424804688 414.462890625 197.28125 387.740234375 174.611328125 319.403320312 c 1
 245.618164062 319.403320312 316.624023438 319.40234375 387.629882812 319.40234375 c 1
 394.975585938 351.640625 390.627929688 374.6640625 375.732421875 390.216796875 c 0
 360.466796875 406.154296875 336.662109375 414.462890625 303.247070312 414.462890625 c 0
EndSplineSet
EndChar

StartChar: f
Encoding: 102 102 73
Width: 373
GlyphClass: 2
Flags: MW
HStem: -0.0771484 21G<23.7939 159.034 23.7939 23.7939> 424.264 99.96<76.2383 121.761 53.1611 144.838 280.078 366.761> 593.804 97.0195<342.1 353.473 353.473 405.902>
VStem: 107.771 135.24
LayerCount: 2
Fore
SplineSet
147.892578125 537.453125 m 2
 158.841796875 584.877929688 194.227539062 690.823242188 341.5703125 690.823242188 c 2
 428.30078125 690.823242188 l 1
 405.90234375 593.803710938 l 1
 353.47265625 593.803710938 l 2
 330.7265625 593.803710938 315.047851562 589.166015625 305.794921875 582.060546875 c 0
 296.521484375 574.938476562 288.858398438 562.25390625 284.263671875 542.353515625 c 2
 280.078125 524.223632812 l 1
 389.837890625 524.223632812 l 1
 366.760742188 424.263671875 l 1
 257.000976562 424.263671875 l 1
 159.034179688 -0.0771484375 l 1
 23.7939453125 -0.0771484375 l 1
 121.760742188 424.263671875 l 1
 53.1611328125 424.263671875 l 1
 76.23828125 524.223632812 l 1
 144.837890625 524.223632812 l 1
 147.892578125 537.453125 l 2
EndSplineSet
EndChar

StartChar: g
Encoding: 103 103 74
Width: 573
GlyphClass: 2
Flags: MW
HStem: -160.797 110.74<175.161 195.851> 28.3438 123.479<192.737 206.149> 410.543 122.5<266.467 312.043> 504.224 20G<428.058 562.317 562.317 562.317>
VStem: 48.9707 136.22 390.99 134.26
LayerCount: 2
Fore
SplineSet
189.14453125 -50.056640625 m 0xdc
 273.952148438 -50.056640625 305.745117188 -5.572265625 317.760742188 46.4736328125 c 2
 325.430664062 79.6953125 l 1
 284.053710938 45.3955078125 234.453125 28.34375 177.845703125 28.34375 c 0
 116.081054688 28.34375 70.3505859375 48.689453125 42.01953125 89.5048828125 c 0
 13.578125 130.479492188 8.5791015625 188.711914062 25.7421875 263.053710938 c 2
 34.79296875 302.252929688 l 2
 51.3671875 374.043945312 83.00390625 430.965820312 130.297851562 471.881835938 c 0
 177.432617188 512.66015625 231.8984375 533.04296875 292.404296875 533.04296875 c 0xec
 347.119140625 533.04296875 389.254882812 515.396484375 417.915039062 480.288085938 c 1
 428.057617188 524.223632812 l 1
 562.317382812 524.223632812 l 1
 453.830078125 54.3134765625 l 2
 438.517578125 -12.0146484375 404.423828125 -65.15625 351.65234375 -103.606445312 c 0
 298.923828125 -142.025390625 234.002929688 -160.796875 157.698242188 -160.796875 c 0
 87.9765625 -160.796875 -50.7900390625 -143.63671875 -24.1005859375 -3.8046875 c 2
 -22.640625 3.84375 l 1
 107.263671875 3.84375 l 1
 107.752929688 -8.9296875 108.3359375 -24.1142578125 127.720703125 -36.802734375 c 0
 140.821289062 -45.37890625 161.177734375 -50.056640625 189.14453125 -50.056640625 c 0xdc
163.09375 267.953125 m 2
 150.760742188 214.533203125 151.680664062 151.823242188 233.79296875 151.823242188 c 0
 267.602539062 151.823242188 295.63671875 161.698242188 319.078125 180.98828125 c 0
 342.524414062 200.28125 358.360351562 226.571289062 366.330078125 261.09375 c 2
 375.606445312 301.2734375 l 2
 383.583007812 335.822265625 380.03125 362.13671875 365.801757812 381.420898438 c 0
 351.57421875 400.700195312 328.603515625 410.54296875 295.482421875 410.54296875 c 0
 237.451171875 410.54296875 189.177734375 380.9375 169.654296875 296.373046875 c 2
 163.09375 267.953125 l 2
EndSplineSet
EndChar

StartChar: h
Encoding: 104 104 75
Width: 574
GlyphClass: 2
Flags: MW
HStem: -0.0771484 21G<-27.166 109.054 -27.166 -27.166 306.034 306.034 306.034 442.254> 407.604 122.5<283.126 401.23> 670.823 20G<132.341 268.561 268.561 268.561>
VStem: 56.8105 136.22 390.011 136.22
LayerCount: 2
Fore
SplineSet
306.564453125 407.603515625 m 0
 259.6875 407.603515625 198.724609375 388.331054688 177.268554688 295.393554688 c 2
 109.053710938 -0.0771484375 l 1
 -27.166015625 -0.0771484375 l 1
 132.340820312 690.823242188 l 1
 268.560546875 690.823242188 l 1
 220.056640625 480.729492188 l 1
 245.576171875 499.801757812 297.66796875 530.103515625 371.10546875 530.103515625 c 0
 431.354492188 530.103515625 475.216796875 512.220703125 501.126953125 475.854492188 c 0
 527.0234375 439.510742188 532.024414062 388.760742188 517.255859375 324.79296875 c 2
 442.25390625 -0.0771484375 l 1
 306.034179688 -0.0771484375 l 1
 375.379882812 300.29296875 l 2
 395.700195312 388.307617188 354.411132812 407.603515625 306.564453125 407.603515625 c 0
EndSplineSet
EndChar

StartChar: i
Encoding: 105 105 76
Width: 248
GlyphClass: 2
Flags: MW
HStem: -0.0771484 21G<-22.2656 112.974 -22.2656 -22.2656> 504.224 20G<98.7783 234.018 234.018 234.018> 582.043 111.721<137.92 247.366 112.127 273.159>
VStem: 61.7109 135.239
LayerCount: 2
Fore
SplineSet
137.919921875 693.763671875 m 1
 273.159179688 693.763671875 l 1
 247.366210938 582.04296875 l 1
 112.126953125 582.04296875 l 1
 137.919921875 693.763671875 l 1
98.7783203125 524.223632812 m 1
 234.017578125 524.223632812 l 1
 112.973632812 -0.0771484375 l 1
 -22.265625 -0.0771484375 l 1
 98.7783203125 524.223632812 l 1
EndSplineSet
EndChar

StartChar: j
Encoding: 106 106 77
Width: 248
GlyphClass: 2
Flags: MW
HStem: -152.957 119.561<-146.578 -103.131 -174.181 -93.167> 504.223 20G<98.7783 234.019 234.019 234.019> 582.043 111.721<137.92 247.366 112.127 273.159>
VStem: 61.7109 135.24
LayerCount: 2
Fore
SplineSet
137.919921875 693.763671875 m 1
 273.159179688 693.763671875 l 1
 247.366210938 582.04296875 l 1
 112.126953125 582.04296875 l 1
 137.919921875 693.763671875 l 1
117.38671875 19.0322265625 m 2
 88.541015625 -105.91015625 10.3193359375 -152.95703125 -103.130859375 -152.95703125 c 2
 -174.180664062 -152.95703125 l 1
 -146.578125 -33.396484375 l 1
 -93.1669921875 -33.396484375 l 2
 -67.0400390625 -33.396484375 -49.521484375 -28.3046875 -39.9912109375 -20.7666015625 c 0
 -30.4736328125 -13.2373046875 -21.755859375 2.1328125 -16.0439453125 26.8720703125 c 2
 98.7783203125 524.22265625 l 1
 234.018554688 524.22265625 l 1
 117.38671875 19.0322265625 l 2
EndSplineSet
EndChar

StartChar: k
Encoding: 107 107 78
Width: 579
GlyphClass: 2
Flags: MW
HStem: -0.0771484 21G<-27.166 109.054 -27.166 -27.166 321.192 493.196 321.192 321.192> 504.224 20G<426.396 603.462 603.462 603.462> 670.823 20G<132.341 268.561 268.561 268.561>
VStem: 56.8105 136.22
LayerCount: 2
Fore
SplineSet
321.192382812 -0.0771484375 m 1
 224.754882812 224.15625 l 1
 146.4609375 161.952148438 l 1
 109.053710938 -0.0771484375 l 1
 -27.166015625 -0.0771484375 l 1
 132.340820312 690.823242188 l 1
 268.560546875 690.823242188 l 1
 182.845703125 319.552734375 l 1
 426.395507812 524.223632812 l 1
 603.461914062 524.223632812 l 1
 342.326171875 317.041992188 l 1
 493.196289062 -0.0771484375 l 1
 321.192382812 -0.0771484375 l 1
EndSplineSet
EndChar

StartChar: l
Encoding: 108 108 79
Width: 320
GlyphClass: 2
Flags: MW
HStem: -0.0771484 119.561<99.0649 252.297 198.887 224.694> 670.822 20G<132.341 268.561 268.561 268.561>
VStem: 56.8105 136.22
LayerCount: 2
Fore
SplineSet
149.723632812 -0.0771484375 m 2
 48.40625 -0.0771484375 -17.728515625 40.802734375 12.541015625 171.912109375 c 2
 132.340820312 690.822265625 l 1
 268.560546875 690.822265625 l 1
 150.5703125 179.751953125 l 2
 145.025390625 155.731445312 146.598632812 140.455078125 152.702148438 132.51953125 c 0
 158.739257812 124.670898438 173.4765625 119.483398438 198.88671875 119.483398438 c 2
 252.296875 119.483398438 l 1
 224.694335938 -0.0771484375 l 1
 149.723632812 -0.0771484375 l 2
EndSplineSet
EndChar

StartChar: m
Encoding: 109 109 80
Width: 893
GlyphClass: 2
Flags: MW
HStem: -0.0771484 21G<-27.166 109.054 -27.166 -27.166 298.194 298.194 298.194 434.414> 407.604 122.499<328.581 341.44 644.473 660.108>
VStem: 56.8105 136.22 382.171 136.22 707.53 136.22
LayerCount: 2
Fore
SplineSet
302.643554688 407.603515625 m 0
 262.5625 407.603515625 199.434570312 391.404296875 177.268554688 295.393554688 c 2
 109.053710938 -0.0771484375 l 1
 -27.166015625 -0.0771484375 l 1
 93.8779296875 524.223632812 l 1
 227.158203125 524.223632812 l 1
 216.896484375 479.772460938 l 1
 237.149414062 494.958984375 291.935546875 530.102539062 365.225585938 530.102539062 c 0
 405.481445312 530.102539062 466.620117188 520.119140625 498.86328125 465.305664062 c 1
 552.389648438 508.440429688 612.080078125 530.102539062 676.865234375 530.102539062 c 0
 740.938476562 530.102539062 787.651367188 512.146484375 815.499023438 475.494140625 c 0
 843.318359375 438.877929688 849.418945312 388.21875 834.775390625 324.791992188 c 2
 759.7734375 -0.078125 l 1
 623.553710938 -0.078125 l 1
 692.899414062 300.291992188 l 2
 707.684570312 364.333984375 693.19140625 407.603515625 627.024414062 407.603515625 c 0
 595.2421875 407.603515625 569.361328125 397.967773438 547.998046875 379.155273438 c 0
 526.59375 360.307617188 511.404296875 333.403320312 503.081054688 297.353515625 c 2
 434.4140625 -0.0771484375 l 1
 298.194335938 -0.0771484375 l 1
 368.671875 305.193359375 l 2
 378.811523438 349.11328125 380.237304688 407.603515625 302.643554688 407.603515625 c 0
EndSplineSet
EndChar

StartChar: n
Encoding: 110 110 81
Width: 574
GlyphClass: 2
Flags: MW
HStem: -0.0771484 21G<-27.166 109.054 -27.166 -27.166 306.034 306.034 306.034 442.254> 407.604 122.5<283.126 401.238>
VStem: 56.8105 136.22 390.011 136.22
LayerCount: 2
Fore
SplineSet
306.564453125 407.603515625 m 0
 259.6875 407.603515625 198.724609375 388.331054688 177.268554688 295.393554688 c 2
 109.053710938 -0.0771484375 l 1
 -27.166015625 -0.0771484375 l 1
 93.8779296875 524.223632812 l 1
 227.158203125 524.223632812 l 1
 216.813476562 479.412109375 l 1
 245.1484375 500.267578125 298.395507812 530.103515625 371.10546875 530.103515625 c 0
 431.37109375 530.103515625 475.205078125 512.041015625 501.033203125 475.33984375 c 0
 526.818359375 438.696289062 531.877929688 388.12890625 517.255859375 324.79296875 c 2
 442.25390625 -0.0771484375 l 1
 306.034179688 -0.0771484375 l 1
 375.379882812 300.29296875 l 2
 395.700195312 388.307617188 354.411132812 407.603515625 306.564453125 407.603515625 c 0
EndSplineSet
EndChar

StartChar: o
Encoding: 111 111 82
Width: 565
GlyphClass: 2
Flags: MW
HStem: -8.89648 123.479<204.123 239.177> 410.543 122.5<290.761 345.28>
VStem: 48.9707 135.24 390.99 135.24
LayerCount: 2
Fore
SplineSet
18.728515625 232.672851562 m 2
 32.7568359375 293.43359375 l 2
 50.5517578125 370.514648438 85.3955078125 430.422851562 137.9140625 471.704101562 c 0
 190.234375 512.830078125 253.838867188 533.04296875 327.68359375 533.04296875 c 0
 400.903320312 533.04296875 454.66796875 512.642578125 487.583007812 471.172851562 c 0
 520.595703125 429.580078125 527.662109375 369.866210938 510.016601562 293.43359375 c 2
 495.98828125 232.672851562 l 2
 478.048828125 154.965820312 443.286132812 94.5947265625 391.034179688 52.9736328125 c 0
 338.970703125 11.50390625 275.787109375 -8.896484375 202.567382812 -8.896484375 c 0
 128.709960938 -8.896484375 74.46484375 11.4912109375 41.2158203125 52.953125 c 0
 7.84375 94.568359375 0.7861328125 154.953125 18.728515625 232.672851562 c 2
231.075195312 114.583007812 m 0
 282.73828125 114.583007812 338.318359375 135.51953125 360.974609375 233.653320312 c 2
 374.323242188 291.473632812 l 2
 385.241210938 338.764648438 391.157226562 410.54296875 299.40234375 410.54296875 c 0
 245.504882812 410.54296875 189.938476562 388.47265625 167.543945312 291.473632812 c 2
 154.1953125 233.653320312 l 2
 131.802734375 136.66015625 177.169921875 114.583007812 231.075195312 114.583007812 c 0
EndSplineSet
EndChar

StartChar: p
Encoding: 112 112 83
Width: 573
GlyphClass: 2
Flags: MW
HStem: -8.89648 123.479<224.359 269.936 224.359 300.707> 410.543 122.5<290.724 398.082> 504.224 20G<93.8779 227.159 227.159 227.159>
VStem: 56.8105 136.22 397.852 136.22
LayerCount: 2
Fore
SplineSet
504.055664062 233.653320312 m 2xd8
 468.553710938 79.8779296875 360.625976562 -8.896484375 240.788085938 -8.896484375 c 0
 185.75 -8.896484375 144.557617188 7.4658203125 118.388671875 40.3583984375 c 1
 73.7587890625 -152.95703125 l 1
 -62.4609375 -152.95703125 l 1
 93.8779296875 524.223632812 l 1
 227.159179688 524.223632812 l 1xb8
 216.432617188 477.76171875 l 1
 262.106445312 514.491210938 312.586914062 533.04296875 366.884765625 533.04296875 c 0
 429.278320312 533.04296875 475.198242188 512.713867188 503.21875 471.857421875 c 0
 531.331054688 430.865234375 536.069335938 372.319335938 518.76171875 297.353515625 c 2
 504.055664062 233.653320312 l 2xd8
240.876953125 114.583007812 m 0
 298.995117188 114.583007812 347.791992188 146.83203125 368.966796875 238.553710938 c 2
 381.184570312 291.473632812 l 2
 403.95703125 390.109375 357.868164062 410.54296875 307.244140625 410.54296875 c 0xd8
 274.203125 410.54296875 247.044921875 400.296875 224.366210938 380.163085938 c 0
 201.650390625 359.99609375 185.591796875 331.440429688 176.817382812 293.43359375 c 2
 161.883789062 228.752929688 l 2
 153.59375 192.84375 156.915039062 165.3125 170.985351562 145.052734375 c 0
 185.02734375 124.834960938 207.841796875 114.583007812 240.876953125 114.583007812 c 0
EndSplineSet
EndChar

StartChar: q
Encoding: 113 113 84
Width: 573
GlyphClass: 2
Flags: MW
HStem: -8.89746 123.479<179.244 197.27> 410.542 122.501<263.762 313.329> 504.224 20G<429.038 562.317 562.317 562.317>
VStem: 48.9707 136.219 390.011 135.239
LayerCount: 2
Fore
SplineSet
418.856445312 480.120117188 m 1xd8
 429.038085938 524.223632812 l 1
 562.317382812 524.223632812 l 1xb8
 405.978515625 -152.95703125 l 1
 270.739257812 -152.95703125 l 1
 315.849609375 42.4404296875 l 1
 274.5625 8.1650390625 225.291992188 -8.8974609375 169.248046875 -8.8974609375 c 0
 107.450195312 -8.8974609375 61.7822265625 11.8076171875 33.6171875 53.2890625 c 0
 5.337890625 94.9384765625 0.669921875 154.451171875 18.2763671875 230.712890625 c 2
 32.982421875 294.413085938 l 2
 50.150390625 368.77734375 82.3623046875 427.62109375 130.260742188 469.856445312 c 0
 178.012695312 511.961914062 233.16015625 533.04296875 294.364257812 533.04296875 c 0
 348.056640625 533.04296875 389.822265625 515.306640625 418.856445312 480.120117188 c 1xd8
155.625976562 235.612304688 m 2
 147.129882812 198.810546875 133.293945312 114.58203125 225.193359375 114.58203125 c 0
 258.946289062 114.58203125 287.001953125 124.731445312 310.608398438 144.645507812 c 0
 334.192382812 164.541015625 350.418945312 192.178710938 358.862304688 228.751953125 c 2
 373.794921875 293.432617188 l 2
 382.569335938 331.439453125 379.696289062 359.995117188 366.291992188 380.162109375 c 0
 352.931640625 400.26171875 330.196289062 410.541992188 296.461914062 410.541992188 c 0xd8
 228.600585938 410.541992188 186.368164062 368.771484375 167.84375 288.532226562 c 2
 155.625976562 235.612304688 l 2
EndSplineSet
EndChar

StartChar: r
Encoding: 114 114 85
Width: 399
GlyphClass: 2
Flags: MW
HStem: -0.0771484 21G<-27.166 109.054 -27.166 -27.166> 413.483 121.52<333.103 337.621> 504.224 20G<93.8779 227.159 227.159 227.159>
VStem: 56.8105 136.22
LayerCount: 2
Fore
SplineSet
318.701171875 413.483398438 m 0xd0
 273.124023438 413.483398438 200.454101562 395.823242188 175.911132812 289.513671875 c 2
 109.053710938 -0.0771484375 l 1
 -27.166015625 -0.0771484375 l 1
 93.8779296875 524.223632812 l 1
 227.159179688 524.223632812 l 1xb0
 216.776367188 479.250976562 l 1
 242.881835938 501.455078125 294.94921875 535.002929688 371.256835938 535.002929688 c 0
 399.196289062 535.002929688 411.96875 532.580078125 425.416015625 529.759765625 c 1
 394.861328125 397.413085938 l 1
 376.213867188 405.233398438 356.541015625 413.483398438 318.701171875 413.483398438 c 0xd0
EndSplineSet
EndChar

StartChar: s
Encoding: 115 115 86
Width: 529
GlyphClass: 2
Flags: MW
HStem: -5.95703 112.7<168.502 239.175 168.502 249.718> 420.344 109.76<272.941 318.632>
VStem: 47.9902 128.38 372.371 130.34
LayerCount: 2
Fore
SplineSet
456.857421875 165.053710938 m 0
 429.82421875 47.9580078125 317.749023438 -5.95703125 181.686523438 -5.95703125 c 0
 111.473632812 -5.95703125 59.23046875 8.4033203125 25.802734375 38.103515625 c 0
 -7.765625 67.9306640625 -18.2958984375 110.502929688 -5.927734375 164.073242188 c 2
 -3.552734375 174.36328125 l 1
 124.827148438 174.36328125 l 1
 122.677734375 165.053710938 l 2
 117.768554688 143.786132812 122.438476562 106.743164062 214.56640625 106.743164062 c 0
 263.784179688 106.743164062 315.383789062 116.828125 324.708007812 157.212890625 c 0
 329.06640625 176.090820312 325.576171875 196.233398438 260.616210938 203.813476562 c 2
 187.134765625 212.640625 l 2
 79.306640625 226.518554688 26.283203125 269.641601562 48.2919921875 364.973632812 c 0
 60.36328125 417.2578125 89.9931640625 458.7109375 136.4765625 487.549804688 c 0
 182.674804688 516.211914062 239.45703125 530.103515625 306.424804688 530.103515625 c 0
 375.321289062 530.103515625 426.971679688 516.236328125 460.60546875 487.584960938 c 0
 494.359375 458.831054688 505.543945312 418.387695312 493.890625 367.913085938 c 2
 491.2890625 356.643554688 l 1
 363.889648438 356.643554688 l 1
 366.265625 366.93359375 l 2
 372.759765625 395.0625 357.159179688 420.34375 280.10546875 420.34375 c 0
 223.416992188 420.34375 186.224609375 406.349609375 178.482421875 372.813476562 c 0
 173.295898438 350.348632812 184.376953125 335.357421875 234.458984375 329.150390625 c 2
 313.470703125 319.358398438 l 2
 379.16015625 311.866210938 485.064453125 287.229492188 456.857421875 165.053710938 c 0
EndSplineSet
EndChar

StartChar: t
Encoding: 116 116 87
Width: 400
GlyphClass: 2
Flags: MW
HStem: -0.0771484 117.601<174.253 300.845 250.374 273.694> 424.264 99.96<65.458 131.561 42.3809 154.638 289.878 382.44>
VStem: 117.57 135.239
LayerCount: 2
Fore
SplineSet
289.877929688 524.223632812 m 1
 405.517578125 524.223632812 l 1
 382.440429688 424.263671875 l 1
 266.80078125 424.263671875 l 1
 247.380859375 340.146484375 227.959960938 256.030273438 208.540039062 171.9140625 c 0
 203.614257812 150.578125 205.163085938 136.9375 210.822265625 129.579101562 c 0
 216.481445312 122.221679688 229.038085938 117.5234375 250.374023438 117.5234375 c 2
 300.844726562 117.5234375 l 1
 273.694335938 -0.0771484375 l 1
 200.68359375 -0.0771484375 l 2
 147.822265625 -0.0771484375 109.35546875 13.8671875 86.8193359375 42.7158203125 c 0
 64.2939453125 71.5498046875 59.57421875 112.456054688 71.4912109375 164.073242188 c 2
 131.560546875 424.263671875 l 1
 42.380859375 424.263671875 l 1
 65.4580078125 524.223632812 l 1
 154.637695312 524.223632812 l 1
 177.223632812 622.051757812 l 1
 323.37890625 669.330078125 l 1
 289.877929688 524.223632812 l 1
EndSplineSet
EndChar

StartChar: u
Encoding: 117 117 88
Width: 574
GlyphClass: 2
Flags: MW
HStem: -8.89648 123.479<216.013 252.38 216.013 310.22> 504.224 20G<93.877 230.097 230.097 230.097 427.078 563.298 563.298 563.298>
VStem: 56.8096 136.22 390.011 136.22
LayerCount: 2
Fore
SplineSet
205.5078125 -8.896484375 m 0
 92.76171875 -8.896484375 -19.2431640625 34.2431640625 23.8525390625 220.913085938 c 2
 93.876953125 524.223632812 l 1
 230.096679688 524.223632812 l 1
 161.4296875 226.79296875 l 2
 152.603515625 188.561523438 154.352539062 160.672851562 165.237304688 142.27734375 c 0
 175.873046875 124.303710938 198.010742188 114.583007812 234.014648438 114.583007812 c 0
 270.745117188 114.583007812 297.491210938 124.209960938 315.947265625 141.778320312 c 0
 334.873046875 159.79296875 349.421875 187.857421875 358.411132812 226.79296875 c 2
 427.078125 524.223632812 l 1
 563.297851562 524.223632812 l 1
 493.2734375 220.913085938 l 2
 473.262695312 134.237304688 414.932617188 -8.896484375 205.5078125 -8.896484375 c 0
EndSplineSet
EndChar

StartChar: v
Encoding: 118 118 89
Width: 542
GlyphClass: 2
Flags: MW
HStem: -0.0771484 21G<135.936 245.823 135.936 135.936> 504.224 20G<46.251 193.616 193.616 193.616 431.206 578.604 578.604 578.604>
LayerCount: 2
Fore
SplineSet
46.2509765625 524.223632812 m 1
 193.616210938 524.223632812 l 1
 236.348632812 192.724609375 l 1
 431.206054688 524.223632812 l 1
 578.604492188 524.223632812 l 1
 245.823242188 -0.0771484375 l 1
 135.935546875 -0.0771484375 l 1
 46.2509765625 524.223632812 l 1
EndSplineSet
EndChar

StartChar: w
Encoding: 119 119 90
Width: 824
GlyphClass: 2
Flags: MW
HStem: -0.0771484 21G<105.27 218.671 105.27 105.27 444.343 557.749 444.343 444.343> 504.224 20G<46.8418 190.969 190.969 190.969 401.761 503.327 503.327 503.327 714.116 859.272 859.272 859.272>
LayerCount: 2
Fore
SplineSet
46.841796875 524.223632812 m 1
 190.96875 524.223632812 l 1
 213.967773438 199.641601562 l 1
 401.760742188 524.223632812 l 1
 503.327148438 524.223632812 l 1
 543.114257812 199.64453125 l 1
 714.116210938 524.223632812 l 1
 859.272460938 524.223632812 l 1
 557.749023438 -0.0771484375 l 1
 444.342773438 -0.0771484375 l 1
 408.071289062 329.53515625 l 1
 218.670898438 -0.0771484375 l 1
 105.26953125 -0.0771484375 l 1
 46.841796875 524.223632812 l 1
EndSplineSet
EndChar

StartChar: x
Encoding: 120 120 91
Width: 517
GlyphClass: 2
Flags: MW
HStem: -0.0771484 21G<-77.7061 73.4521 -77.7061 -77.7061 285.949 435.995 285.949 285.949> 504.224 20G<53.1045 204.127 204.127 204.127 397.04 547.464 547.464 547.464>
LayerCount: 2
Fore
SplineSet
285.94921875 -0.0771484375 m 1
 213.390625 164.254882812 l 1
 73.4521484375 -0.0771484375 l 1
 -77.7060546875 -0.0771484375 l 1
 165.954101562 269.904296875 l 1
 53.1044921875 524.223632812 l 1
 204.126953125 524.223632812 l 1
 269.55078125 375.5390625 l 1
 397.040039062 524.223632812 l 1
 547.463867188 524.223632812 l 1
 314.729492188 272.793945312 l 1
 435.995117188 -0.0771484375 l 1
 285.94921875 -0.0771484375 l 1
EndSplineSet
EndChar

StartChar: y
Encoding: 121 121 92
Width: 543
GlyphClass: 2
Flags: MW
HStem: -150.996 123.48<-3.12109 22.7607 -31.6289 57.1494> 504.224 20G<46.1035 193.481 193.481 193.481 437.083 579.456 579.456 579.456>
LayerCount: 2
Fore
SplineSet
22.7607421875 -150.99609375 m 2
 -31.62890625 -150.99609375 l 1
 -3.12109375 -27.515625 l 1
 57.1494140625 -27.515625 l 2
 80.087890625 -27.515625 96.8310546875 -24.2802734375 106.86328125 -19.181640625 c 0
 124.260742188 -10.3408203125 135.571289062 9.7060546875 140.120117188 17.767578125 c 1
 46.103515625 524.223632812 l 1
 193.481445312 524.223632812 l 1
 244.889648438 196.9140625 l 1
 437.083007812 524.223632812 l 1
 579.456054688 524.223632812 l 1
 228.829101562 -39.46875 l 2
 184.28125 -111.688476562 121.765625 -150.99609375 22.7607421875 -150.99609375 c 2
EndSplineSet
EndChar

StartChar: z
Encoding: 122 122 93
Width: 505
GlyphClass: 2
Flags: MW
HStem: -0.0771484 116.62<154.429 381.494> 407.604 116.62<59.1143 502.538 86.0381 312.162>
LayerCount: 2
Fore
SplineSet
59.1142578125 407.603515625 m 1
 86.0380859375 524.223632812 l 1
 502.538085938 524.223632812 l 1
 476.682617188 412.231445312 l 1
 154.428710938 116.54296875 l 1
 408.41796875 116.54296875 l 1
 381.494140625 -0.0771484375 l 1
 -35.005859375 -0.0771484375 l 1
 -9.15234375 111.907226562 l 1
 312.162109375 407.603515625 l 1
 59.1142578125 407.603515625 l 1
EndSplineSet
EndChar

StartChar: braceleft
Encoding: 123 123 94
Width: 405
GlyphClass: 2
Flags: MW
HStem: -82.3965 112.7<152.772 289.527 242.978 263.509> 271.384 118.579<27.667 62.3926 27.667 62.3926> 627.123 112.7<369.976 380.765 380.765 427.314>
VStem: 137.171 129.359
LayerCount: 2
Fore
SplineSet
178.739257812 -82.396484375 m 2
 126.8046875 -82.396484375 37.044921875 -70.0263671875 64.8466796875 50.3935546875 c 2
 99.462890625 200.333007812 l 2
 105.721679688 227.442382812 103.426757812 245.169921875 94.8916015625 255.20703125 c 0
 86.392578125 265.204101562 66.9755859375 271.383789062 35.0166015625 271.383789062 c 2
 27.6669921875 271.383789062 l 1
 55.04296875 389.962890625 l 1
 62.392578125 389.962890625 l 2
 94.3515625 389.962890625 116.622070312 396.141601562 129.737304688 406.139648438 c 0
 142.90625 416.176757812 153.38671875 433.904296875 159.645507812 461.013671875 c 2
 193.583007812 608.013671875 l 2
 209.6640625 677.669921875 255.649414062 739.823242188 368.563476562 739.823242188 c 2
 453.333007812 739.823242188 l 1
 427.314453125 627.123046875 l 1
 380.764648438 627.123046875 l 2
 359.1875 627.123046875 344.306640625 623.346679688 336.1328125 617.911132812 c 0
 328.3046875 612.704101562 321.780273438 602.981445312 317.96484375 586.453125 c 2
 287.647460938 455.133789062 l 2
 271.651367188 385.84765625 246.556640625 351.505859375 201.28515625 330.672851562 c 1
 236.934570312 309.841796875 246.176757812 275.504882812 230.1796875 206.212890625 c 2
 198.95703125 70.9736328125 l 2
 195.142578125 54.4453125 197.17578125 44.72265625 202.599609375 39.515625 c 0
 208.263671875 34.0791015625 221.400390625 30.3037109375 242.977539062 30.3037109375 c 2
 289.52734375 30.3037109375 l 1
 263.508789062 -82.396484375 l 1
 178.739257812 -82.396484375 l 2
EndSplineSet
Substitution2: "'rtla' Right to Left Alternates lookup 0 subtable" braceright
EndChar

StartChar: bar
Encoding: 124 124 95
Width: 303
GlyphClass: 2
Flags: MW
VStem: 93.0703 127.4
LayerCount: 2
Fore
SplineSet
179.913085938 739.823242188 m 1
 307.313476562 739.823242188 l 1
 117.489257812 -82.396484375 l 1
 -9.9111328125 -82.396484375 l 1
 179.913085938 739.823242188 l 1
EndSplineSet
EndChar

StartChar: braceright
Encoding: 125 125 96
Width: 405
GlyphClass: 2
Flags: MW
HStem: -82.3965 112.7<-27.9922 17.5752 17.5752 30.7588 -54.0107 17.5752> 271.384 118.579<321.525 372.562 337.836 372.562> 627.123 112.7<135.813 155.364 109.795 220.583>
VStem: 148.93 128.381
LayerCount: 2
Fore
SplineSet
204.986328125 50.3935546875 m 2
 188.788085938 -19.765625 142.918945312 -82.396484375 30.7587890625 -82.396484375 c 2
 -54.0107421875 -82.396484375 l 1
 -27.9921875 30.3037109375 l 1
 17.5751953125 30.3037109375 l 2
 62.53125 30.3037109375 75.4912109375 45.5673828125 81.3564453125 70.9736328125 c 2
 112.579101562 206.212890625 l 2
 128.575195312 275.499023438 153.668945312 309.840820312 198.940429688 330.672851562 c 1
 163.291992188 351.50390625 154.049804688 385.841796875 170.046875 455.133789062 c 2
 200.364257812 586.453125 l 2
 204.1796875 602.981445312 202.145507812 612.704101562 196.721679688 617.911132812 c 0
 191.096679688 623.309570312 177.627929688 627.123046875 155.364257812 627.123046875 c 2
 109.794921875 627.123046875 l 1
 135.813476562 739.823242188 l 1
 220.583007812 739.823242188 l 2
 271.984375 739.823242188 361.341796875 727.646484375 333.72265625 608.013671875 c 2
 299.78515625 461.013671875 l 2
 293.690429688 434.615234375 295.954101562 416.9921875 304.524414062 406.561523438 c 0
 312.943359375 396.31640625 332.590820312 389.962890625 365.211914062 389.962890625 c 2
 372.561523438 389.962890625 l 1
 345.185546875 271.383789062 l 1
 337.8359375 271.383789062 l 2
 305.21484375 271.383789062 282.633789062 265.030273438 269.484375 254.78515625 c 0
 256.09765625 244.354492188 245.697265625 226.731445312 239.602539062 200.333007812 c 2
 204.986328125 50.3935546875 l 2
EndSplineSet
Substitution2: "'rtla' Right to Left Alternates lookup 0 subtable" braceleft
EndChar

StartChar: asciitilde
Encoding: 126 126 97
Width: 532
GlyphClass: 2
Flags: MW
HStem: 191.022 115.64<298.554 350.432> 246.884 114.658<173.615 174.102>
LayerCount: 2
Fore
SplineSet
189.109375 361.541992188 m 0x40
 216.515625 361.541992188 237.600585938 356.703125 279.310546875 329.254882812 c 0
 312.116210938 308.7890625 321.026367188 306.662109375 334.219726562 306.662109375 c 0
 366.64453125 306.662109375 386.390625 330.626953125 411.252929688 364.64453125 c 1
 489.108398438 309.103515625 l 1
 476.034179688 289.4375 449.512695312 249.546875 404.506835938 220.447265625 c 0
 374.30859375 200.922851562 343.077148438 191.022460938 311.442382812 191.022460938 c 0x80
 285.665039062 191.022460938 263.516601562 195.44140625 221.431640625 224.3125 c 0
 188.616210938 244.62109375 180.6640625 246.883789062 167.5390625 246.883789062 c 0
 136.916015625 246.883789062 116.419921875 223.119140625 90.3525390625 189.010742188 c 1
 12.5751953125 244.495117188 l 1
 26.0859375 264.255859375 53.2890625 304.043945312 97.642578125 332.616210938 c 0
 127.423828125 351.802734375 158.12109375 361.541992188 189.109375 361.541992188 c 0x40
EndSplineSet
EndChar

StartChar: exclamdown
Encoding: 161 161 99
Width: 256
GlyphClass: 2
Flags: MW
HStem: 381.144 143.08<97.7979 209.806 64.7656 242.838>
VStem: 60.7305 145.04 80.7148 105.071
LayerCount: 2
Fore
SplineSet
97.7978515625 524.223632812 m 1xc0
 242.837890625 524.223632812 l 1
 209.805664062 381.143554688 l 1
 64.765625 381.143554688 l 1
 97.7978515625 524.223632812 l 1xc0
170.81640625 298.823242188 m 1xa0
 90.8251953125 -152.95703125 l 1
 -62.8671875 -152.95703125 l 1
 65.7451171875 298.823242188 l 1
 170.81640625 298.823242188 l 1xa0
EndSplineSet
EndChar

StartChar: cent
Encoding: 162 162 100
Width: 562
GlyphClass: 2
Flags: MW
HStem: -7.2002 121.783<163.27 252.104> 410.542 120.798<287.601 287.601 287.601 331.274>
VStem: 48.9697 135.241 248.891 85.2598 388.051 133.279
LayerCount: 2
Fore
SplineSet
382.541992188 335.572265625 m 2
 394.032226562 385.337890625 360.204101562 410.541992188 302.34375 410.541992188 c 0
 217.811523438 410.541992188 183.225585938 359.399414062 167.543945312 291.47265625 c 2
 154.1953125 233.65234375 l 2
 137.953125 163.299804688 150.44140625 114.583007812 236.956054688 114.583007812 c 0
 267.252929688 114.583007812 291.723632812 121.377929688 310.928710938 134.096679688 c 0
 330.036132812 146.750976562 341.817382812 163.40625 346.94921875 185.633789062 c 2
 349.55078125 196.903320312 l 1
 482.830078125 196.903320312 l 1
 480.228515625 185.633789062 l 2
 467.647460938 131.141601562 440.149414062 86.349609375 397.794921875 52.4951171875 c 0
 357.095703125 19.9638671875 307.184570312 0.568359375 248.765625 -6.177734375 c 1
 227.548828125 -98.0771484375 l 1
 142.2890625 -98.0771484375 l 1
 163.26953125 -7.2001953125 l 1
 108.12890625 -0.8017578125 -27.96875 30.4091796875 18.7275390625 232.672851562 c 2
 32.755859375 293.43359375 l 2
 49.1728515625 364.546875 80.21484375 421.096679688 126.479492188 462.006835938 c 0
 170.983398438 501.361328125 225.014648438 524.379882812 287.600585938 531.33984375 c 1
 308.129882812 620.263671875 l 1
 393.389648438 620.263671875 l 1
 372.627929688 530.333007812 l 1
 428.555664062 523.596679688 469.84375 504.2109375 495.544921875 471.651367188 c 0
 522.283203125 437.77734375 529.002929688 392.654296875 516.27734375 337.533203125 c 2
 513.223632812 324.303710938 l 1
 379.94140625 324.303710938 l 1
 382.541992188 335.572265625 l 2
EndSplineSet
EndChar

StartChar: sterling
Encoding: 163 163 101
Width: 521
GlyphClass: 2
Flags: MW
HStem: -0.0761719 125.44<162.417 420.693> 270.403 126.42<250.666 380.239 221.479 409.426> 577.144 123.48<351.682 385.407>
VStem: 99.9297 143.081
LayerCount: 2
Fore
SplineSet
357.465820312 577.143554688 m 0
 327.686523438 577.143554688 289.918945312 566.848632812 277.703125 513.93359375 c 2
 250.666015625 396.823242188 l 1
 409.42578125 396.823242188 l 1
 380.239257812 270.403320312 l 1
 221.479492188 270.403320312 l 1
 209.1484375 216.993164062 l 2
 199.102539062 173.478515625 182.50390625 145.879882812 162.416992188 125.364257812 c 1
 449.653320312 125.364257812 l 1
 420.693359375 -0.076171875 l 1
 -33.046875 -0.076171875 l 1
 -5.7734375 118.057617188 l 1
 24.2568359375 129.240234375 48.7138671875 141.827148438 63.126953125 204.25390625 c 2
 78.3984375 270.404296875 l 1
 9.7978515625 270.404296875 l 1
 38.984375 396.82421875 l 1
 107.584960938 396.82421875 l 1
 131.228515625 499.234375 l 2
 145.723632812 562.021484375 175.052734375 611.9140625 219.615234375 647.560546875 c 0
 264.190429688 683.216796875 319.350585938 700.624023438 384.012695312 700.624023438 c 0
 444.651367188 700.624023438 489.825195312 685.59765625 518.364257812 654.733398438 c 0
 547.001953125 623.764648438 554.66796875 580.227539062 542.078125 525.694335938 c 2
 540.381835938 518.344726562 l 1
 406.12109375 518.344726562 l 1
 407.817382812 525.694335938 l 2
 412.327148438 545.228515625 413.34765625 577.143554688 357.465820312 577.143554688 c 0
EndSplineSet
EndChar

StartChar: currency
Encoding: 164 164 102
Width: 597
GlyphClass: 2
Flags: MW
HStem: 109.684 110.739<255.752 262.208> 412.503 110.74<321.19 327.421>
VStem: 96.0107 113.681 395.891 113.68
LayerCount: 2
Fore
SplineSet
243.6640625 109.68359375 m 0
 206.576171875 109.68359375 174.541015625 118.213867188 147.885742188 135.291015625 c 1
 67.990234375 70.380859375 l 1
 4.97265625 152.313476562 l 1
 86.103515625 218.225585938 l 1
 76.9326171875 247.05859375 76.712890625 280.076171875 85.2265625 316.953125 c 0
 93.23828125 351.658203125 109.126953125 384.62890625 132.723632812 415.609375 c 1
 81.2197265625 482.573242188 l 1
 182.067382812 564.505859375 l 1
 232.819335938 498.520507812 l 1
 267.702148438 514.985351562 303.23828125 523.243164062 339.142578125 523.243164062 c 0
 375.060546875 523.243164062 406.794921875 514.978515625 434.08203125 498.5 c 1
 516.322265625 564.501953125 l 1
 578.211914062 482.576171875 l 1
 496.830078125 415.647460938 l 1
 506.131835938 384.655273438 506.801757812 351.672851562 498.786132812 316.953125 c 0
 490.38671875 280.572265625 474.799804688 247.263671875 452.04296875 217.31640625 c 1
 502.791992188 151.333007812 l 1
 401.944335938 69.400390625 l 1
 351.265625 135.291015625 l 1
 316.7265625 118.213867188 280.751953125 109.68359375 243.6640625 109.68359375 c 0
385.106445312 316.953125 m 0
 391.513671875 344.708007812 387.924804688 367.158203125 374.541992188 385.346679688 c 0
 361.203125 403.474609375 341.266601562 412.502929688 313.576171875 412.502929688 c 0
 286.5859375 412.502929688 262.802734375 403.510742188 241.051757812 385.346679688 c 0
 219.26953125 367.158203125 205.314453125 344.708007812 198.907226562 316.953125 c 0
 192.499023438 289.19921875 196.048828125 266.557617188 209.390625 248.026367188 c 0
 222.693359375 229.546875 242.274414062 220.422851562 269.23046875 220.422851562 c 0
 296.887695312 220.422851562 321.00390625 229.583984375 342.796875 248.026367188 c 0
 364.6953125 266.557617188 378.698242188 289.19921875 385.106445312 316.953125 c 0
EndSplineSet
EndChar

StartChar: yen
Encoding: 165 165 103
Width: 561
GlyphClass: 2
Flags: MW
HStem: -0.0771484 21G<129.634 271.734 129.634 129.634> 114.583 100.94<28.4893 156.105 5.18555 179.409 321.51 449.126> 254.724 100.939<60.8428 185.22 60.8428 188.459 37.5391 185.22 380.405 481.479> 670.823 20G<81.2979 237.416 237.416 237.416 482.874 639.083 639.083 639.083>
VStem: 213.61 142.101
LayerCount: 2
Fore
SplineSet
298.206054688 114.583007812 m 1
 271.734375 -0.0771484375 l 1
 129.633789062 -0.0771484375 l 1
 156.10546875 114.583007812 l 1
 5.185546875 114.583007812 l 1
 28.4892578125 215.5234375 l 1
 179.409179688 215.5234375 l 1
 188.458984375 254.723632812 l 1
 37.5390625 254.723632812 l 1
 60.8427734375 355.663085938 l 1
 185.219726562 355.663085938 l 1
 81.2978515625 690.823242188 l 1
 237.416015625 690.823242188 l 1
 302.603515625 429.31640625 l 1
 482.874023438 690.823242188 l 1
 639.083007812 690.823242188 l 1
 380.405273438 355.663085938 l 1
 504.783203125 355.663085938 l 1
 481.479492188 254.723632812 l 1
 330.559570312 254.723632812 l 1
 321.509765625 215.5234375 l 1
 472.4296875 215.5234375 l 1
 449.125976562 114.583007812 l 1
 298.206054688 114.583007812 l 1
EndSplineSet
EndChar

StartChar: brokenbar
Encoding: 166 166 104
Width: 303
GlyphClass: 2
Flags: MW
VStem: 93.0703 127.4
LayerCount: 2
Fore
SplineSet
179.913085938 739.823242188 m 1
 307.313476562 739.823242188 l 1
 224.279296875 380.163085938 l 1
 96.87890625 380.163085938 l 1
 179.913085938 739.823242188 l 1
73.5751953125 279.223632812 m 1
 200.975585938 279.223632812 l 1
 117.489257812 -82.396484375 l 1
 -9.9111328125 -82.396484375 l 1
 73.5751953125 279.223632812 l 1
EndSplineSet
EndChar

StartChar: section
Encoding: 167 167 105
Width: 563
GlyphClass: 2
Flags: MW
HStem: -164.717 114.661<150.476 190.366> 601.643 114.661<328.875 371.496>
VStem: 61.7109 132.301 86.2109 131.319 356.69 131.32 365.511 124.46 377.271 132.299
LayerCount: 2
Fore
SplineSet
366.86328125 128.454101562 m 1xd2
 389.081054688 113.131835938 423.008789062 82.1103515625 404.373046875 1.392578125 c 0
 392.756835938 -48.9228515625 364.109375 -89.8916015625 319.166015625 -120.008789062 c 0
 274.35546875 -150.0390625 220.997070312 -164.716796875 159.734375 -164.716796875 c 0
 95.912109375 -164.716796875 48.9404296875 -149.759765625 20.013671875 -118.848632812 c 0
 -8.9775390625 -87.869140625 -16.72265625 -43.9853515625 -3.9833984375 11.1943359375 c 2
 -2.287109375 18.5439453125 l 1
 123.15234375 18.5439453125 l 1
 121.456054688 11.1943359375 l 2
 116.546875 -10.0673828125 113.766601562 -50.0556640625 187.185546875 -50.0556640625 c 0
 220.015625 -50.0556640625 263.2890625 -40.90234375 273.279296875 2.3740234375 c 0
 278.165039062 23.5361328125 273.100585938 38.802734375 257.412109375 50.0029296875 c 0
 241.124023438 61.6328125 210.379882812 73.3740234375 165.467773438 84.427734375 c 0
 61.302734375 112.41796875 18.4794921875 176.411132812 41.1982421875 274.814453125 c 0xe8
 52.294921875 322.880859375 82.7451171875 388.123046875 164.68359375 428.157226562 c 1
 128.76953125 455.291015625 116.971679688 496.90625 129.500976562 551.173828125 c 0
 151.00390625 644.315429688 244.229492188 716.303710938 370.973632812 716.303710938 c 0
 434.176757812 716.303710938 480.338867188 700.991210938 508.12890625 669.33203125 c 0
 535.854492188 637.748046875 543.290039062 594.618164062 530.997070312 541.372070312 c 2
 529.30078125 534.022460938 l 1
 404.840820312 534.022460938 l 1
 406.537109375 541.372070312 l 2xd4
 414.815429688 577.225585938 399.470703125 601.642578125 343.521484375 601.642578125 c 0
 314.228515625 601.642578125 270.69921875 593.965820312 260.59375 550.192382812 c 0
 255.844726562 529.625 260.657226562 515.255859375 275.478515625 505.068359375 c 0
 291.018554688 494.385742188 321.807617188 482.756835938 367.134765625 471.076171875 c 0
 470.610351562 443.091796875 513.290039062 379.779296875 490.8671875 282.65234375 c 0
 481.998046875 244.23828125 465.186523438 211.004882812 440.258789062 183.487304688 c 0
 419.1640625 160.200195312 394.59375 141.794921875 366.86328125 128.454101562 c 1xd2
248.572265625 198.864257812 m 0
 289.845703125 198.864257812 342.372070312 212.5 357.4375 277.75390625 c 0xe2
 367.267578125 320.3359375 355.098632812 356.64453125 285 356.64453125 c 0
 235.067382812 356.64453125 188.268554688 338.790039062 174.177734375 277.75390625 c 0
 168.442382812 252.911132812 162.927734375 198.864257812 248.572265625 198.864257812 c 0
EndSplineSet
EndChar

StartChar: dieresis
Encoding: 168 168 106
Width: 504
GlyphClass: 2
Flags: MW
HStem: 575.184 128.38<162.722 252.644 133.083 282.282 162.722 357.504 387.143 477.063>
VStem: 84.25 119.561 308.671 119.56
LayerCount: 2
Fore
SplineSet
162.721679688 703.563476562 m 1
 282.282226562 703.563476562 l 1
 252.643554688 575.18359375 l 1
 133.083007812 575.18359375 l 1
 162.721679688 703.563476562 l 1
387.142578125 703.563476562 m 1
 506.702148438 703.563476562 l 1
 477.063476562 575.18359375 l 1
 357.50390625 575.18359375 l 1
 387.142578125 703.563476562 l 1
EndSplineSet
EndChar

StartChar: copyright
Encoding: 169 169 107
Width: 783
GlyphClass: 2
Flags: MW
HStem: -8.89648 90.1602<295.999 374.209 295.999 418.565> 144.963 92.1201<348.222 383.46 348.222 401.585> 446.804 93.0986<415.445 439.196> 604.583 89.1807<416.823 495.021>
VStem: 57.79 94.082 231.249 101.921 466.45 99.96 648.73 94.082
LayerCount: 2
Fore
SplineSet
314.2890625 -8.896484375 m 0
 105.73046875 -8.896484375 4.49609375 132.823242188 52.888671875 342.43359375 c 0
 101.89453125 554.704101562 268.403320312 693.763671875 476.510742188 693.763671875 c 0
 685.068359375 693.763671875 786.302734375 552.04296875 737.911132812 342.43359375 c 0
 689.516601562 132.817382812 522.841796875 -8.896484375 314.2890625 -8.896484375 c 0
643.829101562 342.43359375 m 0
 662.67578125 424.069335938 655.11328125 487.670898438 622.025390625 534.383789062 c 0
 588.986328125 581.029296875 534.119140625 604.583007812 455.921875 604.583007812 c 0
 377.723632812 604.583007812 311.982421875 581.029296875 257.403320312 534.383789062 c 0
 202.747070312 487.670898438 165.817382812 424.069335938 146.970703125 342.43359375 c 0
 128.123046875 260.795898438 135.7265625 197.369140625 168.873046875 150.991210938 c 0
 201.982421875 104.665039062 256.893554688 81.263671875 335.104492188 81.263671875 c 0
 413.314453125 81.263671875 479.030273438 104.665039062 533.530273438 150.991210938 c 0
 588.090820312 197.369140625 624.981445312 260.795898438 643.829101562 342.43359375 c 0
548.612304688 286.573242188 m 2
 528.495117188 199.439453125 453.360351562 144.962890625 349.809570312 144.962890625 c 0
 298.724609375 144.962890625 260.669921875 159.877929688 236.998046875 190.208007812 c 0
 213.181640625 220.720703125 208.409179688 264.736328125 221.369140625 320.872070312 c 2
 231.32421875 363.9921875 l 2
 244.284179688 420.127929688 269.377929688 464.14453125 307.284179688 494.658203125 c 0
 344.9609375 524.987304688 389.90234375 539.90234375 440.987304688 539.90234375 c 0
 491.172851562 539.90234375 528.916992188 527.48828125 553.099609375 501.892578125 c 0
 577.345703125 476.23046875 584.231445312 440.864257812 574.176757812 397.3125 c 2
 571.348632812 385.0625 l 1
 471.388671875 385.0625 l 1
 473.764648438 395.352539062 l 2
 482.301757812 432.331054688 455.958984375 446.803710938 422.43359375 446.803710938 c 0
 369.37890625 446.803710938 345.015625 414.974609375 333.01953125 363.013671875 c 2
 323.290039062 320.873046875 l 2
 311.58203125 270.16015625 320.466796875 237.083007812 375.9765625 237.083007812 c 0
 390.943359375 237.083007812 438.081054688 240.78515625 448.65234375 286.573242188 c 2
 451.02734375 296.86328125 l 1
 550.987304688 296.86328125 l 1
 548.612304688 286.573242188 l 2
EndSplineSet
EndChar

StartChar: ordfeminine
Encoding: 170 170 108
Width: 382
GlyphClass: 2
Flags: MW
HStem: 417.403 83.2998<156.371 241.201> 549.703 71.54<208.005 302.479 230.448 285.962> 668.283 79.3799<256.886 281.816>
VStem: 39.1719 98.9795 243.012 101.919
LayerCount: 2
Fore
SplineSet
279.232421875 747.663085938 m 0
 330.428710938 747.663085938 431.362304688 738.040039062 403.831054688 618.79296875 c 2
 358.2421875 421.323242188 l 1
 259.262695312 421.323242188 l 1
 264.078125 442.180664062 l 1
 238.7265625 425.81640625 213.340820312 417.403320312 175.547851562 417.403320312 c 0
 137.194335938 417.403320312 108.603515625 426.489257812 91.009765625 445.668945312 c 0
 73.4326171875 464.831054688 68.650390625 491.352539062 76.1259765625 523.733398438 c 0
 85.923828125 566.169921875 119.928710938 621.243164062 230.448242188 621.243164062 c 2
 302.478515625 621.243164062 l 1
 303.26953125 624.672851562 l 2
 309.133789062 650.073242188 303.705078125 668.283203125 259.927734375 668.283203125 c 0
 242.361328125 668.283203125 229.823242188 665.118164062 222.256835938 660.38671875 c 0
 214.0390625 655.245117188 210.11328125 649.900390625 208.586914062 643.29296875 c 2
 206.438476562 633.983398438 l 1
 111.37890625 633.983398438 l 1
 113.52734375 643.29296875 l 2
 120.791015625 674.752929688 139.364257812 700.709960938 168.328125 719.67578125 c 0
 197.435546875 738.736328125 234.540039062 747.663085938 279.232421875 747.663085938 c 0
214.37890625 500.703125 m 0
 268.022460938 500.703125 280.875976562 527.672851562 285.623046875 548.233398438 c 2
 285.961914062 549.703125 l 1
 224.711914062 549.703125 l 2
 191.298828125 549.703125 178.998046875 540.590820312 175.784179688 526.672851562 c 0
 173.176757812 515.375976562 176.986328125 500.703125 214.37890625 500.703125 c 0
EndSplineSet
EndChar

StartChar: guillemotleft
Encoding: 171 171 109
Width: 584
GlyphClass: 2
Flags: W
LayerCount: 2
Fore
SplineSet
318.72265625 504.834960938 m 1
 285.891601562 362.630859375 l 1
 153.6796875 265.993164062 l 1
 241.270507812 169.35546875 l 1
 208.440429688 27.1513671875 l 1
 -4.7216796875 265.993164062 l 1
 318.72265625 504.834960938 l 1
568.622070312 504.834960938 m 1
 535.787109375 362.611328125 l 1
 402.653320312 265.993164062 l 1
 491.174804688 169.375 l 1
 458.33984375 27.1513671875 l 1
 245.178710938 265.993164062 l 1
 568.622070312 504.834960938 l 1
EndSplineSet
EndChar

StartChar: logicalnot
Encoding: 172 172 110
Width: 532
GlyphClass: 2
Flags: MW
HStem: 248.844 123.479<54.8896 325.281 26.3818 489.029>
VStem: 351.79 135.24
LayerCount: 2
Fore
SplineSet
325.28125 248.84375 m 1
 26.3818359375 248.84375 l 1
 54.8896484375 372.323242188 l 1
 489.029296875 372.323242188 l 1
 430.204101562 117.5234375 l 1
 294.963867188 117.5234375 l 1
 325.28125 248.84375 l 1
EndSplineSet
EndChar

StartChar: uni00AD
Encoding: 173 173 111
Width: 405
GlyphClass: 2
Flags: MW
HStem: 282.163 127.4<59.5674 347.674 30.1543 377.087>
VStem: 48.9707 317.52
LayerCount: 2
Fore
SplineSet
59.5673828125 409.563476562 m 1
 377.086914062 409.563476562 l 1
 347.673828125 282.163085938 l 1
 30.154296875 282.163085938 l 1
 59.5673828125 409.563476562 l 1
EndSplineSet
EndChar

StartChar: registered
Encoding: 174 174 112
Width: 498
GlyphClass: 2
Flags: MW
HStem: 301.764 53.8984<231.396 271.852 231.396 295.747> 551.662 57.8203<279.552 304.542 279.552 279.552> 637.902 53.9004<296.544 336.681>
VStem: 61.7109 55.8584 170.489 65.6602 281.229 65.6602 389.029 56.8408
LayerCount: 2
Fore
SplineSet
239.009765625 301.763671875 m 0
 124.418945312 301.763671875 67.755859375 389.848632812 92.556640625 497.272460938 c 0
 118.51953125 609.73046875 220.720703125 691.802734375 329.057617188 691.802734375 c 0
 444.244140625 691.802734375 501.252929688 603.553710938 476.715820312 497.2734375 c 0
 451.444335938 387.811523438 352.483398438 301.763671875 239.009765625 301.763671875 c 0
419.875 497.272460938 m 0
 429.625 539.504882812 424.594726562 573.020507812 405.262695312 598.959960938 c 0
 385.909179688 624.92578125 356.749023438 637.90234375 316.612304688 637.90234375 c 0
 276.475585938 637.90234375 241.322265625 624.92578125 209.98046875 598.959960938 c 0
 178.669921875 573.020507812 158.165039062 539.504882812 148.415039062 497.272460938 c 0
 138.665039062 455.041992188 143.654296875 421.341796875 162.9375 395.063476562 c 0
 182.225585938 368.780273438 211.338867188 355.662109375 251.452148438 355.662109375 c 0
 292.250976562 355.662109375 327.559570312 368.802734375 358.610351562 395.03125 c 0
 389.7109375 421.302734375 410.120117188 455.01953125 419.875 497.272460938 c 0
320.830078125 609.482421875 m 2
 346.778320312 609.482421875 401.938476562 602.106445312 387.01171875 537.452148438 c 0
 380.694335938 510.091796875 364.174804688 488.841796875 338.80859375 475.540039062 c 1
 361.602539062 387.022460938 l 1
 290.302734375 387.022460938 l 1
 271.690429688 463.461914062 l 1
 259.189453125 463.461914062 l 1
 241.541992188 387.022460938 l 1
 175.881835938 387.022460938 l 1
 227.240234375 609.482421875 l 1
 320.830078125 609.482421875 l 2
321.125 536.47265625 m 0
 322.498046875 542.41796875 323.90625 551.662109375 304.541992188 551.662109375 c 2
 279.551757812 551.662109375 l 1
 272.538085938 521.282226562 l 1
 297.528320312 521.282226562 l 2
 316.89453125 521.282226562 319.752929688 530.529296875 321.125 536.47265625 c 0
EndSplineSet
EndChar

StartChar: macron
Encoding: 175 175 113
Width: 504
GlyphClass: 2
Flags: MW
HStem: 578.123 122.5<170.863 468.922 142.582 497.203>
VStem: 93.0703 326.34
LayerCount: 2
Fore
SplineSet
170.86328125 700.623046875 m 1
 497.203125 700.623046875 l 1
 468.921875 578.123046875 l 1
 142.58203125 578.123046875 l 1
 170.86328125 700.623046875 l 1
EndSplineSet
EndChar

StartChar: degree
Encoding: 176 176 114
Width: 399
GlyphClass: 2
Flags: MW
HStem: 398.783 88.2012<228.362 246.59 228.362 261.608> 613.403 88.2002<257.548 275.775>
VStem: 57.7891 91.1396 269.47 91.1396
LayerCount: 2
Fore
SplineSet
403.672851562 550.194335938 m 0
 384.388671875 466.6640625 305.908203125 398.783203125 217.307617188 398.783203125 c 0
 174.436523438 398.783203125 141.387695312 413.264648438 119.211914062 442.096679688 c 0
 97.0361328125 470.9296875 90.955078125 507.323242188 100.852539062 550.194335938 c 0
 121.310546875 638.805664062 203.701171875 701.603515625 287.219726562 701.603515625 c 0
 372.49609375 701.603515625 423.358398438 635.462890625 403.672851562 550.194335938 c 0
312.533203125 550.193359375 m 0
 316.840820312 568.850585938 314.546875 583.640625 305.930664062 595.598632812 c 0
 297.341796875 607.522460938 284.6953125 613.403320312 266.85546875 613.403320312 c 0
 248.240234375 613.403320312 232.766601562 607.591796875 219.1875 596.092773438 c 0
 205.548828125 584.541992188 196.474609375 569.610351562 191.9921875 550.193359375 c 0
 187.508789062 530.772460938 189.688476562 515.83984375 197.993164062 504.294921875 c 0
 206.263671875 492.795898438 219.0546875 486.984375 237.669921875 486.984375 c 0
 255.509765625 486.984375 270.870117188 492.864257812 284.96484375 504.788085938 c 0
 299.10546875 516.752929688 308.2265625 531.540039062 312.533203125 550.193359375 c 0
EndSplineSet
EndChar

StartChar: plusminus
Encoding: 177 177 115
Width: 532
GlyphClass: 2
Flags: MW
HStem: -35.3564 126.42<-12.0049 397.85 -41.1904 427.035> 275.304 126.42<59.7168 187.33 30.5303 216.517 342.937 469.57 59.7168 313.75>
VStem: 207.73 126.42
LayerCount: 2
Fore
SplineSet
313.75 275.303710938 m 1
 277.549804688 118.502929688 l 1
 151.129882812 118.502929688 l 1
 187.330078125 275.303710938 l 1
 30.5302734375 275.303710938 l 1
 59.716796875 401.723632812 l 1
 216.516601562 401.723632812 l 1
 252.716796875 558.5234375 l 1
 379.13671875 558.5234375 l 1
 342.936523438 401.723632812 l 1
 498.756835938 401.723632812 l 1
 469.5703125 275.303710938 l 1
 313.75 275.303710938 l 1
-12.0048828125 91.0634765625 m 1
 427.03515625 91.0634765625 l 1
 397.849609375 -35.3564453125 l 1
 -41.1904296875 -35.3564453125 l 1
 -12.0048828125 91.0634765625 l 1
EndSplineSet
EndChar

StartChar: uni00B2
Encoding: 178 178 116
Width: 395
GlyphClass: 2
Flags: MW
HStem: 421.323 101.92<256.473 369.022> 754.523 98.9795<291.688 306.457>
VStem: 52.8906 302.82 238.109 117.601
LayerCount: 2
Fore
SplineSet
289.635742188 754.5234375 m 0xd0
 268.37890625 754.5234375 249.209960938 747.088867188 243.573242188 722.672851562 c 2
 240.518554688 709.443359375 l 1
 128.798828125 709.443359375 l 1
 132.532226562 725.61328125 l 2
 141.534179688 764.607421875 162.465820312 796.384765625 195.016601562 819.42578125 c 0
 227.576171875 842.473632812 267.948242188 853.502929688 315.427734375 853.502929688 c 0
 361.692382812 853.502929688 396.557617188 842.0703125 418.908203125 818.435546875 c 0
 441.192382812 794.868164062 448.090820312 763.811523438 439.499023438 726.59375 c 2
 437.688476562 718.752929688 l 2xd0
 426.791992188 671.553710938 399.166992188 642.680664062 338.543945312 591.9375 c 2
 256.47265625 523.243164062 l 1
 392.552734375 523.243164062 l 1
 369.022460938 421.323242188 l 1
 66.2021484375 421.323242188 l 1
 86.6982421875 510.1015625 l 1xe0
 149.702148438 561.548828125 212.688476562 613.01953125 275.704101562 664.452148438 c 0
 304.720703125 685.96875 315.9140625 700.67578125 319.409179688 715.813476562 c 2
 320.766601562 721.693359375 l 2
 324.403320312 737.4453125 323.278320312 754.5234375 289.635742188 754.5234375 c 0xd0
EndSplineSet
EndChar

StartChar: uni00B3
Encoding: 179 179 117
Width: 389
GlyphClass: 2
Flags: MW
HStem: 414.463 97.0215<208.962 232.665> 589.884 98<231.623 239.868 208.998 261.513> 756.483 97.0195<264.808 301.708>
VStem: 46.0312 105.84 232.231 111.72 239.092 112.698
LayerCount: 2
Fore
SplineSet
210.1484375 414.462890625 m 0xf4
 178.900390625 414.462890625 58.1083984375 415.978515625 86.6064453125 539.4140625 c 2
 90.11328125 554.604492188 l 1
 195.953125 554.604492188 l 1
 192.8984375 541.374023438 l 2
 190.68359375 531.779296875 187.336914062 511.484375 230.587890625 511.484375 c 0
 253.770507812 511.484375 275.010742188 519.24609375 281.0234375 545.29296875 c 2
 282.607421875 552.153320312 l 2xf4
 285.93359375 566.55859375 287.638671875 589.883789062 239.868164062 589.883789062 c 2
 208.998046875 589.883789062 l 1
 231.623046875 687.883789062 l 1
 261.512695312 687.883789062 l 2
 305.506835938 687.883789062 311.875 708.640625 314.209960938 718.752929688 c 2
 315.793945312 725.61328125 l 2
 318.869140625 738.936523438 319.206054688 756.483398438 284.2109375 756.483398438 c 0
 245.405273438 756.483398438 239.21875 737.762695312 236.866210938 727.573242188 c 2
 233.5859375 713.36328125 l 1
 128.725585938 713.36328125 l 1
 131.780273438 726.59375 l 2
 143.03125 775.329101562 181.231445312 853.502929688 310.529296875 853.502929688 c 0
 354.770507812 853.502929688 388.174804688 843.102539062 409.6953125 821.470703125 c 0
 431.267578125 799.7890625 437.747070312 769.940429688 429.323242188 733.453125 c 2
 427.740234375 726.59375 l 2xf8
 424.075195312 710.721679688 410.793945312 672.962890625 364.893554688 648.41796875 c 1
 378.080078125 641.502929688 410.415039062 617.599609375 395.758789062 554.11328125 c 2
 393.948242188 546.2734375 l 2
 384.77734375 506.55078125 362.943359375 473.970703125 328.919921875 449.997070312 c 0
 295.030273438 426.119140625 255.180664062 414.462890625 210.1484375 414.462890625 c 0xf4
EndSplineSet
EndChar

StartChar: acute
Encoding: 180 180 118
Width: 504
GlyphClass: 2
Flags: MW
HStem: 576.163 145.04<169.324 476.561>
VStem: 120.266 273.751
LayerCount: 2
Fore
SplineSet
320.5859375 721.203125 m 1
 476.560546875 721.203125 l 1
 292.58203125 576.163085938 l 1
 169.32421875 576.163085938 l 1
 320.5859375 721.203125 l 1
EndSplineSet
EndChar

StartChar: uni00B5
Encoding: 181 181 119
Width: 574
GlyphClass: 2
Flags: MW
HStem: -5.95703 122.5<189.308 220.958> 504.224 20G<93.8779 230.098 230.098 230.098 427.078 563.298 563.298 563.298>
VStem: 56.8105 136.22 390.011 136.22
LayerCount: 2
Fore
SplineSet
318.48046875 41.099609375 m 1
 303.38671875 28.322265625 256.310546875 -5.95703125 185.606445312 -5.95703125 c 0
 156.625976562 -5.95703125 131.74609375 -0.955078125 111.196289062 9.2021484375 c 1
 73.7587890625 -152.95703125 l 1
 -62.4609375 -152.95703125 l 1
 93.8779296875 524.223632812 l 1
 230.09765625 524.223632812 l 1
 160.751953125 223.853515625 l 2
 149.790039062 176.37109375 149.047851562 116.54296875 229.567382812 116.54296875 c 0
 266.612304688 116.54296875 336.130859375 130.288085938 358.86328125 228.752929688 c 2
 427.078125 524.223632812 l 1
 563.297851562 524.223632812 l 1
 442.25390625 -0.0771484375 l 1
 308.973632812 -0.0771484375 l 1
 318.48046875 41.099609375 l 1
EndSplineSet
EndChar

StartChar: paragraph
Encoding: 182 182 120
Width: 698
GlyphClass: 2
Flags: MW
HStem: 578.123 112.7<473.822 473.822 473.822 543.402>
VStem: 61.7109 362.6 301.811 122.5 493.891 121.52
LayerCount: 2
Fore
SplineSet
473.822265625 578.123046875 m 1xb0
 305.0390625 -152.95703125 l 1
 182.5390625 -152.95703125 l 1
 277.344726562 257.694335938 l 1xb0
 203.169921875 258.546875 148.68359375 277.140625 115.0546875 314.379882812 c 0
 80.564453125 352.571289062 71.6103515625 406.54296875 87.3525390625 474.733398438 c 0xd0
 103.095703125 542.920898438 136.938476562 596.747070312 189.012695312 634.619140625 c 0
 240.931640625 672.377929688 304.79296875 690.823242188 379.791015625 690.823242188 c 2
 690.940429688 690.823242188 l 1
 496.138671875 -152.95703125 l 1
 374.619140625 -152.95703125 l 1
 543.40234375 578.123046875 l 1
 473.822265625 578.123046875 l 1xb0
EndSplineSet
EndChar

StartChar: periodcentered
Encoding: 183 183 121
Width: 222
GlyphClass: 2
Flags: MW
HStem: 203.764 153.859<39.7363 155.135 4.21484 190.656>
VStem: 41.1309 150.92
LayerCount: 2
Fore
SplineSet
39.736328125 357.623046875 m 1
 190.65625 357.623046875 l 1
 155.134765625 203.763671875 l 1
 4.21484375 203.763671875 l 1
 39.736328125 357.623046875 l 1
EndSplineSet
EndChar

StartChar: cedilla
Encoding: 184 184 122
Width: 504
GlyphClass: 2
Flags: MW
HStem: -152.957 180.32<20.0576 268.92 20.0576 268.92>
VStem: 139.329 207.232
LayerCount: 2
Fore
SplineSet
268.919921875 27.36328125 m 1
 153.66796875 -152.95703125 l 1
 20.0576171875 -152.95703125 l 1
 154.515625 27.36328125 l 1
 268.919921875 27.36328125 l 1
EndSplineSet
EndChar

StartChar: uni00B9
Encoding: 185 185 123
Width: 291
GlyphClass: 2
Flags: MW
VStem: 121.49 115.641
LayerCount: 2
Fore
SplineSet
105.911132812 673.975585938 m 1
 133.758789062 794.594726562 l 1
 238.420898438 846.643554688 l 1
 348.634765625 846.643554688 l 1
 250.442382812 421.323242188 l 1
 134.801757812 421.323242188 l 1
 204.217773438 721.99609375 l 1
 105.911132812 673.975585938 l 1
EndSplineSet
EndChar

StartChar: ordmasculine
Encoding: 186 186 124
Width: 383
GlyphClass: 2
Flags: MW
HStem: 417.403 93.0986<207.529 232.396> 654.563 93.0986<261.292 285.739>
VStem: 41.1309 101.92 249.87 101.92
LayerCount: 2
Fore
SplineSet
208.8671875 417.403320312 m 0
 154.653320312 417.403320312 57.6689453125 435.299804688 88.4931640625 568.8125 c 2
 95.732421875 600.171875 l 2
 106.465820312 646.6640625 128.598632812 683.591796875 162.522460938 709.448242188 c 0
 196.291992188 735.188476562 237.471679688 747.662109375 285.11328125 747.662109375 c 0
 332.75390625 747.662109375 368.173828125 735.188476562 390.05859375 709.448242188 c 0
 412.04296875 683.591796875 417.125 646.6640625 406.391601562 600.171875 c 2
 399.15234375 568.8125 l 2
 388.123046875 521.04296875 365.6328125 483.15625 331.240234375 456.6328125 c 0
 297.046875 430.262695312 255.923828125 417.403320312 208.8671875 417.403320312 c 0
230.360351562 510.501953125 m 0
 244.483398438 510.501953125 284.4921875 513.630859375 297.458007812 569.79296875 c 2
 304.471679688 600.172851562 l 2
 310.165039062 624.831054688 307.858398438 654.563476562 263.620117188 654.563476562 c 0
 239.407226562 654.563476562 208.053710938 645.223632812 197.65234375 600.171875 c 2
 190.638671875 569.791992188 l 2
 185.104492188 545.819335938 184.698242188 510.501953125 230.360351562 510.501953125 c 0
EndSplineSet
EndChar

StartChar: guillemotright
Encoding: 187 187 125
Width: 584
GlyphClass: 2
Flags: W
LayerCount: 2
Fore
SplineSet
-20.8798828125 27.1513671875 m 1
 11.955078125 169.375 l 1
 145.087890625 265.993164062 l 1
 56.5673828125 362.611328125 l 1
 89.40234375 504.834960938 l 1
 302.5625 265.993164062 l 1
 -20.8798828125 27.1513671875 l 1
306.471679688 362.630859375 m 1
 339.302734375 504.834960938 l 1
 552.462890625 265.993164062 l 1
 229.020507812 27.1513671875 l 1
 261.850585938 169.35546875 l 1
 394.061523438 265.993164062 l 1
 306.471679688 362.630859375 l 1
EndSplineSet
EndChar

StartChar: onequarter
Encoding: 188 188 126
Width: 857
GlyphClass: 3
Flags: MW
HStem: -0.0771484 21G<34.4033 34.4033 34.4033 150.81 602.974 602.974 602.974 718.614> 55.7832 101.92<570.347 615.87 755.041 760.91 570.347 731.511> 675.724 20G<638.552 755.96 755.96 755.96>
VStem: 121.49 115.641 686.95 115.641
LayerCount: 2
Fore
SplineSet
34.4033203125 -0.0771484375 m 1
 638.551757812 695.723632812 l 1
 755.959960938 695.723632812 l 1
 150.809570312 -0.0771484375 l 1
 34.4033203125 -0.0771484375 l 1
69.9375 518.15625 m 1
 97.7841796875 638.774414062 l 1
 202.447265625 690.823242188 l 1
 312.661132812 690.823242188 l 1
 214.467773438 265.502929688 l 1
 98.8271484375 265.502929688 l 1
 168.243164062 566.17578125 l 1
 69.9375 518.15625 l 1
755.041015625 157.703125 m 1
 784.440429688 157.703125 l 1
 760.91015625 55.783203125 l 1
 731.510742188 55.783203125 l 1
 718.614257812 -0.0771484375 l 1
 602.973632812 -0.0771484375 l 1
 615.870117188 55.783203125 l 1
 424.770507812 55.783203125 l 1
 446.998046875 152.061523438 l 1
 644.15625 425.243164062 l 1
 763.43359375 425.243164062 l 1
 570.346679688 157.703125 l 1
 639.400390625 157.703125 l 1
 659.310546875 243.943359375 l 1
 774.951171875 243.943359375 l 1
 755.041015625 157.703125 l 1
EndSplineSet
Ligature2: "'frac' Diagonal Fractions lookup 2 subtable" one slash four
EndChar

StartChar: onehalf
Encoding: 189 189 127
Width: 879
GlyphClass: 3
Flags: MW
HStem: -0.0771484 101.921<641.345 753.894> 333.123 98.9805<676.561 691.33> 675.724 20G<638.552 755.96 755.96 755.96>
VStem: 121.49 115.641 535.051 302.819 720.271 117.6
LayerCount: 2
Fore
SplineSet
638.551757812 695.723632812 m 1xf0
 755.959960938 695.723632812 l 1
 150.809570312 -0.0771484375 l 1
 34.4033203125 -0.0771484375 l 1
 638.551757812 695.723632812 l 1xf0
69.9375 518.15625 m 1
 97.7841796875 638.774414062 l 1
 202.447265625 690.823242188 l 1
 312.661132812 690.823242188 l 1
 214.467773438 265.502929688 l 1
 98.8271484375 265.502929688 l 1
 168.243164062 566.17578125 l 1
 69.9375 518.15625 l 1
674.508789062 333.123046875 m 0
 653.251953125 333.123046875 634.083007812 325.689453125 628.446289062 301.2734375 c 2
 625.391601562 288.04296875 l 1
 513.671875 288.04296875 l 1
 517.405273438 304.212890625 l 2
 526.407226562 343.20703125 547.338867188 374.984375 579.889648438 398.026367188 c 0
 612.44921875 421.073242188 652.821289062 432.103515625 700.299804688 432.103515625 c 0
 746.564453125 432.103515625 781.431640625 420.670898438 803.780273438 397.03515625 c 0
 826.065429688 373.467773438 832.963867188 342.412109375 824.37109375 305.193359375 c 2
 822.560546875 297.353515625 l 2xf8
 811.665039062 250.159179688 784.051757812 221.291015625 723.416015625 170.538085938 c 2
 641.344726562 101.84375 l 1
 777.423828125 101.84375 l 1xf4
 753.893554688 -0.0771484375 l 1
 451.07421875 -0.0771484375 l 1
 471.5703125 88.7021484375 l 1xf8
 534.575195312 140.149414062 597.561523438 191.620117188 660.577148438 243.051757812 c 0
 689.59375 264.568359375 700.788085938 279.276367188 704.282226562 294.413085938 c 2
 705.639648438 300.29296875 l 2xf4
 709.276367188 316.045898438 708.151367188 333.123046875 674.508789062 333.123046875 c 0
EndSplineSet
Ligature2: "'frac' Diagonal Fractions lookup 2 subtable" one slash two
EndChar

StartChar: threequarters
Encoding: 190 190 128
Width: 949
GlyphClass: 3
Flags: MW
HStem: -0.0771484 21G<125.544 125.544 125.544 241.951 694.115 694.115 694.115 809.755> 55.7832 101.92<661.487 707.012 846.182 852.052 661.487 822.651> 258.644 97.0195<172.977 196.692> 434.063 98<195.649 203.895 173.024 225.539> 600.663 97.0205<228.833 265.734>
VStem: 46.0312 105.84 232.231 111.72 239.092 112.698 778.092 115.64
LayerCount: 2
Fore
SplineSet
329.287109375 492.403320312 m 1xfe80
 342.418945312 485.4140625 374.362304688 461.436523438 359.784179688 398.29296875 c 2
 357.974609375 390.453125 l 2
 348.803710938 350.73046875 326.969726562 318.150390625 292.9453125 294.177734375 c 0
 259.055664062 270.298828125 219.208007812 258.643554688 174.17578125 258.643554688 c 0
 142.940429688 258.643554688 22.1337890625 260.154296875 50.6318359375 383.59375 c 2
 54.138671875 398.783203125 l 1
 159.978515625 398.783203125 l 1
 156.924804688 385.553710938 l 2
 154.715820312 375.98828125 151.33984375 355.663085938 194.61328125 355.663085938 c 0
 217.795898438 355.663085938 239.036132812 363.42578125 245.049804688 389.473632812 c 2
 246.633789062 396.333007812 l 2xfd80
 249.958984375 410.73828125 251.665039062 434.063476562 203.89453125 434.063476562 c 2
 173.024414062 434.063476562 l 1
 195.649414062 532.063476562 l 1
 225.5390625 532.063476562 l 2
 269.533203125 532.063476562 275.901367188 552.8203125 278.236328125 562.93359375 c 2
 279.819335938 569.79296875 l 2
 282.895507812 583.1171875 283.231445312 600.663085938 248.236328125 600.663085938 c 0
 209.430664062 600.663085938 203.245117188 581.943359375 200.892578125 571.752929688 c 2
 197.611328125 557.54296875 l 1
 92.7509765625 557.54296875 l 1
 95.8056640625 570.7734375 l 2
 107.057617188 619.508789062 145.2578125 697.68359375 274.555664062 697.68359375 c 0
 318.796875 697.68359375 352.201171875 687.282226562 373.721679688 665.651367188 c 0
 395.29296875 643.96875 401.7734375 614.120117188 393.349609375 577.633789062 c 2
 391.765625 570.7734375 l 2
 385.247070312 542.536132812 364.904296875 511.030273438 329.287109375 492.403320312 c 1xfe80
125.543945312 -0.0771484375 m 1
 729.692382812 695.723632812 l 1
 847.100585938 695.723632812 l 1
 241.951171875 -0.0771484375 l 1
 125.543945312 -0.0771484375 l 1
846.181640625 157.703125 m 1
 875.58203125 157.703125 l 1
 852.051757812 55.783203125 l 1
 822.651367188 55.783203125 l 1
 809.754882812 -0.0771484375 l 1
 694.115234375 -0.0771484375 l 1
 707.01171875 55.783203125 l 1
 515.911132812 55.783203125 l 1
 538.138671875 152.061523438 l 1
 735.297851562 425.243164062 l 1
 854.57421875 425.243164062 l 1
 661.487304688 157.703125 l 1
 730.541992188 157.703125 l 1
 750.452148438 243.943359375 l 1
 866.091796875 243.943359375 l 1
 846.181640625 157.703125 l 1
EndSplineSet
Ligature2: "'frac' Diagonal Fractions lookup 2 subtable" three slash four
EndChar

StartChar: questiondown
Encoding: 191 191 129
Width: 504
GlyphClass: 2
Flags: MW
HStem: -162.757 124.46<137.093 211.73 137.093 245.463> 384.083 140.141<230.098 340.824 197.744 373.178>
VStem: 37.2109 140.14 193.03 143.08 349.031 133.253
LayerCount: 2
Fore
SplineSet
230.09765625 524.223632812 m 1
 373.177734375 524.223632812 l 1
 340.82421875 384.083007812 l 1
 197.744140625 384.083007812 l 1
 230.09765625 524.223632812 l 1
99.595703125 26.873046875 m 0
 91.8046875 -6.875 102.908203125 -38.296875 171.278320312 -38.296875 c 0
 252.182617188 -38.296875 265.8828125 7.0888671875 274.331054688 40.103515625 c 1
 407.583984375 40.103515625 l 1
 392.154296875 -21.197265625 350.340820312 -162.756835938 140.584960938 -162.756835938 c 0
 71.556640625 -162.756835938 20.1396484375 -146.997070312 -12.63671875 -114.583984375 c 0
 -45.482421875 -82.1015625 -55.296875 -37.03125 -42.353515625 19.0341796875 c 0
 -23.033203125 102.719726562 31.8876953125 147.876953125 61.5517578125 170.408203125 c 0
 61.6181640625 170.458984375 121.234375 216.505859375 121.234375 216.505859375 c 2
 160.833984375 246.71484375 174.536132812 266.578125 184.35546875 309.11328125 c 2
 189.8984375 333.123046875 l 1
 326.119140625 333.123046875 l 1
 317.182617188 294.413085938 l 2
 309.5078125 261.169921875 299.47265625 234.640625 286.431640625 214.635742188 c 0
 273.31640625 194.518554688 251.774414062 173.490234375 221.9375 150.87109375 c 0
 221.87109375 150.8203125 164.716796875 106.771484375 164.555664062 106.649414062 c 0
 121.947265625 75.1083984375 105.840820312 53.921875 99.595703125 26.873046875 c 0
EndSplineSet
EndChar

StartChar: Agrave
Encoding: 192 192 130
Width: 681
GlyphClass: 2
Flags: MW
HStem: -0.0771484 21G<-79.7764 -79.7764 -79.7764 73.4873 448.42 448.42 448.42 601.684> 131.243 121.521<226.531 412.087 226.531 429.737 152.805 412.087> 670.823 20G<363.1 477.821 477.821 477.821>
LayerCount: 2
Fore
SplineSet
-79.7763671875 -0.0771484375 m 1
 363.099609375 690.823242188 l 1
 477.821289062 690.823242188 l 1
 601.68359375 -0.0771484375 l 1
 448.419921875 -0.0771484375 l 1
 429.737304688 131.243164062 l 1
 152.8046875 131.243164062 l 1
 73.4873046875 -0.0771484375 l 1
 -79.7763671875 -0.0771484375 l 1
226.53125 252.763671875 m 1
 412.086914062 252.763671875 l 1
 375.919921875 499.87890625 l 1
 226.53125 252.763671875 l 1
269.001953125 887.803710938 m 1
 438.333007812 887.803710938 l 1
 535.7109375 742.763671875 l 1
 406.729492188 742.763671875 l 1
 269.001953125 887.803710938 l 1
EndSplineSet
EndChar

StartChar: Aacute
Encoding: 193 193 131
Width: 681
GlyphClass: 2
Flags: MW
HStem: -0.0771484 21G<-79.7764 -79.7764 -79.7764 73.4873 448.42 448.42 448.42 601.684> 131.243 121.521<226.531 412.087 226.531 429.737 152.805 412.087> 670.823 20G<363.1 477.821 477.821 477.821>
LayerCount: 2
Fore
SplineSet
-79.7763671875 -0.0771484375 m 1
 363.099609375 690.823242188 l 1
 477.821289062 690.823242188 l 1
 601.68359375 -0.0771484375 l 1
 448.419921875 -0.0771484375 l 1
 429.737304688 131.243164062 l 1
 152.8046875 131.243164062 l 1
 73.4873046875 -0.0771484375 l 1
 -79.7763671875 -0.0771484375 l 1
226.53125 252.763671875 m 1
 412.086914062 252.763671875 l 1
 375.919921875 499.87890625 l 1
 226.53125 252.763671875 l 1
629.552734375 887.803710938 m 1
 424.854492188 742.763671875 l 1
 295.873046875 742.763671875 l 1
 460.221679688 887.803710938 l 1
 629.552734375 887.803710938 l 1
EndSplineSet
EndChar

StartChar: Acircumflex
Encoding: 194 194 132
Width: 681
GlyphClass: 2
Flags: MW
HStem: -0.0771484 21G<-79.7764 -79.7764 -79.7764 73.4873 448.42 448.42 448.42 601.684> 131.243 121.521<226.531 412.087 226.531 429.737 152.805 412.087> 670.823 20G<363.1 477.821 477.821 477.821>
LayerCount: 2
Fore
SplineSet
-79.7763671875 -0.0771484375 m 1
 363.099609375 690.823242188 l 1
 477.821289062 690.823242188 l 1
 601.68359375 -0.0771484375 l 1
 448.419921875 -0.0771484375 l 1
 429.737304688 131.243164062 l 1
 152.8046875 131.243164062 l 1
 73.4873046875 -0.0771484375 l 1
 -79.7763671875 -0.0771484375 l 1
226.53125 252.763671875 m 1
 412.086914062 252.763671875 l 1
 375.919921875 499.87890625 l 1
 226.53125 252.763671875 l 1
419.645507812 894.663085938 m 1
 515.397460938 894.663085938 l 1
 623.282226562 731.983398438 l 1
 501.780273438 731.983398438 l 1
 447.760742188 807.100585938 l 1
 358.119140625 731.983398438 l 1
 236.645507812 731.983398438 l 1
 419.645507812 894.663085938 l 1
EndSplineSet
EndChar

StartChar: Atilde
Encoding: 195 195 133
Width: 681
GlyphClass: 2
Flags: MW
HStem: -0.0771484 21G<-79.7764 -79.7764 -79.7764 73.4873 448.42 448.42 448.42 601.684> 131.243 121.521<226.531 412.087 226.531 429.737 152.805 412.087> 670.823 20G<363.1 477.821 477.821 477.821> 737.863 106.819<504.861 519.902> 775.104 106.817<376.872 376.972>
LayerCount: 2
Fore
SplineSet
-79.7763671875 -0.0771484375 m 1xe0
 363.099609375 690.823242188 l 1
 477.821289062 690.823242188 l 1
 601.68359375 -0.0771484375 l 1
 448.419921875 -0.0771484375 l 1
 429.737304688 131.243164062 l 1
 152.8046875 131.243164062 l 1
 73.4873046875 -0.0771484375 l 1
 -79.7763671875 -0.0771484375 l 1xe0
226.53125 252.763671875 m 1
 412.086914062 252.763671875 l 1
 375.919921875 499.87890625 l 1
 226.53125 252.763671875 l 1
398.4296875 881.921875 m 0xe8
 464.223632812 881.921875 479.748046875 844.682617188 529.973632812 844.682617188 c 0
 559.598632812 844.682617188 579.122070312 857.294921875 630.506835938 891.7421875 c 1
 605.45703125 783.23828125 l 1
 570.918945312 756.127929688 541.353515625 737.86328125 498.451171875 737.86328125 c 0xf0
 471.202148438 737.86328125 460.388671875 741.403320312 408.834960938 765.3984375 c 0
 400.186523438 769.481445312 386.0546875 775.104492188 367.888671875 775.104492188 c 0
 337.126953125 775.104492188 314.518554688 760.939453125 265.71484375 729.432617188 c 1
 290.444335938 836.547851562 l 1
 326.56640625 864.892578125 355.313476562 881.921875 398.4296875 881.921875 c 0xe8
EndSplineSet
EndChar

StartChar: Adieresis
Encoding: 196 196 134
Width: 681
GlyphClass: 2
Flags: MW
HStem: -0.0771484 21G<-79.7764 -79.7764 -79.7764 73.4873 448.42 448.42 448.42 601.684> 131.243 121.521<226.531 412.087 226.531 429.737 152.805 412.087> 670.823 20G<363.1 477.821 477.821 477.821> 741.783 128.38<289.385 379.306 259.745 408.945 289.385 485.146 514.785 604.705>
VStem: 172.45 119.561 397.851 119.56
LayerCount: 2
Fore
SplineSet
-79.7763671875 -0.0771484375 m 1
 363.099609375 690.823242188 l 1
 477.821289062 690.823242188 l 1
 601.68359375 -0.0771484375 l 1
 448.419921875 -0.0771484375 l 1
 429.737304688 131.243164062 l 1
 152.8046875 131.243164062 l 1
 73.4873046875 -0.0771484375 l 1
 -79.7763671875 -0.0771484375 l 1
226.53125 252.763671875 m 1
 412.086914062 252.763671875 l 1
 375.919921875 499.87890625 l 1
 226.53125 252.763671875 l 1
289.384765625 870.163085938 m 1
 408.9453125 870.163085938 l 1
 379.305664062 741.783203125 l 1
 259.745117188 741.783203125 l 1
 289.384765625 870.163085938 l 1
514.78515625 870.163085938 m 1
 634.344726562 870.163085938 l 1
 604.705078125 741.783203125 l 1
 485.145507812 741.783203125 l 1
 514.78515625 870.163085938 l 1
EndSplineSet
EndChar

StartChar: Aring
Encoding: 197 197 135
Width: 681
GlyphClass: 2
Flags: MW
HStem: -0.0742188 21G<-79.7812 73.4883 -79.7812 -79.7812> 131.246 121.521<152.806 412.087> 810.386 68.5986<449.157 459.682>
VStem: 237.131 70.5596 384.131 69.5801
LayerCount: 2
Fore
SplineSet
547.454101562 769.713867188 m 0
 543.676757812 753.348632812 529.015625 707.541992188 479.45703125 679.477539062 c 1
 601.689453125 -0.0771484375 l 1
 448.419921875 -0.0771484375 l 1
 429.737304688 131.243164062 l 1
 337.426757812 131.243164062 245.1171875 131.24609375 152.805664062 131.24609375 c 1
 73.48828125 -0.07421875 l 1
 -79.78125 -0.07421875 l 1
 356.33203125 679.645507812 l 1
 342.216796875 691.174804688 319.094726562 718.689453125 330.874023438 769.713867188 c 0
 338.048828125 800.791015625 354.524414062 827.228515625 379.993164062 847.920898438 c 0
 405.419921875 868.578125 433.921875 878.984375 464.391601562 878.984375 c 0
 494.860351562 878.984375 518.557617188 868.578125 534.4453125 847.920898438 c 0
 550.359375 827.228515625 554.62890625 800.791015625 547.454101562 769.713867188 c 0
448.5546875 810.385742188 m 0
 425.51171875 810.385742188 406.716796875 792.594726562 401.434570312 769.715820312 c 0
 396.21875 747.123046875 409.119140625 730.02734375 430.001953125 730.02734375 c 0
 452.995117188 730.02734375 472.858398438 747.985351562 477.875 769.715820312 c 0
 483.366210938 793.499023438 470.809570312 810.385742188 448.5546875 810.385742188 c 0
226.53125 252.766601562 m 1
 412.086914062 252.766601562 l 1
 375.920898438 499.881835938 l 1
 226.53125 252.766601562 l 1
EndSplineSet
EndChar

StartChar: AE
Encoding: 198 198 136
Width: 991
GlyphClass: 2
Flags: MW
HStem: -0.0771484 126.421<554.74 875.414> 138.104 121.52<281.94 413.396 186.939 441.45> 285.104 126.42<620.579 891.272 591.393 920.459> 564.403 126.42<655.874 1005.73 655.874 655.874>
VStem: 465.471 144.06
LayerCount: 2
Fore
SplineSet
-81.556640625 -0.0771484375 m 1
 477.470703125 690.823242188 l 1
 1034.92089844 690.823242188 l 1
 1005.734375 564.403320312 l 1
 655.874023438 564.403320312 l 1
 620.579101562 411.5234375 l 1
 920.458984375 411.5234375 l 1
 891.272460938 285.103515625 l 1
 591.392578125 285.103515625 l 1
 554.740234375 126.34375 l 1
 904.600585938 126.34375 l 1
 875.4140625 -0.0771484375 l 1
 381.494140625 -0.0771484375 l 1
 413.395507812 138.103515625 l 1
 186.939453125 138.103515625 l 1
 78.59765625 -0.0771484375 l 1
 -81.556640625 -0.0771484375 l 1
441.450195312 259.623046875 m 1
 507.857421875 547.262695312 l 1
 281.940429688 259.623046875 l 1
 441.450195312 259.623046875 l 1
EndSplineSet
EndChar

StartChar: Ccedilla
Encoding: 199 199 137
Width: 673
GlyphClass: 2
Flags: MW
HStem: 576.163 127.4<386.642 425.261>
VStem: 57.79 144.062 490.951 142.101
LayerCount: 2
Fore
SplineSet
186.08984375 295.393554688 m 2
 159.280273438 179.268554688 192.58984375 119.483398438 298.84765625 119.483398438 c 0
 342.8125 119.483398438 378.428710938 129.831054688 406.4140625 149.6015625 c 0
 434.341796875 169.331054688 452.283203125 196.177734375 460.483398438 231.693359375 c 2
 463.311523438 243.943359375 l 1
 605.412109375 243.943359375 l 1
 602.583984375 231.693359375 l 2
 587.470703125 166.23046875 556.021484375 112.271484375 508.129882812 70.880859375 c 0
 461.373046875 30.47265625 404.405273438 5.19140625 338.021484375 -5.2236328125 c 1
 243.836914062 -152.95703125 l 1
 110.267578125 -152.95703125 l 1
 217.81640625 -7.8310546875 l 1
 144.396484375 0.421875 91.1455078125 28.7197265625 59.205078125 77.3681640625 c 0
 25.65234375 128.471679688 20.19921875 200.842773438 41.5751953125 293.432617188 c 2
 66.0107421875 399.272460938 l 2
 89.064453125 499.129882812 132.53125 575.51953125 197.248046875 626.997070312 c 0
 261.724609375 678.284179688 340.572265625 703.563476562 432.711914062 703.563476562 c 0
 516.875976562 703.563476562 580.090820312 682.81640625 621.314453125 640.626953125 c 0
 662.68359375 598.2890625 674.553710938 539.19140625 657.41015625 464.93359375 c 2
 653.903320312 449.743164062 l 1
 510.821289062 449.743164062 l 1
 513.422851562 461.013671875 l 2
 521.775390625 497.19140625 516.212890625 524.719726562 497.184570312 545.106445312 c 0
 478.12890625 565.5234375 447.22265625 576.163085938 403.299804688 576.163085938 c 0
 307.647460938 576.163085938 239.317382812 525.948242188 208.48828125 392.413085938 c 2
 186.08984375 295.393554688 l 2
EndSplineSet
EndChar

StartChar: Egrave
Encoding: 200 200 138
Width: 589
GlyphClass: 2
Flags: MW
HStem: -0.0771484 126.421<150 475.574> 285.104 126.42<215.839 491.433 186.652 520.619> 564.403 126.42<251.134 605.895 251.134 251.134>
VStem: 61.7109 143.079
LayerCount: 2
Fore
SplineSet
150 126.34375 m 1
 504.760742188 126.34375 l 1
 475.57421875 -0.0771484375 l 1
 -22.265625 -0.0771484375 l 1
 137.241210938 690.823242188 l 1
 635.081054688 690.823242188 l 1
 605.89453125 564.403320312 l 1
 251.133789062 564.403320312 l 1
 215.838867188 411.5234375 l 1
 520.619140625 411.5234375 l 1
 491.432617188 285.103515625 l 1
 186.65234375 285.103515625 l 1
 150 126.34375 l 1
229.801757812 887.803710938 m 1
 399.133789062 887.803710938 l 1
 496.510742188 742.763671875 l 1
 367.529296875 742.763671875 l 1
 229.801757812 887.803710938 l 1
EndSplineSet
EndChar

StartChar: Eacute
Encoding: 201 201 139
Width: 589
GlyphClass: 2
Flags: MW
HStem: -0.0771484 126.421<150 475.574> 285.104 126.42<215.839 491.433 186.652 520.619> 564.403 126.42<251.134 605.895 251.134 251.134>
VStem: 61.7109 143.079
LayerCount: 2
Fore
SplineSet
150 126.34375 m 1
 504.760742188 126.34375 l 1
 475.57421875 -0.0771484375 l 1
 -22.265625 -0.0771484375 l 1
 137.241210938 690.823242188 l 1
 635.081054688 690.823242188 l 1
 605.89453125 564.403320312 l 1
 251.133789062 564.403320312 l 1
 215.838867188 411.5234375 l 1
 520.619140625 411.5234375 l 1
 491.432617188 285.103515625 l 1
 186.65234375 285.103515625 l 1
 150 126.34375 l 1
458.260742188 887.803710938 m 1
 627.592773438 887.803710938 l 1
 422.89453125 742.763671875 l 1
 293.913085938 742.763671875 l 1
 458.260742188 887.803710938 l 1
EndSplineSet
EndChar

StartChar: Ecircumflex
Encoding: 202 202 140
Width: 589
GlyphClass: 2
Flags: MW
HStem: -0.0771484 126.421<150 475.574> 285.104 126.42<215.839 491.433 186.652 520.619> 564.403 126.42<251.134 605.895 251.134 251.134>
VStem: 61.7109 143.079
LayerCount: 2
Fore
SplineSet
150 126.34375 m 1
 504.760742188 126.34375 l 1
 475.57421875 -0.0771484375 l 1
 -22.265625 -0.0771484375 l 1
 137.241210938 690.823242188 l 1
 635.081054688 690.823242188 l 1
 605.89453125 564.403320312 l 1
 251.133789062 564.403320312 l 1
 215.838867188 411.5234375 l 1
 520.619140625 411.5234375 l 1
 491.432617188 285.103515625 l 1
 186.65234375 285.103515625 l 1
 150 126.34375 l 1
380.4453125 894.663085938 m 1
 476.197265625 894.663085938 l 1
 584.08203125 731.983398438 l 1
 462.580078125 731.983398438 l 1
 408.560546875 807.100585938 l 1
 318.918945312 731.983398438 l 1
 197.4453125 731.983398438 l 1
 380.4453125 894.663085938 l 1
EndSplineSet
EndChar

StartChar: Edieresis
Encoding: 203 203 141
Width: 589
GlyphClass: 2
Flags: MW
HStem: -0.0771484 126.421<150 475.574> 285.104 126.42<215.839 491.433 186.652 520.619> 564.403 126.42<251.134 605.895 251.134 251.134> 741.783 128.38<250.185 340.105 220.545 369.745 250.185 445.945 475.585 565.506>
VStem: 61.7109 143.079 133.25 119.561 358.65 119.561
LayerCount: 2
Fore
SplineSet
150 126.34375 m 1xfa
 504.760742188 126.34375 l 1
 475.57421875 -0.0771484375 l 1
 -22.265625 -0.0771484375 l 1
 137.241210938 690.823242188 l 1
 635.081054688 690.823242188 l 1
 605.89453125 564.403320312 l 1
 251.133789062 564.403320312 l 1
 215.838867188 411.5234375 l 1
 520.619140625 411.5234375 l 1
 491.432617188 285.103515625 l 1
 186.65234375 285.103515625 l 1
 150 126.34375 l 1xfa
250.184570312 870.163085938 m 1xf6
 369.745117188 870.163085938 l 1
 340.10546875 741.783203125 l 1
 220.544921875 741.783203125 l 1
 250.184570312 870.163085938 l 1xf6
475.584960938 870.163085938 m 1
 595.145507812 870.163085938 l 1
 565.505859375 741.783203125 l 1
 445.9453125 741.783203125 l 1
 475.584960938 870.163085938 l 1
EndSplineSet
EndChar

StartChar: Igrave
Encoding: 204 204 142
Width: 268
GlyphClass: 2
Flags: MW
HStem: -0.0771484 21G<-16.3857 126.694 -16.3857 -16.3857> 670.823 20G<143.121 286.201 286.201 286.201>
VStem: 67.5908 143.08
LayerCount: 2
Fore
SplineSet
143.12109375 690.823242188 m 1
 286.201171875 690.823242188 l 1
 126.694335938 -0.0771484375 l 1
 -16.3857421875 -0.0771484375 l 1
 143.12109375 690.823242188 l 1
62.2216796875 887.803710938 m 1
 231.553710938 887.803710938 l 1
 328.931640625 742.763671875 l 1
 199.94921875 742.763671875 l 1
 62.2216796875 887.803710938 l 1
EndSplineSet
EndChar

StartChar: Iacute
Encoding: 205 205 143
Width: 268
GlyphClass: 2
Flags: MW
HStem: -0.0771484 21G<-16.3857 126.694 -16.3857 -16.3857> 670.823 20G<143.121 286.201 286.201 286.201>
VStem: 67.5908 143.08
LayerCount: 2
Fore
SplineSet
143.12109375 690.823242188 m 1
 286.201171875 690.823242188 l 1
 126.694335938 -0.0771484375 l 1
 -16.3857421875 -0.0771484375 l 1
 143.12109375 690.823242188 l 1
290.681640625 887.803710938 m 1
 460.012695312 887.803710938 l 1
 255.314453125 742.763671875 l 1
 126.333007812 742.763671875 l 1
 290.681640625 887.803710938 l 1
EndSplineSet
EndChar

StartChar: Icircumflex
Encoding: 206 206 144
Width: 268
GlyphClass: 2
Flags: MW
HStem: -0.0771484 21G<-16.3857 126.694 -16.3857 -16.3857> 670.823 20G<143.121 286.201 286.201 286.201>
VStem: 67.5908 143.08
LayerCount: 2
Fore
SplineSet
143.12109375 690.823242188 m 1
 286.201171875 690.823242188 l 1
 126.694335938 -0.0771484375 l 1
 -16.3857421875 -0.0771484375 l 1
 143.12109375 690.823242188 l 1
212.865234375 894.663085938 m 1
 308.6171875 894.663085938 l 1
 416.501953125 731.983398438 l 1
 295 731.983398438 l 1
 240.98046875 807.100585938 l 1
 151.338867188 731.983398438 l 1
 29.865234375 731.983398438 l 1
 212.865234375 894.663085938 l 1
EndSplineSet
EndChar

StartChar: Idieresis
Encoding: 207 207 145
Width: 268
GlyphClass: 2
Flags: MW
HStem: -0.0771484 21G<-16.3857 126.694 -16.3857 -16.3857> 670.823 20G<143.121 286.201 286.201 286.201> 741.783 128.38<82.6055 172.525 52.9658 202.165 82.6055 278.365 308.005 397.926>
VStem: -34.3291 119.56 67.5908 143.08 191.07 119.561
LayerCount: 2
Fore
SplineSet
143.12109375 690.823242188 m 1xe8
 286.201171875 690.823242188 l 1
 126.694335938 -0.0771484375 l 1
 -16.3857421875 -0.0771484375 l 1
 143.12109375 690.823242188 l 1xe8
82.60546875 870.163085938 m 1xf0
 202.165039062 870.163085938 l 1
 172.525390625 741.783203125 l 1
 52.9658203125 741.783203125 l 1
 82.60546875 870.163085938 l 1xf0
308.004882812 870.163085938 m 1xe4
 427.565429688 870.163085938 l 1
 397.92578125 741.783203125 l 1
 278.365234375 741.783203125 l 1
 308.004882812 870.163085938 l 1xe4
EndSplineSet
EndChar

StartChar: Eth
Encoding: 208 208 146
Width: 694
GlyphClass: 2
Flags: MW
HStem: -0.0771484 126.423<181.359 275.164> 288.045 127.4<248.104 372.552 218.691 401.964> 564.405 126.418<282.494 409.404 282.494 282.494>
VStem: 93.0703 143.079 511.529 143.08
LayerCount: 2
Fore
SplineSet
660.115234375 387.514648438 m 2
 640.883789062 304.213867188 l 2
 617.392578125 202.4609375 574.192382812 125.559570312 510.264648438 75.0009765625 c 0
 446.626953125 24.6708984375 367.909179688 -0.0771484375 275.1640625 -0.0771484375 c 2
 9.09375 -0.0771484375 l 1
 75.611328125 288.04296875 l 1
 12.8916015625 288.04296875 l 1
 42.3046875 415.443359375 l 1
 105.024414062 415.443359375 l 1
 168.600585938 690.823242188 l 1
 439.5703125 690.823242188 l 2
 531.01953125 690.823242188 597.225585938 666.228515625 636.716796875 616.202148438 c 0
 676.383789062 565.951171875 683.599609375 489.237304688 660.115234375 387.514648438 c 2
308.26953125 126.345703125 m 2
 409.427734375 126.345703125 469.170898438 180.19140625 497.803710938 304.213867188 c 2
 515.451171875 380.654296875 l 2
 544.625976562 507.022460938 512.806640625 564.405273438 409.404296875 564.405273438 c 2
 282.494140625 564.405273438 l 1
 248.103515625 415.4453125 l 1
 401.963867188 415.4453125 l 1
 372.551757812 288.044921875 l 1
 218.69140625 288.044921875 l 1
 181.359375 126.345703125 l 1
 308.26953125 126.345703125 l 2
EndSplineSet
EndChar

StartChar: Ntilde
Encoding: 209 209 147
Width: 699
GlyphClass: 2
Flags: MW
HStem: -0.0771484 21G<-22.2656 120.813 -22.2656 -22.2656 422.252 561.813 422.252 422.252> 670.823 20G<137.241 276.808 276.808 276.808 578.241 721.32 721.32 721.32> 737.863 106.819<513.679 528.722> 775.104 106.817<385.69 385.792>
VStem: 61.7109 143.079 502.711 143.079
LayerCount: 2
Fore
SplineSet
721.3203125 690.823242188 m 1xcc
 561.813476562 -0.0771484375 l 1
 422.251953125 -0.0771484375 l 1
 220.51171875 431.763671875 l 1
 120.813476562 -0.0771484375 l 1
 -22.265625 -0.0771484375 l 1
 137.241210938 690.823242188 l 1
 276.807617188 690.823242188 l 1
 478.326171875 258.044921875 l 1
 578.241210938 690.823242188 l 1
 721.3203125 690.823242188 l 1xcc
407.249023438 881.921875 m 0xdc
 473.04296875 881.921875 488.56640625 844.682617188 538.791992188 844.682617188 c 0
 568.41796875 844.682617188 587.94140625 857.294921875 639.325195312 891.7421875 c 1
 614.275390625 783.23828125 l 1
 579.73828125 756.127929688 550.172851562 737.86328125 507.270507812 737.86328125 c 0xec
 480.021484375 737.86328125 469.20703125 741.403320312 417.653320312 765.3984375 c 0
 409.005859375 769.481445312 394.875 775.104492188 376.708984375 775.104492188 c 0
 345.946289062 775.104492188 323.338867188 760.939453125 274.53515625 729.432617188 c 1
 299.264648438 836.547851562 l 1
 335.385742188 864.892578125 364.130859375 881.921875 407.249023438 881.921875 c 0xdc
EndSplineSet
EndChar

StartChar: Ograve
Encoding: 210 210 148
Width: 673
GlyphClass: 2
Flags: MW
HStem: -10.8564 130.339<246.88 301.472> 576.162 127.402<381.063 430.345>
VStem: 57.7891 144.06 490.949 143.081
LayerCount: 2
Fore
SplineSet
41.5751953125 293.43359375 m 2
 66.009765625 399.2734375 l 2
 89.056640625 499.1015625 131.999023438 575.458984375 195.713867188 626.947265625 c 0
 259.186523438 678.241210938 336.274414062 703.564453125 425.8515625 703.564453125 c 0
 514.1484375 703.564453125 578.729492188 678.217773438 618.17578125 626.930664062 c 0
 657.78125 575.4375 665.295898438 499.092773438 642.250976562 399.2734375 c 2
 617.81640625 293.43359375 l 2
 594.912109375 194.224609375 551.6484375 118.0234375 487.224609375 66.2333984375 c 0
 423.061523438 14.65234375 345.947265625 -10.8564453125 256.99609375 -10.8564453125 c 0
 168.063476562 -10.8564453125 103.452148438 14.4775390625 64.64453125 65.8115234375 c 0
 25.712890625 117.311523438 18.5341796875 193.6328125 41.5751953125 293.43359375 c 2
291.005859375 119.482421875 m 0
 361.279296875 119.482421875 441.40625 149.073242188 475.1875 295.392578125 c 2
 497.5859375 392.412109375 l 2
 533.411132812 547.588867188 464.250976562 576.162109375 396.438476562 576.162109375 c 0
 311.194335938 576.162109375 241.083984375 533.614257812 208.485351562 392.412109375 c 2
 186.086914062 295.392578125 l 2
 155.584960938 163.276367188 202.754882812 119.482421875 291.005859375 119.482421875 c 0
439.3125 887.802734375 m 1
 536.690429688 742.762695312 l 1
 407.708007812 742.762695312 l 1
 269.98046875 887.802734375 l 1
 439.3125 887.802734375 l 1
EndSplineSet
EndChar

StartChar: Oacute
Encoding: 211 211 149
Width: 673
GlyphClass: 2
Flags: MW
HStem: -10.8564 130.339<246.88 301.472> 576.162 127.402<381.063 430.345>
VStem: 57.7891 144.06 490.949 143.081
LayerCount: 2
Fore
SplineSet
41.5751953125 293.43359375 m 2
 66.009765625 399.2734375 l 2
 89.056640625 499.1015625 131.999023438 575.458984375 195.713867188 626.947265625 c 0
 259.186523438 678.241210938 336.274414062 703.564453125 425.8515625 703.564453125 c 0
 514.1484375 703.564453125 578.729492188 678.217773438 618.17578125 626.930664062 c 0
 657.78125 575.4375 665.295898438 499.092773438 642.250976562 399.2734375 c 2
 617.81640625 293.43359375 l 2
 594.912109375 194.224609375 551.6484375 118.0234375 487.224609375 66.2333984375 c 0
 423.061523438 14.65234375 345.947265625 -10.8564453125 256.99609375 -10.8564453125 c 0
 168.063476562 -10.8564453125 103.452148438 14.4775390625 64.64453125 65.8115234375 c 0
 25.712890625 117.311523438 18.5341796875 193.6328125 41.5751953125 293.43359375 c 2
291.005859375 119.482421875 m 0
 361.279296875 119.482421875 441.40625 149.073242188 475.1875 295.392578125 c 2
 497.5859375 392.412109375 l 2
 533.411132812 547.588867188 464.250976562 576.162109375 396.438476562 576.162109375 c 0
 311.194335938 576.162109375 241.083984375 533.614257812 208.485351562 392.412109375 c 2
 186.086914062 295.392578125 l 2
 155.584960938 163.276367188 202.754882812 119.482421875 291.005859375 119.482421875 c 0
457.280273438 887.802734375 m 1
 626.611328125 887.802734375 l 1
 421.9140625 742.762695312 l 1
 292.931640625 742.762695312 l 1
 457.280273438 887.802734375 l 1
EndSplineSet
EndChar

StartChar: Ocircumflex
Encoding: 212 212 150
Width: 673
GlyphClass: 2
Flags: MW
HStem: -10.8564 130.339<246.88 301.472> 576.162 127.402<381.063 430.345>
VStem: 57.7891 144.06 490.949 143.081
LayerCount: 2
Fore
SplineSet
41.5751953125 293.43359375 m 2
 66.009765625 399.2734375 l 2
 89.056640625 499.1015625 131.999023438 575.458984375 195.713867188 626.947265625 c 0
 259.186523438 678.241210938 336.274414062 703.564453125 425.8515625 703.564453125 c 0
 514.1484375 703.564453125 578.729492188 678.217773438 618.17578125 626.930664062 c 0
 657.78125 575.4375 665.295898438 499.092773438 642.250976562 399.2734375 c 2
 617.81640625 293.43359375 l 2
 594.912109375 194.224609375 551.6484375 118.0234375 487.224609375 66.2333984375 c 0
 423.061523438 14.65234375 345.947265625 -10.8564453125 256.99609375 -10.8564453125 c 0
 168.063476562 -10.8564453125 103.452148438 14.4775390625 64.64453125 65.8115234375 c 0
 25.712890625 117.311523438 18.5341796875 193.6328125 41.5751953125 293.43359375 c 2
291.005859375 119.482421875 m 0
 361.279296875 119.482421875 441.40625 149.073242188 475.1875 295.392578125 c 2
 497.5859375 392.412109375 l 2
 533.411132812 547.588867188 464.250976562 576.162109375 396.438476562 576.162109375 c 0
 311.194335938 576.162109375 241.083984375 533.614257812 208.485351562 392.412109375 c 2
 186.086914062 295.392578125 l 2
 155.584960938 163.276367188 202.754882812 119.482421875 291.005859375 119.482421875 c 0
420.623046875 894.662109375 m 1
 516.375976562 894.662109375 l 1
 624.260742188 731.982421875 l 1
 502.7578125 731.982421875 l 1
 448.740234375 807.099609375 l 1
 359.096679688 731.982421875 l 1
 237.623046875 731.982421875 l 1
 420.623046875 894.662109375 l 1
EndSplineSet
EndChar

StartChar: Otilde
Encoding: 213 213 151
Width: 673
GlyphClass: 2
Flags: MW
HStem: -10.8564 130.339<246.88 301.472> 576.162 127.402<381.063 430.345> 737.862 106.819<505.838 520.879> 775.104 106.818<377.849 377.951>
VStem: 57.7891 144.06 490.949 143.081
LayerCount: 2
Fore
SplineSet
41.5751953125 293.43359375 m 2xcc
 66.009765625 399.2734375 l 2
 89.056640625 499.1015625 131.999023438 575.458984375 195.713867188 626.947265625 c 0
 259.186523438 678.241210938 336.274414062 703.564453125 425.8515625 703.564453125 c 0
 514.1484375 703.564453125 578.729492188 678.217773438 618.17578125 626.930664062 c 0
 657.78125 575.4375 665.295898438 499.092773438 642.250976562 399.2734375 c 2
 617.81640625 293.43359375 l 2
 594.912109375 194.224609375 551.6484375 118.0234375 487.224609375 66.2333984375 c 0
 423.061523438 14.65234375 345.947265625 -10.8564453125 256.99609375 -10.8564453125 c 0
 168.063476562 -10.8564453125 103.452148438 14.4775390625 64.64453125 65.8115234375 c 0
 25.712890625 117.311523438 18.5341796875 193.6328125 41.5751953125 293.43359375 c 2xcc
291.005859375 119.482421875 m 0
 361.279296875 119.482421875 441.40625 149.073242188 475.1875 295.392578125 c 2
 497.5859375 392.412109375 l 2
 533.411132812 547.588867188 464.250976562 576.162109375 396.438476562 576.162109375 c 0
 311.194335938 576.162109375 241.083984375 533.614257812 208.485351562 392.412109375 c 2
 186.086914062 295.392578125 l 2
 155.584960938 163.276367188 202.754882812 119.482421875 291.005859375 119.482421875 c 0
399.408203125 881.921875 m 0xdc
 465.202148438 881.921875 480.725585938 844.681640625 530.951171875 844.681640625 c 0
 560.577148438 844.681640625 580.099609375 857.293945312 631.484375 891.741210938 c 1
 606.434570312 783.237304688 l 1
 571.896484375 756.126953125 542.331054688 737.862304688 499.427734375 737.862304688 c 0xec
 472.1796875 737.862304688 461.365234375 741.40234375 409.8125 765.397460938 c 0
 401.1640625 769.48046875 387.034179688 775.103515625 368.868164062 775.103515625 c 0
 338.10546875 775.103515625 315.498046875 760.938476562 266.692382812 729.431640625 c 1
 291.421875 836.546875 l 1
 327.543945312 864.891601562 356.290039062 881.921875 399.408203125 881.921875 c 0xdc
EndSplineSet
EndChar

StartChar: Odieresis
Encoding: 214 214 152
Width: 673
GlyphClass: 2
Flags: MW
HStem: -10.8564 130.339<246.88 301.472> 576.162 127.402<381.063 430.345> 741.782 128.38<290.363 380.284 260.725 409.923 290.363 486.124 515.763 605.685>
VStem: 57.7891 144.06 173.43 119.56 398.829 119.561 490.949 143.081
LayerCount: 2
Fore
SplineSet
41.5751953125 293.43359375 m 2xf2
 66.009765625 399.2734375 l 2
 89.056640625 499.1015625 131.999023438 575.458984375 195.713867188 626.947265625 c 0
 259.186523438 678.241210938 336.274414062 703.564453125 425.8515625 703.564453125 c 0
 514.1484375 703.564453125 578.729492188 678.217773438 618.17578125 626.930664062 c 0
 657.78125 575.4375 665.295898438 499.092773438 642.250976562 399.2734375 c 2
 617.81640625 293.43359375 l 2
 594.912109375 194.224609375 551.6484375 118.0234375 487.224609375 66.2333984375 c 0
 423.061523438 14.65234375 345.947265625 -10.8564453125 256.99609375 -10.8564453125 c 0
 168.063476562 -10.8564453125 103.452148438 14.4775390625 64.64453125 65.8115234375 c 0
 25.712890625 117.311523438 18.5341796875 193.6328125 41.5751953125 293.43359375 c 2xf2
291.005859375 119.482421875 m 0
 361.279296875 119.482421875 441.40625 149.073242188 475.1875 295.392578125 c 2
 497.5859375 392.412109375 l 2
 533.411132812 547.588867188 464.250976562 576.162109375 396.438476562 576.162109375 c 0
 311.194335938 576.162109375 241.083984375 533.614257812 208.485351562 392.412109375 c 2
 186.086914062 295.392578125 l 2
 155.584960938 163.276367188 202.754882812 119.482421875 291.005859375 119.482421875 c 0
290.36328125 870.162109375 m 1xe8
 409.922851562 870.162109375 l 1
 380.284179688 741.782226562 l 1
 260.724609375 741.782226562 l 1
 290.36328125 870.162109375 l 1xe8
515.762695312 870.162109375 m 1xe4
 635.323242188 870.162109375 l 1
 605.684570312 741.782226562 l 1
 486.124023438 741.782226562 l 1
 515.762695312 870.162109375 l 1xe4
EndSplineSet
EndChar

StartChar: multiply
Encoding: 215 215 153
Width: 532
GlyphClass: 2
Flags: W
LayerCount: 2
Fore
SplineSet
231.485351562 192.859375 m 1
 86.7197265625 75.2470703125 l 1
 21.751953125 161.166992188 l 1
 165.280273438 277.775390625 l 1
 75.8095703125 395.375 l 1
 180.223632812 480.204101562 l 1
 270.900390625 363.583984375 l 1
 414.512695312 480.259765625 l 1
 479.481445312 394.33984375 l 1
 335.977539062 277.752929688 l 1
 425.649414062 161.166992188 l 1
 320.98046875 75.224609375 l 1
 231.485351562 192.859375 l 1
EndSplineSet
EndChar

StartChar: Oslash
Encoding: 216 216 154
Width: 673
GlyphClass: 2
Flags: MW
HStem: -10.8574 130.339<272.852 302.449> 576.161 127.402<382.043 414.928>
VStem: 58.7695 144.06 491.931 143.08
LayerCount: 2
Fore
SplineSet
257.973632812 -10.857421875 m 0
 193.930664062 -10.857421875 142.640625 2.1767578125 104.598632812 28.654296875 c 1
 60.9091796875 -19.677734375 l 1
 -37.056640625 -19.677734375 l 1
 55.0224609375 83.3037109375 l 1
 26.171875 135.544921875 22.3359375 205.853515625 42.5546875 293.432617188 c 2
 66.990234375 399.272460938 l 2
 90.037109375 499.1015625 132.979492188 575.458007812 196.693359375 626.946289062 c 0
 260.166015625 678.240234375 337.254882812 703.563476562 426.831054688 703.563476562 c 0
 488.380859375 703.563476562 538.5078125 691.422851562 576.802734375 666.811523438 c 1
 620.655273438 715.323242188 l 1
 716.66015625 715.323242188 l 1
 627.375 615.455078125 l 1
 659.415039062 563.05859375 664.333984375 490.678710938 643.231445312 399.2734375 c 2
 618.795898438 293.432617188 l 2
 595.891601562 194.223632812 552.627929688 118.022460938 488.204101562 66.232421875 c 0
 424.040039062 14.6513671875 346.924804688 -10.857421875 257.973632812 -10.857421875 c 0
397.418945312 576.161132812 m 0
 312.174804688 576.161132812 242.064453125 533.61328125 209.465820312 392.411132812 c 2
 187.06640625 295.391601562 l 2
 180.391601562 266.479492188 177.333007812 241.485351562 177.755859375 220.442382812 c 1
 476.288085938 553.3984375 l 1
 458.46875 568.395507812 432.436523438 576.161132812 397.418945312 576.161132812 c 0
291.986328125 119.481445312 m 0
 362.259765625 119.481445312 442.387695312 149.072265625 476.16796875 295.391601562 c 2
 498.567382812 392.411132812 l 2
 506.423828125 426.44140625 509.416992188 456.171875 507.701171875 481.619140625 c 1
 207.567382812 144.114257812 l 1
 225.870117188 127.91796875 253.716796875 119.481445312 291.986328125 119.481445312 c 0
EndSplineSet
EndChar

StartChar: Ugrave
Encoding: 217 217 155
Width: 676
GlyphClass: 2
Flags: MW
HStem: -5.95703 126.418<228.244 304.17 228.244 341.084> 670.822 20G<137.241 280.321 280.321 280.321 555.701 698.78 698.78 698.78>
VStem: 61.7109 143.08 480.171 143.079
LayerCount: 2
Fore
SplineSet
256.166015625 -5.95703125 m 0
 88.275390625 -5.95703125 -0.7724609375 93.01953125 35.541015625 250.3125 c 2
 137.241210938 690.822265625 l 1
 280.321289062 690.822265625 l 1
 179.526367188 254.232421875 l 2
 165.91796875 195.2890625 171.135742188 120.4609375 285.3515625 120.4609375 c 0
 322.98828125 120.4609375 425.7890625 128.11328125 454.90625 254.232421875 c 2
 555.701171875 690.822265625 l 1
 698.780273438 690.822265625 l 1
 597.080078125 250.3125 l 2
 560.708984375 92.771484375 426.002929688 -5.95703125 256.166015625 -5.95703125 c 0
435.39453125 887.803710938 m 1
 532.772460938 742.763671875 l 1
 403.790039062 742.763671875 l 1
 266.0625 887.803710938 l 1
 435.39453125 887.803710938 l 1
EndSplineSet
EndChar

StartChar: Uacute
Encoding: 218 218 156
Width: 676
GlyphClass: 2
Flags: MW
HStem: -5.95703 126.418<228.244 304.17 228.244 341.084> 670.822 20G<137.241 280.321 280.321 280.321 555.701 698.78 698.78 698.78>
VStem: 61.7109 143.08 480.171 143.079
LayerCount: 2
Fore
SplineSet
256.166015625 -5.95703125 m 0
 88.275390625 -5.95703125 -0.7724609375 93.01953125 35.541015625 250.3125 c 2
 137.241210938 690.822265625 l 1
 280.321289062 690.822265625 l 1
 179.526367188 254.232421875 l 2
 165.91796875 195.2890625 171.135742188 120.4609375 285.3515625 120.4609375 c 0
 322.98828125 120.4609375 425.7890625 128.11328125 454.90625 254.232421875 c 2
 555.701171875 690.822265625 l 1
 698.780273438 690.822265625 l 1
 597.080078125 250.3125 l 2
 560.708984375 92.771484375 426.002929688 -5.95703125 256.166015625 -5.95703125 c 0
494.522460938 887.803710938 m 1
 663.853515625 887.803710938 l 1
 459.155273438 742.763671875 l 1
 330.173828125 742.763671875 l 1
 494.522460938 887.803710938 l 1
EndSplineSet
EndChar

StartChar: Ucircumflex
Encoding: 219 219 157
Width: 676
GlyphClass: 2
Flags: MW
HStem: -5.95703 126.418<228.244 304.17 228.244 341.084> 670.822 20G<137.241 280.321 280.321 280.321 555.701 698.78 698.78 698.78>
VStem: 61.7109 143.08 480.171 143.079
LayerCount: 2
Fore
SplineSet
256.166015625 -5.95703125 m 0
 88.275390625 -5.95703125 -0.7724609375 93.01953125 35.541015625 250.3125 c 2
 137.241210938 690.822265625 l 1
 280.321289062 690.822265625 l 1
 179.526367188 254.232421875 l 2
 165.91796875 195.2890625 171.135742188 120.4609375 285.3515625 120.4609375 c 0
 322.98828125 120.4609375 425.7890625 128.11328125 454.90625 254.232421875 c 2
 555.701171875 690.822265625 l 1
 698.780273438 690.822265625 l 1
 597.080078125 250.3125 l 2
 560.708984375 92.771484375 426.002929688 -5.95703125 256.166015625 -5.95703125 c 0
416.706054688 894.663085938 m 1
 512.458007812 894.663085938 l 1
 620.342773438 731.983398438 l 1
 498.840820312 731.983398438 l 1
 444.821289062 807.100585938 l 1
 355.1796875 731.983398438 l 1
 233.706054688 731.983398438 l 1
 416.706054688 894.663085938 l 1
EndSplineSet
EndChar

StartChar: Udieresis
Encoding: 220 220 158
Width: 676
GlyphClass: 2
Flags: MW
HStem: -5.95703 126.418<228.244 304.17 228.244 341.084> 670.822 20G<137.241 280.321 280.321 280.321 555.701 698.78 698.78 698.78> 741.783 128.38<286.446 376.366 256.807 406.006 286.446 482.206 511.846 601.767>
VStem: 61.7109 143.08 169.512 119.56 394.911 119.561 480.171 143.079
LayerCount: 2
Fore
SplineSet
256.166015625 -5.95703125 m 0xf2
 88.275390625 -5.95703125 -0.7724609375 93.01953125 35.541015625 250.3125 c 2
 137.241210938 690.822265625 l 1
 280.321289062 690.822265625 l 1
 179.526367188 254.232421875 l 2
 165.91796875 195.2890625 171.135742188 120.4609375 285.3515625 120.4609375 c 0
 322.98828125 120.4609375 425.7890625 128.11328125 454.90625 254.232421875 c 2
 555.701171875 690.822265625 l 1
 698.780273438 690.822265625 l 1
 597.080078125 250.3125 l 2
 560.708984375 92.771484375 426.002929688 -5.95703125 256.166015625 -5.95703125 c 0xf2
286.446289062 870.163085938 m 1xe8
 406.005859375 870.163085938 l 1
 376.366210938 741.783203125 l 1
 256.806640625 741.783203125 l 1
 286.446289062 870.163085938 l 1xe8
511.845703125 870.163085938 m 1xe4
 631.40625 870.163085938 l 1
 601.766601562 741.783203125 l 1
 482.206054688 741.783203125 l 1
 511.845703125 870.163085938 l 1xe4
EndSplineSet
EndChar

StartChar: Yacute
Encoding: 221 221 159
Width: 610
GlyphClass: 2
Flags: MW
HStem: -0.0771484 21G<154.134 297.214 154.134 154.134> 670.823 20G<77.9443 240.17 240.17 240.17 529.211 691.426 691.426 691.426>
VStem: 238.11 143.08
LayerCount: 2
Fore
SplineSet
529.2109375 690.823242188 m 1
 691.42578125 690.823242188 l 1
 362.9375 284.602539062 l 1
 297.213867188 -0.0771484375 l 1
 154.133789062 -0.0771484375 l 1
 219.629882812 283.619140625 l 1
 77.9443359375 690.823242188 l 1
 240.169921875 690.823242188 l 1
 321.252929688 416.043945312 l 1
 529.2109375 690.823242188 l 1
461.201171875 887.803710938 m 1
 630.533203125 887.803710938 l 1
 425.834960938 742.763671875 l 1
 296.852539062 742.763671875 l 1
 461.201171875 887.803710938 l 1
EndSplineSet
EndChar

StartChar: Thorn
Encoding: 222 222 160
Width: 629
GlyphClass: 2
Flags: MW
HStem: -0.0771484 21G<-22.2656 120.813 -22.2656 -22.2656> 145.943 126.42<183.711 305.936 154.525 344.921> 452.684 126.42<254.527 386.552 225.342 410.838> 670.823 20G<137.241 280.32 280.32 280.32>
VStem: 61.7109 143.079 467.431 143.08
LayerCount: 2
Fore
SplineSet
609.681640625 360.073242188 m 0
 594.215820312 293.084960938 559.764648438 239.884765625 506.411132812 202.073242188 c 0
 453.1171875 164.3046875 386.060546875 145.943359375 305.935546875 145.943359375 c 2
 154.525390625 145.943359375 l 1
 120.813476562 -0.0771484375 l 1
 -22.265625 -0.0771484375 l 1
 137.241210938 690.823242188 l 1
 280.3203125 690.823242188 l 1
 254.52734375 579.103515625 l 1
 410.837890625 579.103515625 l 2
 487.762695312 579.103515625 544.6953125 560.685546875 580.497070312 522.97265625 c 0
 616.465820312 485.083007812 625.875976562 430.21875 609.681640625 360.073242188 c 0
344.920898438 272.36328125 m 2
 428.1328125 272.36328125 456.34375 315.642578125 466.828125 361.053710938 c 0
 471.98046875 383.375 486.240234375 452.68359375 386.551757812 452.68359375 c 2
 225.341796875 452.68359375 l 1
 183.7109375 272.36328125 l 1
 344.920898438 272.36328125 l 2
EndSplineSet
EndChar

StartChar: germandbls
Encoding: 223 223 161
Width: 579
GlyphClass: 2
Flags: MW
HStem: -3.99707 116.62<219.353 244.858 192.429 261.982> 354.684 115.64<301.935 308.067 275.237 343.585> 582.044 118.58<329.245 392.67>
VStem: 56.8105 136.22 394.91 135.24 404.711 135.239
LayerCount: 2
Fore
SplineSet
509.708007812 232.673828125 m 0xf4
 470.052734375 60.9052734375 399.086914062 -3.9970703125 244.858398438 -3.9970703125 c 2
 192.428710938 -3.9970703125 l 1
 219.352539062 112.623046875 l 1
 261.982421875 112.623046875 l 2
 311.750976562 112.623046875 334.862304688 128.02734375 350.2890625 158.659179688 c 0
 358.80859375 175.575195312 367.013671875 200.381835938 374.46875 232.671875 c 0xf4
 392.635742188 311.36328125 381.62109375 331.771484375 364.893554688 342.924804688 c 0
 353.626953125 350.436523438 334.791015625 354.68359375 308.067382812 354.68359375 c 2
 275.237304688 354.68359375 l 1
 301.934570312 470.323242188 l 1
 343.584960938 470.323242188 l 2
 413.125 470.323242188 427.221679688 503.623046875 432.090820312 524.712890625 c 0
 437.735351562 549.16015625 436.54296875 582.043945312 348.797851562 582.043945312 c 0
 309.692382812 582.043945312 281.049804688 574.788085938 262.598632812 562.133789062 c 0
 244.447265625 549.685546875 231.071289062 528.439453125 223.650390625 496.293945312 c 2
 109.053710938 -0.076171875 l 1
 -27.166015625 -0.076171875 l 1
 84.94140625 485.514648438 l 2
 125.765625 662.344726562 251.856445312 700.624023438 375.193359375 700.624023438 c 0
 448.59375 700.624023438 502.661132812 686.653320312 536.618164062 657.609375 c 0
 570.745117188 628.41796875 581.430664062 585.78515625 568.915039062 531.57421875 c 0xf8
 554.376953125 468.6015625 519.8515625 436.673828125 482.791015625 416.959960938 c 1
 523.990234375 388.169921875 535.20703125 343.119140625 509.708007812 232.673828125 c 0xf4
EndSplineSet
EndChar

StartChar: agrave
Encoding: 224 224 162
Width: 556
GlyphClass: 2
Flags: MW
HStem: -5.95703 111.72<160.012 182.257> 217.482 98.001<190.513 361.246 232.376 338.62> 422.304 107.8<280.433 327.844>
VStem: 40.1504 132.299 372.369 135.24
LayerCount: 2
Fore
SplineSet
366.563476562 338.513671875 m 2
 375.888671875 378.907226562 370.229492188 422.303710938 285.458984375 422.303710938 c 0
 253.547851562 422.303710938 230.241210938 416.365234375 215.29296875 406.271484375 c 0
 199.743164062 395.770507812 190.655273438 383.087890625 186.92578125 366.93359375 c 2
 184.549804688 356.643554688 l 1
 54.208984375 356.643554688 l 1
 56.5849609375 366.93359375 l 2
 68.232421875 417.384765625 97.927734375 457.965820312 144.68359375 487.053710938 c 0
 191.234375 516.014648438 247.581054688 530.103515625 313.28515625 530.103515625 c 0
 386.852539062 530.103515625 440.609375 513.559570312 473.390625 479.3828125 c 0
 506.267578125 445.104492188 514.987304688 395.622070312 500.4453125 332.6328125 c 2
 423.6328125 -0.078125 l 1
 291.333007812 -0.078125 l 1
 300.159179688 38.15234375 l 1
 258.505859375 9.689453125 215.16796875 -5.95703125 149.346679688 -5.95703125 c 0
 86.9091796875 -5.95703125 41.6396484375 7.9501953125 14.8046875 36.9951171875 c 0
 -12.0244140625 66.03515625 -19.037109375 107.294921875 -7.060546875 159.172851562 c 0
 6.734375 218.926757812 56.2705078125 315.483398438 232.375976562 315.483398438 c 2
 361.24609375 315.483398438 l 1
 366.563476562 338.513671875 l 2
201.59765625 105.762695312 m 0
 297.563476562 105.762695312 323.864257812 153.56640625 333.077148438 193.47265625 c 2
 338.620117188 217.482421875 l 1
 232.290039062 217.482421875 l 2
 148.736328125 217.482421875 131.78125 187.513671875 125.916992188 162.112304688 c 0
 121.924804688 144.8203125 118.42578125 105.762695312 201.59765625 105.762695312 c 0
158.998046875 721.202148438 m 1
 328.329101562 721.202148438 l 1
 425.70703125 576.162109375 l 1
 296.725585938 576.162109375 l 1
 158.998046875 721.202148438 l 1
EndSplineSet
EndChar

StartChar: aacute
Encoding: 225 225 163
Width: 556
GlyphClass: 2
Flags: MW
HStem: -5.95703 111.72<160.012 182.257> 217.482 98.001<190.513 361.246 232.376 338.62> 422.304 107.8<280.433 327.844>
VStem: 40.1504 132.299 372.369 135.24
LayerCount: 2
Fore
SplineSet
366.563476562 338.513671875 m 2
 375.888671875 378.907226562 370.229492188 422.303710938 285.458984375 422.303710938 c 0
 253.547851562 422.303710938 230.241210938 416.365234375 215.29296875 406.271484375 c 0
 199.743164062 395.770507812 190.655273438 383.087890625 186.92578125 366.93359375 c 2
 184.549804688 356.643554688 l 1
 54.208984375 356.643554688 l 1
 56.5849609375 366.93359375 l 2
 68.232421875 417.384765625 97.927734375 457.965820312 144.68359375 487.053710938 c 0
 191.234375 516.014648438 247.581054688 530.103515625 313.28515625 530.103515625 c 0
 386.852539062 530.103515625 440.609375 513.559570312 473.390625 479.3828125 c 0
 506.267578125 445.104492188 514.987304688 395.622070312 500.4453125 332.6328125 c 2
 423.6328125 -0.078125 l 1
 291.333007812 -0.078125 l 1
 300.159179688 38.15234375 l 1
 258.505859375 9.689453125 215.16796875 -5.95703125 149.346679688 -5.95703125 c 0
 86.9091796875 -5.95703125 41.6396484375 7.9501953125 14.8046875 36.9951171875 c 0
 -12.0244140625 66.03515625 -19.037109375 107.294921875 -7.060546875 159.172851562 c 0
 6.734375 218.926757812 56.2705078125 315.483398438 232.375976562 315.483398438 c 2
 361.24609375 315.483398438 l 1
 366.563476562 338.513671875 l 2
201.59765625 105.762695312 m 0
 297.563476562 105.762695312 323.864257812 153.56640625 333.077148438 193.47265625 c 2
 338.620117188 217.482421875 l 1
 232.290039062 217.482421875 l 2
 148.736328125 217.482421875 131.78125 187.513671875 125.916992188 162.112304688 c 0
 121.924804688 144.8203125 118.42578125 105.762695312 201.59765625 105.762695312 c 0
361.977539062 721.202148438 m 1
 531.30859375 721.202148438 l 1
 326.611328125 576.162109375 l 1
 197.62890625 576.162109375 l 1
 361.977539062 721.202148438 l 1
EndSplineSet
EndChar

StartChar: acircumflex
Encoding: 226 226 164
Width: 556
GlyphClass: 2
Flags: MW
HStem: -5.95703 111.72<160.012 182.257> 217.482 98.001<190.513 361.246 232.376 338.62> 422.304 107.8<280.433 327.844>
VStem: 40.1504 132.299 372.369 135.24
LayerCount: 2
Fore
SplineSet
366.563476562 338.513671875 m 2
 375.888671875 378.907226562 370.229492188 422.303710938 285.458984375 422.303710938 c 0
 253.547851562 422.303710938 230.241210938 416.365234375 215.29296875 406.271484375 c 0
 199.743164062 395.770507812 190.655273438 383.087890625 186.92578125 366.93359375 c 2
 184.549804688 356.643554688 l 1
 54.208984375 356.643554688 l 1
 56.5849609375 366.93359375 l 2
 68.232421875 417.384765625 97.927734375 457.965820312 144.68359375 487.053710938 c 0
 191.234375 516.014648438 247.581054688 530.103515625 313.28515625 530.103515625 c 0
 386.852539062 530.103515625 440.609375 513.559570312 473.390625 479.3828125 c 0
 506.267578125 445.104492188 514.987304688 395.622070312 500.4453125 332.6328125 c 2
 423.6328125 -0.078125 l 1
 291.333007812 -0.078125 l 1
 300.159179688 38.15234375 l 1
 258.505859375 9.689453125 215.16796875 -5.95703125 149.346679688 -5.95703125 c 0
 86.9091796875 -5.95703125 41.6396484375 7.9501953125 14.8046875 36.9951171875 c 0
 -12.0244140625 66.03515625 -19.037109375 107.294921875 -7.060546875 159.172851562 c 0
 6.734375 218.926757812 56.2705078125 315.483398438 232.375976562 315.483398438 c 2
 361.24609375 315.483398438 l 1
 366.563476562 338.513671875 l 2
201.59765625 105.762695312 m 0
 297.563476562 105.762695312 323.864257812 153.56640625 333.077148438 193.47265625 c 2
 338.620117188 217.482421875 l 1
 232.290039062 217.482421875 l 2
 148.736328125 217.482421875 131.78125 187.513671875 125.916992188 162.112304688 c 0
 121.924804688 144.8203125 118.42578125 105.762695312 201.59765625 105.762695312 c 0
309.641601562 728.0625 m 1
 405.393554688 728.0625 l 1
 513.278320312 565.3828125 l 1
 391.776367188 565.3828125 l 1
 337.756835938 640.499023438 l 1
 248.115234375 565.3828125 l 1
 126.641601562 565.3828125 l 1
 309.641601562 728.0625 l 1
EndSplineSet
EndChar

StartChar: atilde
Encoding: 227 227 165
Width: 556
GlyphClass: 2
Flags: MW
HStem: -5.95703 111.72<160.012 182.257> 217.482 98.001<190.513 361.246 232.376 338.62> 422.304 107.8<280.433 327.844> 571.263 106.819<394.855 409.899> 608.503 106.819<266.866 266.871>
VStem: 40.1504 132.299 372.369 135.24
LayerCount: 2
Fore
SplineSet
366.563476562 338.513671875 m 2xe6
 375.888671875 378.907226562 370.229492188 422.303710938 285.458984375 422.303710938 c 0
 253.547851562 422.303710938 230.241210938 416.365234375 215.29296875 406.271484375 c 0
 199.743164062 395.770507812 190.655273438 383.087890625 186.92578125 366.93359375 c 2
 184.549804688 356.643554688 l 1
 54.208984375 356.643554688 l 1
 56.5849609375 366.93359375 l 2
 68.232421875 417.384765625 97.927734375 457.965820312 144.68359375 487.053710938 c 0
 191.234375 516.014648438 247.581054688 530.103515625 313.28515625 530.103515625 c 0
 386.852539062 530.103515625 440.609375 513.559570312 473.390625 479.3828125 c 0
 506.267578125 445.104492188 514.987304688 395.622070312 500.4453125 332.6328125 c 2
 423.6328125 -0.078125 l 1
 291.333007812 -0.078125 l 1
 300.159179688 38.15234375 l 1
 258.505859375 9.689453125 215.16796875 -5.95703125 149.346679688 -5.95703125 c 0
 86.9091796875 -5.95703125 41.6396484375 7.9501953125 14.8046875 36.9951171875 c 0
 -12.0244140625 66.03515625 -19.037109375 107.294921875 -7.060546875 159.172851562 c 0
 6.734375 218.926757812 56.2705078125 315.483398438 232.375976562 315.483398438 c 2
 361.24609375 315.483398438 l 1
 366.563476562 338.513671875 l 2xe6
201.59765625 105.762695312 m 0
 297.563476562 105.762695312 323.864257812 153.56640625 333.077148438 193.47265625 c 2
 338.620117188 217.482421875 l 1
 232.290039062 217.482421875 l 2
 148.736328125 217.482421875 131.78125 187.513671875 125.916992188 162.112304688 c 0
 121.924804688 144.8203125 118.42578125 105.762695312 201.59765625 105.762695312 c 0
288.42578125 715.322265625 m 0xee
 354.219726562 715.322265625 369.7421875 678.08203125 419.96875 678.08203125 c 0
 449.59375 678.08203125 469.1171875 690.694335938 520.502929688 725.141601562 c 1
 495.453125 616.638671875 l 1
 460.916015625 589.530273438 431.3515625 571.262695312 388.447265625 571.262695312 c 0xf6
 361.33984375 571.262695312 350.302734375 574.796875 298.833984375 598.795898438 c 0
 289.901367188 603.0078125 275.856445312 608.502929688 257.884765625 608.502929688 c 0
 227.123046875 608.502929688 204.514648438 594.338867188 155.7109375 562.83203125 c 1
 180.440429688 669.947265625 l 1
 216.560546875 698.291015625 245.305664062 715.322265625 288.42578125 715.322265625 c 0xee
EndSplineSet
EndChar

StartChar: adieresis
Encoding: 228 228 166
Width: 556
GlyphClass: 2
Flags: MW
HStem: -5.95703 111.72<160.012 182.257> 217.482 98.001<190.513 361.246 232.376 338.62> 422.304 107.8<280.433 327.844> 575.183 128.38<179.381 269.303 149.742 298.941 179.381 375.143 404.781 494.702>
VStem: 40.1504 132.299 100.909 119.561 326.31 119.56 372.369 135.24
LayerCount: 2
Fore
SplineSet
366.563476562 338.513671875 m 2xf9
 375.888671875 378.907226562 370.229492188 422.303710938 285.458984375 422.303710938 c 0
 253.547851562 422.303710938 230.241210938 416.365234375 215.29296875 406.271484375 c 0
 199.743164062 395.770507812 190.655273438 383.087890625 186.92578125 366.93359375 c 2
 184.549804688 356.643554688 l 1
 54.208984375 356.643554688 l 1
 56.5849609375 366.93359375 l 2
 68.232421875 417.384765625 97.927734375 457.965820312 144.68359375 487.053710938 c 0
 191.234375 516.014648438 247.581054688 530.103515625 313.28515625 530.103515625 c 0
 386.852539062 530.103515625 440.609375 513.559570312 473.390625 479.3828125 c 0
 506.267578125 445.104492188 514.987304688 395.622070312 500.4453125 332.6328125 c 2
 423.6328125 -0.078125 l 1
 291.333007812 -0.078125 l 1
 300.159179688 38.15234375 l 1
 258.505859375 9.689453125 215.16796875 -5.95703125 149.346679688 -5.95703125 c 0
 86.9091796875 -5.95703125 41.6396484375 7.9501953125 14.8046875 36.9951171875 c 0
 -12.0244140625 66.03515625 -19.037109375 107.294921875 -7.060546875 159.172851562 c 0
 6.734375 218.926757812 56.2705078125 315.483398438 232.375976562 315.483398438 c 2
 361.24609375 315.483398438 l 1
 366.563476562 338.513671875 l 2xf9
201.59765625 105.762695312 m 0
 297.563476562 105.762695312 323.864257812 153.56640625 333.077148438 193.47265625 c 2
 338.620117188 217.482421875 l 1
 232.290039062 217.482421875 l 2
 148.736328125 217.482421875 131.78125 187.513671875 125.916992188 162.112304688 c 0
 121.924804688 144.8203125 118.42578125 105.762695312 201.59765625 105.762695312 c 0
179.380859375 703.5625 m 1xf4
 298.94140625 703.5625 l 1
 269.302734375 575.182617188 l 1
 149.7421875 575.182617188 l 1
 179.380859375 703.5625 l 1xf4
404.78125 703.5625 m 1xf2
 524.340820312 703.5625 l 1
 494.702148438 575.182617188 l 1
 375.142578125 575.182617188 l 1
 404.78125 703.5625 l 1xf2
EndSplineSet
EndChar

StartChar: aring
Encoding: 229 229 167
Width: 556
GlyphClass: 2
Flags: MW
HStem: -5.95703 111.72<160.012 182.257> 217.482 98.001<190.513 361.246 232.376 338.62> 422.304 107.8<280.433 327.844> 554.603 68.5996<323.362 333.195> 703.562 68.6006<352.954 363.479>
VStem: 40.1504 132.299 165.59 70.5596 312.59 69.5801 372.369 135.24
LayerCount: 2
Fore
SplineSet
366.563476562 338.513671875 m 2xfc80
 375.888671875 378.907226562 370.229492188 422.303710938 285.458984375 422.303710938 c 0
 253.547851562 422.303710938 230.241210938 416.365234375 215.29296875 406.271484375 c 0
 199.743164062 395.770507812 190.655273438 383.087890625 186.92578125 366.93359375 c 2
 184.549804688 356.643554688 l 1
 54.208984375 356.643554688 l 1
 56.5849609375 366.93359375 l 2
 68.232421875 417.384765625 97.927734375 457.965820312 144.68359375 487.053710938 c 0
 191.234375 516.014648438 247.581054688 530.103515625 313.28515625 530.103515625 c 0
 386.852539062 530.103515625 440.609375 513.559570312 473.390625 479.3828125 c 0
 506.267578125 445.104492188 514.987304688 395.622070312 500.4453125 332.6328125 c 2
 423.6328125 -0.078125 l 1
 291.333007812 -0.078125 l 1
 300.159179688 38.15234375 l 1
 258.505859375 9.689453125 215.16796875 -5.95703125 149.346679688 -5.95703125 c 0
 86.9091796875 -5.95703125 41.6396484375 7.9501953125 14.8046875 36.9951171875 c 0
 -12.0244140625 66.03515625 -19.037109375 107.294921875 -7.060546875 159.172851562 c 0
 6.734375 218.926757812 56.2705078125 315.483398438 232.375976562 315.483398438 c 2
 361.24609375 315.483398438 l 1
 366.563476562 338.513671875 l 2xfc80
201.59765625 105.762695312 m 0
 297.563476562 105.762695312 323.864257812 153.56640625 333.077148438 193.47265625 c 2
 338.620117188 217.482421875 l 1
 232.290039062 217.482421875 l 2
 148.736328125 217.482421875 131.78125 187.513671875 125.916992188 162.112304688 c 0
 121.924804688 144.8203125 118.42578125 105.762695312 201.59765625 105.762695312 c 0
234.671875 662.892578125 m 0xfb
 241.846679688 693.96875 258.322265625 720.407226562 283.791015625 741.098632812 c 0
 309.216796875 761.755859375 337.71875 772.162109375 368.188476562 772.162109375 c 0
 398.657226562 772.162109375 422.354492188 761.755859375 438.243164062 741.098632812 c 0
 454.157226562 720.407226562 458.426757812 693.96875 451.251953125 662.892578125 c 0
 444.217773438 632.422851562 427.784179688 606.323242188 402.358398438 585.666015625 c 0
 376.931640625 565.008789062 348.4296875 554.602539062 317.9609375 554.602539062 c 0
 287.491210938 554.602539062 263.793945312 565.008789062 247.90625 585.666015625 c 0
 232.017578125 606.323242188 227.637695312 632.422851562 234.671875 662.892578125 c 0xfb
333.798828125 623.202148438 m 0
 356.791992188 623.202148438 376.654296875 641.16015625 381.671875 662.891601562 c 0
 387.162109375 686.673828125 374.606445312 703.561523438 352.350585938 703.561523438 c 0
 329.30859375 703.561523438 310.512695312 685.76953125 305.231445312 662.891601562 c 0
 300.012695312 640.287109375 312.92578125 623.202148438 333.798828125 623.202148438 c 0
EndSplineSet
EndChar

StartChar: ae
Encoding: 230 230 168
Width: 897
GlyphClass: 2
Flags: MW
HStem: -8.89648 114.658<160.472 206.521> 219.441 98<497.476 531.333> 414.461 118.582<620.026 643.342> 422.304 107.8<280.433 327.844>
VStem: 40.1504 132.3 372.37 135.358 721.25 135.24
LayerCount: 2
Fore
SplineSet
366.563476562 338.513671875 m 2xee
 375.888671875 378.907226562 370.229492188 422.303710938 285.458984375 422.303710938 c 0
 253.547851562 422.303710938 230.241210938 416.365234375 215.29296875 406.271484375 c 0
 199.743164062 395.770507812 190.655273438 383.087890625 186.92578125 366.93359375 c 2
 184.549804688 356.643554688 l 1
 54.208984375 356.643554688 l 1
 56.5849609375 366.93359375 l 2
 68.232421875 417.384765625 97.927734375 457.965820312 144.68359375 487.053710938 c 0
 191.234375 516.014648438 247.581054688 530.103515625 313.28515625 530.103515625 c 0xde
 387.138671875 530.103515625 440.989257812 512.672851562 473.510742188 476.799804688 c 1
 525.568359375 514.421875 586.028320312 533.04296875 654.024414062 533.04296875 c 0
 727.951171875 533.04296875 782.353515625 511.77734375 815.83984375 468.6796875 c 0
 849.416992188 425.46875 856.564453125 363.98828125 838.465820312 285.59375 c 2
 823.194335938 219.443359375 l 1
 815.844726562 219.443359375 l 2
 702.041015625 219.443359375 588.235351562 219.44140625 474.431640625 219.44140625 c 1
 461.631835938 154.837890625 482.212890625 111.641601562 566.536132812 111.641601562 c 0
 597.173828125 111.641601562 653.703125 118.399414062 672.84765625 165.87109375 c 1
 677.637695312 174.361328125 l 1
 810.193359375 174.361328125 l 1
 804.595703125 160.280273438 l 1
 778.53515625 72.4775390625 686.666015625 -8.896484375 538.708007812 -8.896484375 c 0
 461.91015625 -8.896484375 405.188476562 13.0849609375 369.872070312 57.5244140625 c 1
 314.981445312 12.986328125 246.735351562 -8.896484375 166.307617188 -8.896484375 c 0
 99.935546875 -8.896484375 51.0380859375 5.8447265625 20.7041015625 36.3671875 c 0
 -9.62890625 66.8896484375 -18.64453125 108.997070312 -6.607421875 161.133789062 c 0
 1.619140625 196.768554688 35.4033203125 317.443359375 232.829101562 317.443359375 c 2
 361.69921875 317.443359375 l 1
 366.563476562 338.513671875 l 2xee
710.69140625 317.931640625 m 2
 718.192382812 350.420898438 713.922851562 373.798828125 698.977539062 389.76953125 c 0
 683.779296875 406.010742188 660.036132812 414.4609375 626.647460938 414.4609375 c 0xee
 566.122070312 414.4609375 520.100585938 388.041015625 497.475585938 317.44140625 c 1
 710.578125 317.44140625 l 1
 710.69140625 317.931640625 l 2
201.598632812 105.76171875 m 0
 275.157226562 105.76171875 319.541992188 134.841796875 333.756835938 196.411132812 c 2
 339.073242188 219.44140625 l 1
 232.743164062 219.44140625 l 2
 148.202148438 219.44140625 132.330078125 189.885742188 126.596679688 165.051757812 c 0
 121.600585938 143.41015625 119.345703125 105.76171875 201.598632812 105.76171875 c 0
EndSplineSet
EndChar

StartChar: ccedilla
Encoding: 231 231 169
Width: 562
GlyphClass: 2
Flags: MW
HStem: 410.543 122.5<290.76 331.292>
VStem: 48.9697 135.24 388.05 133.279
LayerCount: 2
Fore
SplineSet
158.521484375 -5.8251953125 m 1
 90.1083984375 2.4443359375 -24.88671875 43.759765625 18.7275390625 232.672851562 c 2
 32.755859375 293.43359375 l 2
 50.55078125 370.514648438 85.39453125 430.422851562 137.913085938 471.704101562 c 0
 190.233398438 512.830078125 253.837890625 533.04296875 327.682617188 533.04296875 c 0
 400.00390625 533.04296875 453.50390625 516.12109375 487.061523438 481.354492188 c 0
 520.673828125 446.530273438 530.251953125 398.064453125 516.27734375 337.533203125 c 2
 513.223632812 324.303710938 l 1
 379.943359375 324.303710938 l 1
 382.544921875 335.573242188 l 2
 394.02734375 385.30859375 360.240234375 410.54296875 302.342773438 410.54296875 c 0
 217.810546875 410.54296875 183.225585938 359.400390625 167.54296875 291.473632812 c 2
 154.194335938 233.653320312 l 2
 137.952148438 163.299804688 150.440429688 114.583984375 236.955078125 114.583984375 c 0
 267.251953125 114.583984375 291.72265625 121.37890625 310.927734375 134.09765625 c 0
 330.036132812 146.751953125 341.81640625 163.407226562 346.948242188 185.633789062 c 2
 349.549804688 196.904296875 l 1
 482.829101562 196.904296875 l 1
 480.227539062 185.633789062 l 2
 468.887695312 136.517578125 445.254882812 95.0869140625 409.284179688 62.2509765625 c 0
 374.282226562 30.2998046875 331.012695312 9.2568359375 280.250976562 -1.0908203125 c 1
 183.063476562 -152.956054688 l 1
 49.5078125 -152.956054688 l 1
 158.521484375 -5.8251953125 l 1
EndSplineSet
EndChar

